<?xml version="1.0" encoding="UTF-8" standalone="no"?>
<!-- Created with Inkscape (http://www.inkscape.org/) -->

<svg
   xmlns:dc="http://purl.org/dc/elements/1.1/"
   xmlns:cc="http://creativecommons.org/ns#"
   xmlns:rdf="http://www.w3.org/1999/02/22-rdf-syntax-ns#"
   xmlns:svg="http://www.w3.org/2000/svg"
   xmlns="http://www.w3.org/2000/svg"
   xmlns:sodipodi="http://sodipodi.sourceforge.net/DTD/sodipodi-0.dtd"
   xmlns:inkscape="http://www.inkscape.org/namespaces/inkscape"
   id="svg4136"
   version="1.1"
   inkscape:version="0.91 r13725"
   width="492.1875"
   height="391.875"
   viewBox="0 0 492.1875 391.875"
   sodipodi:docname="WoodenBridge.svg">
  <metadata
     id="metadata4142">
    <rdf:RDF>
      <cc:Work
         rdf:about="">
        <dc:format>image/svg+xml</dc:format>
        <dc:type
           rdf:resource="http://purl.org/dc/dcmitype/StillImage" />
        <dc:title></dc:title>
      </cc:Work>
    </rdf:RDF>
  </metadata>
  <defs
     id="defs4140" />
  <sodipodi:namedview
     pagecolor="#ffffff"
     bordercolor="#666666"
     borderopacity="1"
     objecttolerance="10"
     gridtolerance="10"
     guidetolerance="10"
     inkscape:pageopacity="0"
     inkscape:pageshadow="2"
     inkscape:window-width="1600"
     inkscape:window-height="837"
     id="namedview4138"
     showgrid="false"
     inkscape:zoom="1.7097289"
     inkscape:cx="246.09375"
     inkscape:cy="195.9375"
     inkscape:window-x="-8"
     inkscape:window-y="-8"
     inkscape:window-maximized="1"
     inkscape:current-layer="svg4136" />
  <path
     style="fill:#000000"
     d="m 394.83741,389.82964 c -2.94994,-7.95726 -6.19417,-17.97235 -7.31989,-22.59685 -0.72611,-2.9829 -2.36304,-7.78148 -3.63761,-10.66352 -1.27457,-2.88204 -2.31741,-5.62983 -2.31741,-6.10621 0,-0.47638 -0.87164,-2.63872 -1.93698,-4.80523 -1.06533,-2.16649 -4.44713,-11.46781 -7.51511,-20.66959 -6.00301,-18.00477 -6.84506,-20.00365 -9.35546,-22.20798 -0.90103,-0.79118 -2.96128,-4.86932 -4.57837,-9.06255 -4.02308,-10.4322 -5.89504,-12.68756 -9.90611,-11.93508 l -3.11521,0.58441 -5.70263,-11.59086 c -3.13645,-6.37499 -5.70263,-11.9279 -5.70263,-12.33983 0,-0.41193 -1.01173,-2.0919 -2.24829,-3.73328 -1.23657,-1.64137 -5.42429,-9.62885 -9.30605,-17.74995 -3.88177,-8.12109 -7.54233,-14.76562 -8.13459,-14.76562 -0.7804,0 -0.894,2.33717 -0.41266,8.49007 0.65939,8.429 0.64515,8.50992 -1.98002,11.25 -1.4543,1.51796 -3.14951,2.75993 -3.76713,2.75993 -1.79699,0 -4.03504,-8.36857 -4.03453,-15.08603 4.3e-4,-5.85032 -1.79549,-17.44111 -3.98134,-25.69522 C 298.23591,197.67754 281.32481,172.5 278.79063,172.5 c -1.62285,0 -1.87478,3.91998 -1.11466,17.34375 1.20608,21.29977 1.17015,50.4535 -0.0651,52.76147 -1.30089,2.43071 -5.32648,2.80385 -8.13488,0.75401 -1.64385,-1.19984 -1.87967,-2.99015 -2.4389,-18.51562 -0.76363,-21.20054 -2.32977,-36.33301 -3.95791,-38.24265 -1.89075,-2.21765 -2.32996,-4.05016 -2.98137,-12.43916 -0.33122,-4.26555 -1.00289,-8.17742 -1.49259,-8.69305 -0.4897,-0.51562 -3.03577,-0.87167 -5.65792,-0.79121 -3.93949,0.12088 -5.15223,0.59398 -6.98245,2.72394 -1.38753,1.61476 -2.21492,3.76713 -2.21492,5.76186 0,2.71067 -0.42765,3.33328 -2.87569,4.18667 -2.66172,0.92788 -2.83529,1.25558 -2.33279,4.40435 0.2986,1.87104 0.76045,6.94131 1.02633,11.26727 0.26589,4.32595 0.67094,8.16879 0.90014,8.53964 0.22919,0.37084 0.47251,7.16736 0.54071,15.10337 0.0682,7.93601 0.40478,18.61564 0.74799,23.7325 0.52499,7.82719 0.3822,9.60202 -0.89992,11.18536 -1.35367,1.67172 -1.83999,1.75104 -4.35318,0.71004 -1.67667,-0.69449 -4.18138,-0.91827 -6.14821,-0.54929 -4.70498,0.88265 -5.57984,-1.20268 -5.25846,-12.53408 0.32115,-11.32356 -1.55691,-38.69645 -3.54777,-51.70917 -0.82832,-5.41406 -1.62564,-15.11719 -1.77182,-21.5625 -0.14618,-6.44531 -0.57177,-18.46875 -0.94576,-26.71875 -0.37398,-8.25 -0.61915,-16.32964 -0.54483,-17.95476 0.0744,-1.62511 -0.49155,-4.15636 -1.25752,-5.625 -0.76597,-1.46863 -1.39526,-4.19475 -1.39844,-6.05803 -0.0147,-8.62668 -14.76652,-13.103182 -24.22497,-7.35116 -2.7973,1.70114 -2.96831,2.12614 -2.96831,7.37695 0,3.70273 -0.47173,6.04355 -1.40625,6.97807 -1.79893,1.79894 -1.77685,2.04726 0.45295,5.09376 1.65848,2.26595 1.91576,4.56431 2.38319,21.29017 0.28819,10.3125 0.94461,21.72694 1.45871,25.36542 0.6484,4.58906 0.6178,8.65794 -0.0999,13.28355 -0.79409,5.11806 -0.75309,8.3747 0.1764,14.00957 0.66604,4.0378 1.22059,11.13834 1.23231,15.77896 0.0142,5.59517 0.43024,8.86898 1.2352,9.71834 0.99466,1.04953 0.974,1.6421 -0.11435,3.28125 -1.65859,2.49796 -2.66485,2.39746 -4.09565,-0.40906 -0.61662,-1.2095 -1.88224,-2.4836 -2.8125,-2.83132 -0.93026,-0.34773 -3.04953,-3.31861 -4.70951,-6.60197 -3.0601,-6.05277 -3.82159,-11.68106 -4.35918,-32.21974 l -0.12269,-4.6875 -6.5625,0.28485 c -3.60937,0.15667 -9.46831,1.15899 -13.01986,2.2274 l -6.45736,1.94256 0.59266,7.71024 c 0.53365,6.9426 0.40651,7.8787 -1.27701,9.40227 -2.17222,1.96582 -2.37542,4.91736 -0.63106,9.16592 1.56664,3.81573 1.29619,24.52962 -0.34612,26.50849 -0.71844,0.86565 -1.97438,1.12715 -3.57789,0.74494 -3.74884,-0.89359 -4.6753,-2.0013 -5.24106,-6.26645 -0.52559,-3.96253 -3.32352,-41.67606 -3.32352,-44.79838 0,-3.29256 -2.99934,-3.75863 -14.7339,-2.28953 -6.07604,0.76069 -12.48491,1.67766 -14.24194,2.03773 -3.01186,0.61722 -3.16157,0.52841 -2.61736,-1.55265 0.31748,-1.21402 0.1129,-2.76682 -0.45463,-3.45064 -1.54655,-1.86348 -0.38412,-2.44119 6.53382,-3.24716 16.52583,-1.92532 24.1604,-2.38659 25.22804,-1.52426 1.38743,1.12065 5.46153,0.63278 5.38906,-0.64533 -0.0293,-0.51563 -1.29485,-1.15087 -2.8125,-1.41164 -2.64698,-0.45483 -2.77845,-0.71392 -3.22861,-6.36264 -0.29975,-3.76125 -0.97711,-6.22941 -1.875,-6.83215 -2.421,-1.62516 -17.34153,0.93427 -22.21743,3.81112 -2.49001,1.46913 -3.60979,1.69103 -4.55887,0.90336 -0.69196,-0.57427 -1.96196,-0.90382 -2.82224,-0.73234 -1.99731,0.39814 -2.68326,7.34304 -0.72526,7.34304 1.47452,0 1.68267,1.50424 0.32432,2.34375 -0.51562,0.31867 -0.9375,3.71857 -0.9375,7.55533 l 0,6.97592 3.98438,-0.004 c 2.1914,-0.002 7.78125,-0.6274 12.42187,-1.38988 10.10781,-1.66075 9.84375,-1.64695 9.84375,-0.51453 0,1.67925 -3.66545,2.88222 -13.06417,4.28753 -5.14645,0.76952 -9.97507,1.63622 -10.73027,1.92602 -2.12447,0.81523 -2.65212,3.29835 -1.07191,5.04446 0.78587,0.86837 1.42885,2.88927 1.42885,4.49088 0,1.60162 0.44527,4.08318 0.98949,5.51459 1.23833,3.25704 0.39633,6.8945 -1.59592,6.8945 -1.2353,0 -1.39937,0.68067 -0.9067,3.76165 1.67385,10.46764 1.78399,17.71658 0.30353,19.97605 -1.2931,1.97353 -10.545075,6.07012 -11.5161,5.09911 -0.182278,-0.18228 -0.576853,-8.32717 -0.876835,-18.09974 -0.299983,-9.7724 -0.939713,-20.51033 -1.421623,-23.86189 -0.481911,-3.35156 -0.884558,-8.28763 -0.894771,-10.96904 -0.01384,-3.63274 -0.431739,-5.10652 -1.639683,-5.78251 -1.532816,-0.85781 -1.530814,-1.007 0.03677,-2.73916 1.384832,-1.53022 1.613224,-3.27992 1.386738,-10.62374 -0.256234,-8.30837 -0.387132,-8.80827 -2.380518,-9.09138 -1.528133,-0.21703 -2.10542,0.17047 -2.095019,1.40625 0.01215,1.44435 0.153662,1.49027 0.923144,0.29958 1.817715,-2.81272 0.998981,2.70458 -0.9375,6.31764 -1.03125,1.92409 -1.875,4.01709 -1.875,4.65112 0,0.63402 -0.84375,1.60433 -1.875,2.15624 -2.447936,1.3101 -2.380329,3.28973 0.173436,5.07847 2.039276,1.42835 2.033168,1.44115 -1.365644,2.86126 -1.877745,0.78458 -4.243792,2.31709 -5.257884,3.40559 -2.695347,2.89311 -3.86241,1.44794 -3.86241,-4.78282 0,-3.03289 -0.421875,-5.77507 -0.9375,-6.09375 -0.585117,-0.36162 -0.9375,1.52988 -0.9375,5.03226 0,5.35914 -0.133042,5.67803 -2.956536,7.08658 -6.522375,3.25379 -7.853819,1.56947 -6.282181,-7.94717 0.842758,-5.10309 0.817948,-6.77189 -0.117435,-7.89895 C 59.632672,171.39652 56.25,171.04329 56.25,172.5 c 0,0.51562 0.818852,0.9375 1.819672,0.9375 2.739231,0 3.417297,1.9753 1.273864,3.71094 -1.293005,1.04702 -2.102699,3.21632 -2.556664,6.84973 -0.540079,4.32265 -1.192062,5.76146 -3.485051,7.69088 -5.033991,4.23583 -5.255429,3.70837 -3.122568,-7.43778 1.640924,-8.57534 1.399133,-9.87627 -1.835595,-9.87627 -3.029432,0 -4.281158,2.43276 -4.281158,8.32054 0,8.20073 -2.366034,6.82711 -3.028178,-1.75804 -0.13919,-1.80469 -0.674947,-3.16818 -1.190572,-3.02998 -0.533982,0.14312 -0.927373,3.6739 -0.913973,8.20312 0.02071,6.99987 -0.175705,7.95186 -1.640625,7.95186 -1.096995,0 -1.668515,-0.71889 -1.676954,-2.10938 -0.03224,-5.31321 -2.413955,-8.47446 -3.437077,-4.56203 -0.312824,1.19624 -1.040666,1.61471 -2.255765,1.29696 -1.181301,-0.30892 -3.075537,0.68874 -5.54684,2.92142 C 21.858265,193.88093 19.712355,195 17.87083,195 c -1.511823,0 -3.891103,0.43432 -5.28729,0.96515 -1.896901,0.7212 -3.8365604,0.58779 -7.6741108,-0.52782 -5.11919005,-1.48818 -5.13392057,-1.50324 -4.61290173,-4.7139 0.28747838,-1.77152 1.80695233,-5.01448 3.37660883,-7.20657 3.9566752,-5.52565 4.4448124,-8.88074 2.0723857,-14.244 -1.4311317,-3.23531 -1.7972197,-5.45793 -1.389239,-8.43448 0.3046769,-2.22286 0.069142,-5.51058 -0.5234119,-7.30603 -0.5925536,-1.79545 -1.2175691,-7.22708 -1.3889234,-12.07028 -0.1713544,-4.8432 -0.615198,-10.0872 -0.9863192,-11.65335 -0.51207303,-2.16096 -0.2200873,-3.40419 1.2110066,-5.15625 2.3799467,-2.91373 3.8347529,-1.73589 4.5631039,3.69437 0.5717918,4.26302 1.4243369,5.27366 3.478829,4.12391 1.503999,-0.84168 5.261391,-5.82359 7.637846,-10.127 0.854227,-1.54687 2.636722,-3.97071 3.961101,-5.38628 2.224367,-2.37755 2.400715,-3.19725 2.312902,-10.75085 -0.102574,-8.823179 0.703428,-11.51912 3.443857,-11.51912 1.758098,0 3.808726,4.083553 3.808726,7.58457 0,3.526 2.134372,2.65353 8.468671,-3.461717 l 6.552404,-6.325815 -0.574371,-4.329815 c -0.653899,-4.929338 0.515897,-6.562117 4.924295,-6.873231 2.473696,-0.174577 2.667019,0.06228 2.756762,3.377519 0.207283,7.657384 2.827107,5.679156 12.559739,-9.483855 C 67.851562,73.166853 71.648437,69.219955 75,66.404271 83.589733,59.187942 85.309415,56.341828 85.326008,49.314485 l 0.01351,-5.720735 4.849495,-2.675839 c 4.59465,-2.535217 4.914178,-2.587385 6.080241,-0.99269 1.555959,2.127897 1.515347,3.213415 -0.205312,5.488338 -0.757041,1.000895 -1.376438,3.215739 -1.376438,4.921875 0,4.548792 2.447231,4.049664 10.0153,-2.042686 3.91176,-3.148991 8.20933,-5.68236 11.07845,-6.530616 5.85505,-1.731053 8.90625,-3.840893 8.90625,-6.158485 0,-3.46949 3.04728,-8.416147 5.18458,-8.416147 2.42767,0 5.74226,3.259656 4.25149,4.181006 -1.1289,0.697702 -1.37623,4.258221 -0.29545,4.253279 0.38672,-0.0018 3.80544,-1.267393 7.59714,-2.8125 C 145.21697,31.264178 148.79847,30 149.38417,30 c 0.58568,0 2.8607,-0.738281 5.05559,-1.640625 3.63027,-1.492444 3.99103,-1.939315 3.99422,-4.947651 0.005,-4.835489 2.29892,-7.647369 5.94885,-7.292531 2.45986,0.239142 3.03314,0.756243 3.4345,3.097958 0.41175,2.402295 1.26679,3.122385 5.88213,4.953676 2.97019,1.178525 7.37254,2.511221 9.78301,2.961544 3.06581,0.572756 4.92195,1.55908 6.17745,3.282611 1.83611,2.520571 7.94758,6.147518 10.35868,6.147518 1.70724,0 2.4814,-2.025987 2.4814,-6.493875 0,-2.227274 0.6321,-4.100065 1.71444,-5.079574 2.1357,-1.93278 4.73401,-2.002097 5.44653,-0.145301 0.2968,0.773437 1.31335,1.40625 2.259,1.40625 2.2969,0 2.80631,1.023587 3.10989,6.248934 0.25436,4.377987 0.29414,4.427242 4.87892,6.041111 6.40602,2.254952 6.66493,2.212746 10.69308,-1.74317 1.96891,-1.933594 6.47098,-6.357199 10.00462,-9.830232 3.53362,-3.473035 7.85788,-8.022675 9.60946,-10.110313 3.19503,-3.808047 5.24338,-4.421824 5.26369,-1.577242 0.006,0.838158 0.5129,2.02594 1.12648,2.639515 0.86245,0.862457 1.61674,0.633244 3.32424,-1.01016 1.21476,-1.169165 6.19222,-3.945189 11.06103,-6.168943 6.00019,-2.7404989 9.22859,-4.7826816 10.02005,-6.3383712 0.64223,-1.2623505 2.4931,-2.8441835 4.11303,-3.51518429 4.08913,-1.69377117 7.93009,0.39715899 7.65853,4.16912729 -0.16888,2.3457715 0.0866,2.5654332 2.8125,2.4175841 5.85819,-0.3177476 7.10057,0.068227 11.58595,3.5994581 4.7981,3.777429 12.02986,6.37793 15.06104,5.41587 1.10686,-0.351304 4.59268,0.708184 8.94301,2.718157 3.92102,1.811622 7.71604,3.293859 8.4334,3.293859 0.71735,0 2.32703,1.105534 3.57707,2.456741 2.44036,2.637873 9.25623,5.980759 12.19427,5.980759 1.49861,0 1.79727,0.684368 1.79727,4.118448 0,5.297359 2.42496,6.71477 4.06307,2.374907 0.9486,-2.513128 1.43153,-2.816309 3.74807,-2.353003 4.82423,0.964848 8.12636,4.056846 8.12636,7.609251 0,2.224938 -0.56495,3.48678 -1.875,4.187897 -2.57379,1.377452 -2.35531,2.422771 0.90949,4.351332 1.53147,0.904661 4.36216,3.987106 6.29043,6.849879 1.92825,2.862771 6.45268,8.153589 10.05425,11.757372 6.01975,6.023424 6.88285,6.563594 10.6926,6.691834 7.08273,0.23841 10.17666,5.010354 8.16465,12.592818 -0.62015,2.337087 1.41042,5.666249 7.67491,12.583155 0.92533,1.02169 2.10429,2.54341 2.61992,3.38157 1.40385,2.28202 5.98661,9.30791 8.59033,13.16997 1.30442,1.93483 3.3901,3.6713 4.82278,4.01527 1.41117,0.3388 4.48815,2.87109 6.97751,5.74232 3.90116,4.49961 4.45313,5.66262 4.45313,9.38281 0,3.07966 1.0478,6.36124 3.81313,11.94224 2.09722,4.23263 4.69469,10.01599 5.77217,12.85193 2.4252,6.38319 6.63365,14.28712 10.20657,19.16906 1.48947,2.03517 2.70813,4.25002 2.70813,4.92188 0,0.72605 1.11522,1.22156 2.74932,1.22156 3.09899,0 4.26416,2.09546 3.30039,5.93545 -0.88184,3.51351 9.64487,24.48583 14.26697,28.42404 1.11949,0.95384 3.1234,4.818 4.45313,8.58701 4.04314,11.45993 3.14795,31.5412 -1.28394,28.80214 -0.8385,-0.51822 -0.99377,-2.16452 -0.54381,-5.7659 0.59141,-4.73351 0.49202,-5.09295 -1.63166,-5.90037 -1.92101,-0.73036 -2.48759,-1.98735 -3.76375,-8.34999 -1.62993,-8.12649 -5.95851,-17.93994 -10.08113,-22.85523 l -2.59663,-3.0959 -2.43445,2.27279 C 465.53227,217.32992 465,218.72179 465,221.92013 c 0,2.69508 -0.67623,5.00794 -1.97968,6.77095 -1.67587,2.26673 -1.83278,3.16011 -1.02243,5.82141 0.52649,1.72907 1.17837,5.25314 1.44863,7.83126 0.27025,2.57813 1.39042,6.79688 2.48925,9.375 5.7456,13.48047 12.21165,30.85008 12.21486,32.8125 0.004,2.5368 0.98124,3.84143 3.45492,4.61318 3.13523,0.97815 8.94269,12.34605 8.25338,16.15568 -0.29422,1.626 -1.14438,3.19023 -1.88926,3.47606 -1.56665,0.60118 -7.00467,-1.0319 -8.56184,-2.57119 -1.37727,-1.36143 -15.24311,-36.31881 -15.96041,-40.23801 -0.5095,-2.78379 -0.38391,-2.69651 1.756,1.22053 1.2676,2.32031 3.03829,6.42863 3.93484,9.1296 1.52456,4.5929 2.92673,6.61792 3.905,5.63963 0.23019,-0.23018 -0.6885,-2.90914 -2.04152,-5.95324 -1.35301,-3.04411 -3.00544,-7.22224 -3.67205,-9.28474 -1.05872,-3.27569 -4.36436,-12.29929 -8.4142,-22.96875 -3.87718,-10.2146 -12.42065,-28.25487 -21.95984,-46.3701 C 435.88004,195.33728 435,192.55994 435,191.20802 c 0,-3.18639 -0.76322,-3.86726 -2.9957,-2.67248 -2.28045,1.22046 -4.5043,-0.40676 -4.5043,-3.29585 0,-1.11691 -0.79777,-3.59551 -1.77281,-5.50801 -0.97505,-1.9125 -2.01921,-4.45897 -2.32035,-5.65882 -0.51992,-2.07151 -3.71388,-9.04305 -6.94849,-15.16661 -0.81709,-1.54688 -2.16177,-4.71094 -2.98819,-7.03125 -0.8551,-2.40086 -2.35486,-4.59904 -3.48046,-5.10128 -1.08784,-0.48539 -2.91019,-2.8057 -4.04967,-5.15625 -1.13948,-2.35054 -3.2937,-6.08784 -4.78716,-8.30509 -1.49345,-2.21726 -2.71537,-4.38044 -2.71537,-4.80709 0,-0.42664 -0.64077,-1.3075 -1.42393,-1.95746 -1.2134,-1.00704 -1.3063,-0.92005 -0.62835,0.58833 0.43758,0.97355 1.59806,3.66853 2.57886,5.98884 0.98081,2.32031 2.72566,6.0965 3.87747,8.39151 1.15179,2.29502 1.94684,4.3201 1.76675,4.50018 -0.2694,0.26941 -3.96794,-5.64714 -10.46213,-16.73629 -0.55554,-0.94862 -2.07593,-2.56317 -3.37863,-3.58786 -1.3027,-1.02471 -3.97701,-4.93957 -5.9429,-8.69969 -1.9659,-3.76014 -4.59302,-8.46447 -5.83806,-10.45409 -1.49253,-2.38512 -2.07547,-4.36752 -1.71114,-5.81911 0.40175,-1.600709 -0.15324,-2.959156 -2.03331,-4.976975 -1.42224,-1.526437 -3.64057,-4.275712 -4.92963,-6.109503 -1.28978,-1.834822 -3.73076,-3.805031 -5.42812,-4.38125 -1.69641,-0.575897 -4.4386,-2.424309 -6.09375,-4.107582 -1.65516,-1.683273 -3.52442,-3.227018 -4.15393,-3.430544 -0.6295,-0.203525 -5.13887,-4.27239 -10.02082,-9.041921 C 339.0507,63.23485 334.99582,60 333.74567,60 c -1.09666,0 -2.87582,-0.471969 -3.95367,-1.048822 -1.6274,-0.870952 -2.21348,-0.712445 -3.45588,0.934653 -1.18319,1.568585 -3.16259,2.190027 -9.463,2.970952 -8.20305,1.016751 -15.84502,2.708292 -23.73073,5.252766 -4.95325,1.598263 -6.29626,1.220203 -4.29161,-1.208101 1.01384,-1.228099 1.04368,-1.669472 0.1336,-1.975781 -2.13988,-0.720214 -1.2169,-2.047103 2.8125,-4.043311 5.93649,-2.941004 11.93248,-4.576567 16.65251,-4.542412 2.31378,0.01674 5.68064,-0.41852 7.48192,-0.967251 6.44588,-1.963628 7.42109,-0.1666 1.29799,2.391795 -6.67324,2.788257 -1.8525,3.693665 7.08461,1.330597 2.99179,-0.791062 3.60886,-2.828343 1.05867,-3.495234 -1.37999,-0.360874 -1.92664,-1.139254 -1.7394,-2.476704 0.17021,-1.215715 -0.45544,-2.318457 -1.66089,-2.927415 -3.27516,-1.654513 -11.65979,-9.224606 -11.65979,-10.527076 0,-1.667043 -2.3107,-1.559153 -3.75,0.175094 -1.6209,1.95307 -3.75,1.759247 -3.75,-0.341383 0,-5.243869 -24.66743,-8.236475 -32.65503,-3.961645 -1.05006,0.561978 -4.15457,1.021778 -6.8989,1.021778 -2.74434,0 -6.46347,0.438851 -8.26476,0.975225 -1.80128,0.536374 -4.96256,1.352996 -7.02506,1.814717 -2.0625,0.461721 -5.42917,1.265974 -7.48148,1.787229 -3.08714,0.784085 -4.0326,0.675229 -5.4753,-0.630396 -1.6398,-1.484007 -1.8234,-1.469303 -3.07803,0.246511 -0.73382,1.003555 -1.1932,2.263579 -1.02084,2.800054 0.56892,1.770815 13.13418,8.521068 13.5484,7.278409 0.21024,-0.630711 1.61953,-1.146749 3.13175,-1.146749 2.01077,0 3.69,1.018728 6.25,3.791631 1.92527,2.085396 5.39894,5.565252 7.71925,7.733012 10.20686,9.535797 21.49203,21.727373 21.75012,23.497059 0.1996,1.368566 1.36931,2.211437 4.03304,2.906101 5.1302,1.337886 6.09184,2.108675 6.09184,4.882817 0,1.313108 1.05469,3.640883 2.34375,5.172852 1.28906,1.531959 2.34375,3.596768 2.34375,4.588458 0,0.99169 0.3816,1.80307 0.84801,1.80307 0.4664,0 2.21485,2.42578 3.88544,5.39063 3.82065,6.78063 9.29268,13.52774 10.61405,13.08729 0.55387,-0.18462 1.2469,-1.3591 1.54007,-2.60993 0.85286,-3.63877 4.04513,-3.44301 5.41011,0.33176 0.6269,1.73367 1.13982,4.24788 1.13982,5.58713 0,1.52874 1.57016,4.2745 4.21875,7.37741 2.32031,2.71831 4.21875,5.37169 4.21875,5.8964 0,0.5247 1.53775,2.52881 3.41723,4.45358 3.46441,3.54786 6.05882,7.39808 9.87243,14.65107 1.50466,2.86165 2.92312,4.22709 4.95603,4.77078 2.40893,0.64424 2.81673,1.17641 2.64487,3.45153 -0.11176,1.47942 0.41057,3.36807 1.16073,4.19699 0.75017,0.82893 1.62831,2.82898 1.95143,4.44458 0.32312,1.61559 1.40395,3.67633 2.40186,4.57941 1.5818,1.43152 2.19887,1.48755 4.81426,0.43717 3.40167,-1.36617 11.32687,-3.1889 20.45175,-4.70373 7.63641,-1.26772 8.32941,-1.27345 8.32941,-0.0689 0,1.22113 -2.89086,2.30901 -13.96717,5.25614 C 365.81343,183.31097 360,185.99271 360,187.9878 c 0,1.60153 0.92418,1.72759 3.94027,0.53743 3.93696,-1.55355 16.21628,-4.79711 21.40805,-5.65491 2.81623,-0.46531 5.85871,-1.13569 6.76105,-1.48972 1.14396,-0.44884 1.64063,-0.19303 1.64063,0.84499 0,0.81877 -0.94922,1.68976 -2.10938,1.93551 -19.97125,4.23045 -28.82812,6.91915 -28.82812,8.7514 0,0.4354 0.59316,1.60282 1.31812,2.59427 1.18546,1.62121 1.72798,1.69251 5.39063,0.70836 5.82057,-1.56397 6.81682,0.15294 1.42885,2.46249 -5.01054,2.14777 -5.01707,2.91397 -0.0772,9.07117 1.69553,2.11339 3.38596,5.06651 3.75652,6.5625 0.37056,1.49598 1.4493,3.27123 2.39721,3.94499 1.2483,0.88729 1.72347,2.42147 1.72347,5.56458 0,2.89716 0.5758,4.98284 1.73235,6.27497 0.9528,1.06448 2.46765,3.83263 3.36634,6.15143 0.89869,2.31881 2.07733,4.49001 2.61918,4.82489 0.54186,0.3349 2.88671,-0.40216 5.2108,-1.63788 2.32407,-1.23572 4.72512,-2.24677 5.33566,-2.24677 0.61054,0 5.04784,-1.26563 9.86067,-2.8125 9.114,-2.9293 11.25,-3.32106 11.25,-2.06333 0,0.9642 -5.61256,3.00083 -8.26969,3.00083 -2.17857,0 -2.84461,2.36116 -0.87094,3.08753 0.64453,0.23722 -0.0937,0.69604 -1.64062,1.01962 -1.54688,0.32357 -5.34375,1.24392 -8.4375,2.04521 -3.09375,0.80129 -6.78516,1.69113 -8.20313,1.97742 -3.39282,0.68502 -3.30237,1.82686 1.03123,13.01808 1.98515,5.12649 4.99963,12.97254 6.69887,17.43566 2.22165,5.83528 3.70232,8.394 5.27103,9.10875 1.19984,0.54668 2.46283,2.11481 2.80666,3.48472 0.59729,2.37978 0.83261,2.46619 5.28148,1.93928 3.45958,-0.40973 5.01776,-0.19005 6.06255,0.85474 0.94127,0.94127 1.76892,1.10517 2.50326,0.49574 0.60337,-0.50076 5.09384,-1.94366 9.97879,-3.20644 11.30059,-2.92126 23.24681,-7.54965 24.73332,-9.58258 1.03991,-1.42215 1.39201,-1.28621 3.66506,1.41516 1.38305,1.64366 2.51463,3.58891 2.51463,4.32279 0,1.62926 -0.44097,1.6603 -2.78552,0.1961 -1.53127,-0.9563 -2.17573,-0.80645 -4.03208,0.9375 -1.61584,1.51801 -3.36157,2.07572 -6.49732,2.07572 -2.35831,0 -7.94374,1.05944 -12.41208,2.35432 -10.24401,2.96859 -20.13571,4.39221 -25.0539,3.60576 l -3.81003,-0.60925 0.64578,5.99646 c 0.36323,3.37279 1.38819,7.02194 2.34259,8.34021 2.45746,3.39442 9.54622,3.11904 18.32131,-0.71171 9.37368,-4.09207 18.58361,-6.25667 21.03616,-4.94411 3.61852,1.93657 2.24339,3.48123 -3.64729,4.09693 -5.2594,0.54971 -14.915,2.86817 -24.42012,5.86366 -2.32032,0.73123 -5.14307,1.32742 -6.2728,1.32487 -1.12972,-0.003 -2.31673,0.42038 -2.63777,0.93985 -0.32105,0.51947 0.76467,4.63275 2.41272,9.14063 1.64805,4.50787 3.47282,9.93023 4.05504,12.0497 0.58224,2.11946 1.53166,4.43977 2.10984,5.15625 0.5782,0.71647 2.39877,3.99188 4.04573,7.27867 3.2661,6.51808 3.25319,9.64663 -0.0471,11.41289 -2.88065,1.54168 -4.27005,0.53948 -4.92431,-3.55201 -0.64315,-4.02207 -5.50708,-20.00193 -9.562,-31.41485 -2.08065,-5.85618 -2.82726,-7.06139 -3.84911,-6.21332 C 405.49446,316.69422 405,319.04099 405,322.06937 405,327.79722 404.35304,330 402.67074,330 c -4.06942,0 -6.23283,-10.8059 -6.10005,-30.46875 0.10034,-14.85668 0.0689,-15.09726 -3.2893,-25.17864 -1.86483,-5.59825 -5.68633,-14.97243 -8.49224,-20.83152 -2.80591,-5.85907 -5.10165,-11.12244 -5.10165,-11.69636 0,-0.57391 -0.52734,-0.86655 -1.17188,-0.6503 -0.9026,0.30284 -1.10825,5.29062 -0.89499,21.70676 l 0.27688,21.31357 -2.15188,-0.3005 c -1.45879,-0.20372 -2.06061,0.12428 -1.86851,1.01835 0.2582,1.20175 5.26023,11.43556 8.97812,18.36864 0.82952,1.54687 1.51081,3.87008 1.51398,5.1627 0.007,2.83013 4.93954,15.62475 9.756,25.30605 4.84356,9.73577 7.12375,15.90188 7.12431,19.26562 2.5e-4,1.57266 0.41972,3.27863 0.93214,3.79105 0.51242,0.51242 1.2113,3.6071 1.55308,6.87707 0.51009,4.88034 0.38526,5.86668 -0.6969,5.50596 -0.72507,-0.24169 -2.07417,-2.51372 -2.99798,-5.04894 -0.92382,-2.53524 -2.25516,-5.87514 -2.95854,-7.42201 -0.70338,-1.54688 -1.83282,-4.71094 -2.50986,-7.03125 -0.67706,-2.32031 -2.2164,-5.00562 -3.42076,-5.96736 -1.6911,-1.35041 -2.06102,-2.33473 -1.62443,-4.32252 0.34402,-1.56631 -0.14214,-4.36831 -1.2419,-7.15764 -4.56159,-11.5697 -8.83204,-21.55214 -12.66008,-29.59372 -2.28828,-4.807 -4.46598,-9.74594 -4.83933,-10.9754 -0.37335,-1.22948 -2.90693,-5.65917 -5.63017,-9.84375 -2.72325,-4.1846 -7.54828,-12.8818 -10.72228,-19.32711 -5.15775,-10.4736 -8.072,-14.79803 -9.20735,-13.66267 -0.20925,0.20925 0.92011,3.04627 2.50969,6.30449 1.58957,3.2582 2.89014,6.49151 2.89014,7.18512 0,0.69361 1.93512,4.8701 4.30027,9.2811 4.05788,7.56791 8.82473,20.43079 8.82473,23.81268 0,0.84546 0.63013,2.06016 1.4003,2.69934 2.42449,2.01216 7.0372,10.9039 7.0372,13.56536 0,1.40301 2.48225,8.73447 5.5161,16.29213 3.03385,7.55766 5.81431,15.21776 6.17879,17.02245 0.63126,3.12564 2.14314,7.56629 7.42439,21.80671 1.29279,3.48588 3.88458,9.44192 5.75953,13.23564 3.77642,7.64106 3.98263,11.19267 0.67713,11.66229 -1.49432,0.21229 -2.33277,-0.32868 -2.90603,-1.875 z M 403.125,290.625 c 0,-0.97039 -0.42188,-2.02508 -0.9375,-2.34375 -0.54844,-0.33895 -0.9375,0.6337 -0.9375,2.34375 0,1.71005 0.38906,2.6827 0.9375,2.34375 0.51562,-0.31867 0.9375,-1.37336 0.9375,-2.34375 z m 73.62905,0.23437 c -0.35021,-1.41796 -1.05861,-3 -1.57423,-3.51562 -0.88011,-0.88012 -0.2295,3.57982 0.78638,5.39062 0.91155,1.62485 1.37802,0.51468 0.78785,-1.875 z m -108.72335,-44.314 c 0.19079,-22.83229 -0.0137,-28.18341 -1.18944,-31.12182 -1.04734,-2.61757 -1.96704,-3.54855 -3.50555,-3.54855 -2.99616,0 -3.60893,-1.03835 -1.48903,-2.52318 1.4813,-1.03755 1.66364,-1.73516 0.94653,-3.62132 -1.63229,-4.29325 -7.60299,-12.85894 -8.38118,-12.02383 -1.00921,1.08303 -2.97141,31.74569 -2.30254,35.98083 0.30272,1.91669 -0.0942,4.99017 -0.95437,7.39056 -1.79743,5.01574 -0.89424,9.09999 3.23768,14.64069 1.53809,2.0625 3.70306,5.64844 4.81106,7.96875 1.10799,2.32031 3.00601,5.5242 4.21784,7.11974 1.21181,1.59555 2.2033,4.05649 2.2033,5.46875 0,1.53148 0.43895,2.42145 1.08764,2.20521 0.78525,-0.26175 1.15171,-8.02878 1.31806,-27.93583 z m 3.85972,22.34135 c -0.29927,-0.74787 -0.52142,-0.52573 -0.5664,0.56641 -0.0407,0.98827 0.18087,1.54199 0.49239,1.23047 0.31152,-0.31153 0.34482,-1.12013 0.074,-1.79688 z m -27.79997,-6.33451 c -0.53654,-1.00253 -1.46032,-2.1224 -2.05285,-2.48859 -0.59252,-0.36621 -0.86623,-0.28424 -0.60826,0.18215 0.25798,0.46639 0.7318,1.58626 1.05293,2.48861 0.32114,0.90234 1.03385,1.64062 1.58379,1.64062 0.69986,0 0.70717,-0.54699 0.0244,-1.82279 z m 29.68423,-4.48749 c -0.2377,-0.91216 -0.44781,-0.39285 -0.46691,1.15403 -0.0191,1.54688 0.17536,2.29318 0.43217,1.65847 0.2568,-0.63472 0.27243,-1.90035 0.0348,-2.8125 z m -271.88426,-23.8655 c -0.29927,-0.74787 -0.52142,-0.52573 -0.5664,0.56641 -0.0407,0.98827 0.18086,1.54199 0.49239,1.23047 0.31152,-0.31153 0.34482,-1.12013 0.074,-1.79688 z m 173.95454,-3.15515 c -0.2389,-1.24972 -0.808,-2.0413 -1.26466,-1.75907 -0.97718,0.60393 -1.11448,4.49333 -0.19122,5.41659 1.03572,1.03571 1.92566,-1.20004 1.45588,-3.65752 z m 99.42644,2.39437 c 0.26954,-1.03075 0.10781,-2.11032 -0.35941,-2.39908 -0.46722,-0.28876 -0.84949,0.55457 -0.84949,1.87406 0,2.87255 0.53432,3.1046 1.2089,0.52502 z m -273.38098,-5.80172 c -0.29927,-0.74787 -0.52142,-0.52573 -0.5664,0.56641 -0.0407,0.98827 0.18086,1.54199 0.49239,1.23047 0.31152,-0.31153 0.34482,-1.12013 0.074,-1.79688 z m 273.23523,-4.18699 c -0.88203,-1.51746 -1.00965,-1.38983 -1.03464,1.03465 -0.0208,2.01687 0.25161,2.4855 1.00613,1.73098 0.74152,-0.74152 0.7496,-1.52507 0.0285,-2.76563 z M 232.96875,225 c 0.31868,-0.51563 0.13264,-0.9375 -0.41342,-0.9375 -0.54606,0 -0.99283,0.42187 -0.99283,0.9375 0,0.51562 0.18604,0.9375 0.41342,0.9375 0.22738,0 0.67415,-0.42188 0.99283,-0.9375 z m 111.10922,-5.63398 c 0.26632,-3.34662 0.18984,-11.78008 -0.16996,-18.74102 -0.3598,-6.96094 -0.41619,-15.87041 -0.12532,-19.79884 0.50855,-6.86819 -0.93614,-13.74275 -3.64494,-17.34452 -0.43417,-0.57728 -1.76905,-2.89759 -2.96642,-5.15625 -1.34937,-2.54537 -2.85909,-4.14298 -3.97106,-4.20221 -0.98671,-0.0526 -2.3157,-0.15803 -2.95331,-0.23437 -0.63762,-0.0763 -1.77903,-1.62204 -2.53648,-3.43486 -1.42932,-3.42084 -6.70475,-8.89145 -8.57423,-8.89145 -0.58899,0 -2.18649,0.87753 -3.55,1.95007 -2.75128,2.16416 -2.4867,4.25625 0.34652,2.73996 0.96605,-0.51701 2.6381,-0.94003 3.71565,-0.94003 1.9152,0 1.95342,0.33154 1.70226,14.76562 -0.15122,8.69042 0.23052,17.82096 0.9278,22.19152 1.11745,7.00419 1.07918,7.53824 -0.67391,9.40434 -1.85853,1.97831 -1.85848,1.97871 0.9496,6.16785 1.54454,2.30418 4.52976,7.56442 6.63382,11.68942 5.72895,11.23157 10.067,16.6198 12.99951,16.14651 1.02155,-0.16487 1.53872,-1.89156 1.89047,-6.31174 z m -24.66573,-2.63847 c -4.42621,-8.03957 -6.91688,-11.12534 -8.06692,-9.99434 -0.662,0.65103 0.72575,3.23459 4.39022,8.17319 2.94702,3.97169 5.65622,7.23471 6.02045,7.25117 0.36424,0.0164 -0.69045,-2.42705 -2.34375,-5.43002 z m 136.89831,0.53807 c 0.54948,-2.70703 1.73256,-8.28074 2.62906,-12.38602 2.22044,-10.16789 1.14804,-15.68501 -5.18004,-26.64968 -2.63092,-4.5586 -5.74396,-10.95732 -6.91787,-14.21938 -3.66268,-10.17792 -4.64753,-8.49916 -5.80537,9.89571 -0.32456,5.15625 -0.93588,10.99698 -1.35851,12.97939 -0.85773,4.02344 -0.14167,6.85494 3.7117,14.67686 7.14343,14.50042 10.45491,20.625 11.15168,20.625 0.42366,0 1.21987,-2.21484 1.76935,-4.92188 z m -223.04648,1.87384 c 0.23009,-1.21326 -0.23024,-1.58031 -1.76363,-1.40625 -2.6329,0.29887 -3.292,-1.43273 -1.30257,-3.42215 1.4171,-1.4171 1.36768,-1.66495 -0.66127,-3.31601 l -2.19285,-1.78443 -0.29605,3.83512 c -0.48263,6.25186 0.40642,8.37151 3.36761,8.029 1.52117,-0.17595 2.66211,-0.95103 2.84876,-1.93528 z m 115.70591,-8.49667 c -0.29153,-4.50292 -0.80941,-6.99086 -1.34395,-6.45632 -0.50698,0.50698 -0.5893,4.32467 -0.19742,9.15449 0.41396,5.10177 0.93031,7.58232 1.34396,6.45632 0.36944,-1.00569 0.45827,-5.12521 0.19741,-9.15449 z m -72.87623,8.73221 c 0.31867,-0.51563 0.13264,-0.9375 -0.41342,-0.9375 -0.54606,0 -0.99283,0.42187 -0.99283,0.9375 0,0.51562 0.18604,0.9375 0.41342,0.9375 0.22738,0 0.67416,-0.42188 0.99283,-0.9375 z m 51.78437,-4.45301 c -2.69952,-5.26547 -5.5163,-9.8816 -6.83364,-11.19894 -0.74634,-0.74634 -1.35698,-1.89427 -1.35698,-2.55096 0,-0.65669 -0.83496,-1.94961 -1.85545,-2.87315 -1.72306,-1.55935 -1.89876,-1.56632 -2.46236,-0.0976 -0.36357,0.94743 0.12495,2.40819 1.21841,3.64324 1.00392,1.13392 3.66658,5.22573 5.91703,9.09292 5.48108,9.41872 6.00677,10.08613 6.39171,8.11485 0.16671,-0.85367 -0.29172,-2.71234 -1.01872,-4.13036 z M 237.375,209.8125 c -0.61875,-0.61875 -1.125,-1.90928 -1.125,-2.86783 0,-0.95856 -0.42188,-1.4821 -0.9375,-1.16342 -0.51563,0.31868 -0.9375,1.6092 -0.9375,2.86783 0,1.73276 0.50079,2.28842 2.0625,2.28842 1.60417,0 1.8125,-0.25 0.9375,-1.125 z m -7.04125,-9.89063 c -0.23581,-0.90234 -0.42875,-0.16406 -0.42875,1.64063 0,1.80469 0.19294,2.54297 0.42875,1.64062 0.2358,-0.90234 0.2358,-2.3789 0,-3.28125 z m 78.55291,0.9375 c -0.37892,-0.90234 -1.51103,-3.75 -2.5158,-6.32812 -1.00477,-2.57813 -2.76669,-5.74219 -3.91537,-7.03125 -1.14868,-1.28906 -2.89984,-3.92578 -3.89144,-5.85938 -0.99161,-1.93359 -2.07818,-3.51562 -2.41461,-3.51562 -0.33642,0 -2.28686,-2.21484 -4.33431,-4.92188 -2.04745,-2.70703 -6.42144,-7.66406 -9.71996,-11.01562 -7.16123,-7.27639 -24.28267,-27.0243 -24.28267,-28.00768 0,-0.38164 -1.89844,-2.03202 -4.21875,-3.66753 -2.32031,-1.63551 -4.21875,-2.51699 -4.21875,-1.95884 0,0.55814 1.89844,3.12633 4.21875,5.70707 2.32031,2.58075 4.21875,4.99723 4.21875,5.36995 0,0.37273 1.05526,1.24245 2.34502,1.9327 1.28975,0.69027 3.12462,2.55452 4.07747,4.1428 0.95286,1.58828 6.75307,8.88393 12.88936,16.21255 12.50495,14.93477 14.08042,16.97069 17.25668,22.30023 1.22919,2.0625 2.71801,4.04967 3.30849,4.41594 0.59049,0.36627 3.06616,3.6358 5.50151,7.26563 2.43535,3.62982 4.86816,6.59968 5.40624,6.59968 0.5692,0 0.69022,-0.6861 0.28939,-1.64063 z m -73.06805,-2.48951 c 1.68434,-1.23162 1.63392,-1.28552 -0.77216,-0.82556 -1.41579,0.27065 -2.80376,0.86358 -3.08438,1.31764 -0.80526,1.30294 1.86823,0.96181 3.85654,-0.49208 z m 36.83751,-7.06954 c -0.34947,-6.18458 -1.06605,-8.51538 -2.25306,-7.32838 -0.88561,0.8856 0.70456,13.84056 1.69887,13.84056 0.55135,0 0.7742,-2.61856 0.55419,-6.51218 z m -42.03112,1.76935 c 0,-1.06168 -0.40345,-1.68099 -0.89656,-1.37622 -0.49311,0.30475 -0.6589,1.1734 -0.36845,1.93033 0.74366,1.93791 1.26501,1.70955 1.26501,-0.55411 z m -81.87911,-2.05405 c -0.26007,-0.64453 -0.47287,-0.11718 -0.47287,1.17188 0,1.28906 0.2128,1.81641 0.47287,1.17187 0.26007,-0.64453 0.26007,-1.69921 0,-2.34375 z m 88.26285,0.46855 c 0.23311,-1.5778 -0.0915,-1.86295 -1.65524,-1.45404 -2.56566,0.67094 -3.41151,2.16593 -1.80174,3.18445 1.84992,1.17045 3.1225,0.53345 3.45698,-1.73041 z m 76.87703,-1.47403 c 0.91825,-0.24226 0.51421,-0.46331 -0.96216,-0.52639 -1.59175,-0.0681 -2.96023,-0.88436 -3.65327,-2.17931 -1.14218,-2.13418 -4.80529,-5.51235 -5.36996,-4.95224 -0.17511,0.17369 1.51109,2.98502 3.74712,6.24742 3.34565,4.88137 4.11771,5.56835 4.36039,3.87989 0.1622,-1.12845 1.00725,-2.23967 1.87788,-2.46937 z m 34.86423,0.77111 c 0,-1.80469 -0.42188,-3.28125 -0.9375,-3.28125 -1.03958,0 -1.30009,4.94991 -0.3125,5.9375 1.07901,1.07901 1.25,0.71567 1.25,-2.65625 z M 13.125,191.25 c 0,-0.51563 -0.186039,-0.9375 -0.413422,-0.9375 -0.227382,0 -0.674154,0.42187 -0.992828,0.9375 -0.318674,0.51562 -0.132634,0.9375 0.413422,0.9375 0.546055,0 0.992828,-0.42188 0.992828,-0.9375 z m 304.99845,-4.45313 c -0.27976,-1.93359 -1.09699,-5.5961 -1.81605,-8.1389 C 315.58833,176.11516 315,171.42072 315,168.22588 c 0,-3.78056 -0.44939,-6.18176 -1.28705,-6.87696 -0.93564,-0.77651 -1.47338,-5.17979 -1.9695,-16.12726 -0.64342,-14.19815 -1.23295,-17.24673 -3.97647,-20.56321 -4.31449,-5.21553 -6.75111,-8.44974 -8.98348,-11.92407 -5.02241,-7.81656 -5.8933,-4.66602 -4.04608,14.63711 l 1.37827,14.40274 4.52028,6.62001 c 12.94429,18.9571 13.43657,19.78371 12.37323,20.77625 -0.74087,0.69154 -1.1733,0.66907 -1.44882,-0.0753 -0.216,-0.58357 -2.27264,-3.48199 -4.57031,-6.44093 -2.29767,-2.95893 -4.17757,-5.70006 -4.17757,-6.0914 0,-0.39134 -2.74219,-3.50823 -6.09375,-6.92642 -3.35156,-3.4182 -6.09375,-6.99052 -6.09375,-7.93849 0,-0.94796 -0.84375,-2.69643 -1.875,-3.88547 -1.03125,-1.18904 -1.875,-2.46754 -1.875,-2.84111 0,-1.67126 -25.27916,-30.92491 -27.75719,-32.12128 -1.70543,-0.82338 -8.40353,3.06934 -8.40353,4.88387 0,1.53689 0.24383,1.54908 3.71444,0.18579 2.36801,-0.93018 3.83142,-1.10812 4.03716,-0.49088 0.17751,0.53251 3.16669,4.73902 6.64263,9.34778 5.99831,7.95319 8.15632,10.94467 11.50853,15.95341 0.80343,1.20046 3.51218,4.40962 6.01943,7.13147 2.50725,2.72185 5.41736,6.43289 6.46691,8.24676 1.04954,1.81387 3.71187,5.15247 5.91629,7.41912 2.20441,2.26665 4.93942,6.04519 6.07779,8.39674 1.13837,2.35155 3.37217,5.77046 4.96401,7.59757 1.59185,1.8271 3.89171,5.43138 5.11082,8.00951 2.07333,4.38458 6.2845,10.78125 7.09773,10.78125 0.19915,0 0.1332,-1.58203 -0.14657,-3.51563 z M 53.140419,186.38672 c -0.299274,-0.74787 -0.521421,-0.52573 -0.566406,0.56641 -0.04071,0.98827 0.18087,1.54199 0.492394,1.23047 0.311522,-0.31153 0.344829,-1.12013 0.07402,-1.79688 z M 101.25,182.8125 c 0,-5.70458 -1.1601,-7.35956 -2.464369,-3.51563 -0.775978,2.28697 -0.664865,3.498 0.634557,6.91573 1.344782,3.53703 1.829812,2.63577 1.829812,-3.4001 z m 134.1002,1.44487 c -0.44247,-0.53686 -0.57962,-2.95755 -0.30479,-5.37928 0.40651,-3.58221 0.87128,-4.45618 2.49276,-4.6875 2.15295,-0.30715 3.12762,-3.48238 1.90681,-6.2119 -0.52685,-1.17794 -0.83946,-0.74922 -1.24601,1.70881 -0.5208,3.14875 -0.732,3.30215 -5.23022,3.79869 -3.36551,0.37152 -4.22481,0.73031 -3.04688,1.27218 1.07385,0.49401 1.64063,1.81315 1.64063,3.8185 0,1.68506 0.25845,4.35601 0.57434,5.93545 0.50166,2.50827 0.79223,2.73561 2.29609,1.79644 1.04076,-0.64997 1.40356,-1.46133 0.91727,-2.05138 z m 112.16522,-0.68315 c -0.29927,-0.74787 -0.52142,-0.52573 -0.5664,0.56641 -0.0407,0.98827 0.18087,1.54199 0.49239,1.23047 0.31152,-0.31153 0.34482,-1.12013 0.074,-1.79688 z m -121.22539,-4.94075 c -0.52492,-4.46621 -0.37397,-5.11852 1.40468,-6.07043 1.09603,-0.58658 1.99279,-1.86699 1.99279,-2.84535 0,-0.97836 0.86774,-2.05425 1.92832,-2.39086 2.52073,-0.80006 1.98113,-3.64072 -0.76603,-4.03266 -1.81368,-0.25876 -2.09979,-0.86553 -2.09979,-4.45312 0,-4.31969 -1.27695,-5.60424 -2.17131,-2.18422 -0.28357,1.08439 -0.96462,1.69144 -1.51559,1.35092 -1.13777,-0.70318 -1.22915,0.35874 -1.2559,14.59449 -0.0103,5.4703 0.28305,10.43421 0.65183,11.03092 1.44906,2.34461 2.39167,-0.22928 1.831,-4.99969 z M 225,166.05229 c 0,-2.08759 0.59868,-4.13207 1.40625,-4.80229 1.21887,-1.01157 1.40625,-0.5272 1.40625,3.63521 0,3.6437 -0.33927,4.80229 -1.40625,4.80229 -1.00822,0 -1.40625,-1.02892 -1.40625,-3.63521 z M 77.226562,180.82031 c 0.322266,-1.61133 0.585938,-4.71651 0.585938,-6.90042 0,-2.68946 0.756278,-5.08518 2.34375,-7.42445 1.289062,-1.89954 2.34375,-4.25383 2.34375,-5.23174 0,-0.97793 0.421875,-2.03878 0.9375,-2.35745 0.515625,-0.31868 0.9375,-1.06076 0.9375,-1.64908 0,-0.77049 -0.314656,-0.75502 -1.125,0.0553 -0.61875,0.61875 -2.084479,1.125 -3.257175,1.125 -3.504174,0 -4.959436,4.21653 -5.073532,14.70024 -0.118485,10.88699 -0.141808,10.61228 0.901019,10.61228 0.451172,0 1.083985,-1.31836 1.40625,-2.92969 z M 34.6875,181.35092 c 0,-0.80387 -0.421875,-1.20085 -0.9375,-0.88217 -0.515625,0.31868 -0.9375,0.97639 -0.9375,1.46158 0,0.48519 0.421875,0.88217 0.9375,0.88217 0.515625,0 0.9375,-0.65771 0.9375,-1.46158 z M 123.75,179.0625 c 0,-0.51563 -0.42187,-0.9375 -0.9375,-0.9375 -0.51563,0 -0.9375,0.42187 -0.9375,0.9375 0,0.51562 0.42187,0.9375 0.9375,0.9375 0.51563,0 0.9375,-0.42188 0.9375,-0.9375 z m 180,-1.46158 c 0,-0.80387 -0.42188,-1.20085 -0.9375,-0.88217 -0.51563,0.31868 -0.9375,0.97639 -0.9375,1.46158 0,0.48519 0.42187,0.88217 0.9375,0.88217 0.51562,0 0.9375,-0.65771 0.9375,-1.46158 z m -145.33965,-0.3768 c 0.7585,-0.47969 1.09456,-1.15672 0.74678,-1.50448 -0.95412,-0.95412 -5.56869,0.448 -4.92139,1.49535 0.70455,1.13998 2.38068,1.14365 4.17461,0.009 z M 300,173.90625 c 0,-2.38996 -0.40958,-3.28125 -1.50788,-3.28125 -1.13833,0 -1.36441,-0.57165 -0.92249,-2.33243 0.32353,-1.28902 0.0584,-3.17625 -0.59263,-4.21875 -1.51226,-2.42151 -2.56803,-2.42769 -1.93614,-0.0113 0.80013,3.0597 -2.57997,2.00389 -3.7517,-1.17187 -0.33292,-0.90235 -1.04043,-1.64063 -1.57224,-1.64063 -1.52033,0 -1.13104,2.24654 0.67371,3.88788 0.90234,0.82064 3.09418,3.86752 4.87075,6.77085 1.77657,2.90332 3.56954,5.27877 3.98437,5.27877 0.41484,0 0.75425,-1.47656 0.75425,-3.28125 z m 132.15452,1.46788 c 1.31095,-2.44954 1.22853,-10.93364 -0.14306,-14.72672 -0.9548,-2.64043 -0.87538,-3.34264 0.55706,-4.92547 1.85988,-2.05514 1.44524,-6.37233 -0.97963,-10.19982 -0.86431,-1.36426 -1.14396,-3.24344 -0.77518,-5.20917 0.41785,-2.22733 -0.086,-4.52406 -1.82743,-8.33137 -1.32236,-2.89098 -2.74862,-5.39842 -3.16947,-5.57208 -0.42085,-0.17366 -3.27289,-3.65875 -6.33787,-7.74465 -11.00713,-14.67349 -12.07544,-16.47735 -9.75846,-16.47735 0.65799,0 0.64736,-0.60376 -0.033,-1.875 -1.57913,-2.950641 -3.59349,-2.256347 -4.29447,1.48019 -0.41099,2.19073 -1.3205,3.6223 -2.62061,4.12485 -1.7957,0.69411 -1.83011,0.83474 -0.35054,1.43261 1.02778,0.41532 1.64062,1.66872 1.64062,3.35547 0,2.77476 2.19039,10.48628 6.23487,21.95063 1.27334,3.60937 2.6545,7.82812 3.06923,9.375 0.82477,3.07627 6.13724,13.18136 8.17105,15.54257 0.70117,0.81404 1.27485,2.15674 1.27485,2.98377 0,1.49392 4.49282,13.21601 5.92472,15.45804 1.07188,1.67831 2.29906,1.44795 3.4173,-0.6415 z m -402.771383,-3.0615 c 0.269863,-1.03195 0.933272,-1.60274 1.474242,-1.2684 0.542709,0.33541 2.416124,-1.61834 4.179569,-4.35879 1.757791,-2.73168 3.980295,-5.86973 4.938894,-6.97344 0.958599,-1.10371 3.219471,-4.29012 5.024158,-7.08092 1.804688,-2.7908 4.776987,-6.31745 6.60511,-7.83701 1.828123,-1.51955 7.903339,-7.82532 13.50048,-14.01282 5.597142,-6.1875 11.273279,-12.39796 12.61364,-13.80102 1.340362,-1.40306 3.132543,-3.30149 3.982627,-4.21875 3.329434,-3.59251 22.641513,-19.713972 27.516893,-22.970726 5.82998,-3.894434 16.65502,-9.128795 18.91917,-9.148218 1.3993,-0.012 2.13868,-0.682972 2.34375,-2.126911 0.26995,-1.900747 0.97835,-2.169982 7.16235,-2.722145 6.29713,-0.562264 8.60317,-1.191127 7.59036,-2.069914 -0.21485,-0.186415 -4.08204,-0.587754 -8.59376,-0.891865 l -8.20312,-0.552929 0,2.665231 c 0,2.072362 -0.52979,2.798201 -2.38166,3.26299 -11.48692,2.883033 -29.788971,15.894101 -47.494525,33.764207 -12.071619,12.18382 -14.718994,14.39604 -13.534791,11.31005 1.156724,-3.01437 -1.954811,-1.14368 -6.257045,3.76183 -5.162651,5.88656 -4.93688,6.6996 0.49714,1.79029 2.041942,-1.84477 3.943189,-3.12356 4.224993,-2.84176 0.771804,0.77181 -1.75531,4.0473 -9.069416,11.75524 -3.635333,3.83108 -6.609696,7.31365 -6.609696,7.73905 0,0.4254 -2.642381,3.82995 -5.871958,7.56565 -3.229577,3.73572 -6.384595,7.95236 -7.011151,9.37032 -0.626557,1.41797 -1.675582,2.59216 -2.331167,2.60932 -1.832137,0.0479 -5.011855,3.04059 -6.700735,6.30653 -1.949318,3.76956 -1.943555,3.79526 0.736249,3.28299 1.242307,-0.23749 2.479536,-1.27612 2.749399,-2.30808 z m 138.989743,2.02753 c 1.483,-0.56384 2.1979,-1.30932 1.70166,-1.77444 -1.30451,-1.22268 -6.94954,-0.0473 -6.94954,1.44694 0,1.54718 1.75226,1.65653 5.24788,0.3275 z m 98.75519,-4.41829 c -0.0547,-3.23799 -0.13144,-3.33537 -0.97134,-1.23307 -0.50156,1.2554 -0.699,2.83743 -0.43875,3.51562 0.86526,2.25486 1.47024,1.27559 1.41009,-2.28255 z M 15.004353,168.21889 c 1.802293,-2.35462 5.754777,-7.31165 8.783297,-11.01563 6.625357,-8.10303 7.831508,-10.40854 6.367928,-12.17205 -0.581674,-0.70087 -1.336145,-4.89824 -1.676603,-9.32749 -0.340459,-4.42923 -0.938679,-8.57039 -1.329378,-9.20255 -1.337597,-2.16428 -3.62887,-0.0271 -7.185319,6.70218 -1.956915,3.70272 -4.823653,8.22329 -6.370528,10.04568 l -2.8125,3.31347 -0.04978,12.96875 c -0.02738,7.13281 0.185516,12.96875 0.473103,12.96875 0.287586,0 1.997488,-1.92651 3.799781,-4.28111 z m 34.03615,0.33122 c 1.999495,-2.67811 1.495329,-4.48761 -1.250346,-4.48761 -2.224964,0 -4.030955,3.19249 -3.231288,5.71202 0.738366,2.32639 2.110455,1.95153 4.481634,-1.22441 z m 227.053247,0.35614 c 0,-2.89748 -1.81466,-2.57679 -2.18151,0.38552 -0.21412,1.72906 0.0684,2.35008 0.9375,2.0604 0.68421,-0.22807 1.24401,-1.32874 1.24401,-2.44592 z m -118.41044,-0.1738 c 1.38988,-0.41788 5.31352,-1.05817 8.7192,-1.4229 6.84141,-0.73265 9.3066,-2.3398 8.36769,-5.45521 -0.33327,-1.10583 -0.87493,-2.279 -1.20369,-2.60706 -1.12588,-1.12343 -19.48407,-1.49768 -20.91265,-0.42631 -2.21104,1.65816 -2.73814,4.25943 -1.66823,8.23276 0.79529,2.95351 1.33276,3.59401 2.58723,3.08322 0.87086,-0.3546 2.72057,-0.98663 4.11045,-1.4045 z m -59.415441,-0.50709 c 2.735801,-1.36481 2.898121,-1.7237 2.437991,-5.39063 -0.27113,-2.16066 -0.805391,-6.45973 -1.187254,-9.55348 l -0.694303,-5.625 -0.649519,9.33067 c -0.47699,6.85226 -1.026403,9.54157 -2.068396,10.1247 -0.780394,0.43673 -1.418888,1.19496 -1.418888,1.68496 0,1.16716 0.140663,1.14473 3.580369,-0.57122 z m 49.311171,-8.21452 -0.71445,-5.79209 -0.85645,4.11195 c -0.47104,2.26158 -0.57274,5.62423 -0.22599,7.47256 0.53704,2.86267 0.7698,3.11161 1.57089,1.68013 0.57324,-1.0243 0.66148,-3.94207 0.226,-7.47255 z m -80.234042,3.99884 c -0.480585,-3.28417 -2.657498,-3.4329 -2.657498,-0.18156 0,1.50391 0.288281,3.02266 0.640625,3.375 1.080896,1.08091 2.348621,-0.92637 2.016873,-3.19344 z M 257.5256,159.0369 c 0.23006,-0.23005 0.11711,-3.47468 -0.25099,-7.21029 -0.6239,-6.33165 -0.96196,-7.12601 -4.98757,-11.71946 -2.37506,-2.71008 -6.56271,-7.49912 -9.3059,-10.64229 -2.74318,-3.14318 -5.41372,-5.71486 -5.93451,-5.71486 -0.61181,0 -0.74494,3.23468 -0.37618,9.14062 0.506,8.10392 1.30807,21.10144 1.41535,22.93577 0.16394,2.80297 17.05737,5.59294 19.4398,3.21051 z M 110.625,156.09375 c 0,-1.80469 -0.42187,-3.28125 -0.9375,-3.28125 -1.03957,0 -1.30009,4.94991 -0.3125,5.9375 1.07901,1.07901 1.25,0.71567 1.25,-2.65625 z m 177.1875,2.04686 c 0,-0.67891 -2.95527,-4.79219 -6.56726,-9.14062 -3.612,-4.34843 -6.37261,-8.42007 -6.1347,-9.04809 0.23792,-0.62802 0.0651,-1.36893 -0.38391,-1.64647 -0.44907,-0.27754 -0.96629,-0.0552 -1.14937,0.49406 -0.1831,0.54927 -2.19238,-0.71797 -4.46507,-2.81612 -3.91637,-3.61557 -4.03965,-3.88245 -2.36069,-5.11013 1.51559,-1.10823 1.5882,-1.51618 0.50263,-2.82421 -0.69823,-0.84131 -1.99301,-1.29902 -2.87913,-1.01778 -0.88566,0.2811 -2.14338,-0.13125 -2.79493,-0.91633 -0.65156,-0.78508 -1.55487,-1.42742 -2.00736,-1.42742 -1.54715,0 -0.82488,2.47238 1.28666,4.40437 2.00987,1.83894 3.66488,3.78415 11.40786,13.40813 8.29972,10.31596 14.03711,16.875 14.76109,16.875 0.4313,0 0.78418,-0.55547 0.78418,-1.23439 z m -172.47828,-6.28407 c -0.73917,-3.14319 -0.76976,-3.09097 -0.83475,1.42471 -0.0454,3.15657 0.20517,4.22219 0.76729,3.26279 0.46304,-0.79029 0.49308,-2.87763 0.0675,-4.6875 z m 151.85328,5.23004 c 0,-0.22738 -0.42188,-0.67415 -0.9375,-0.99283 -0.51563,-0.31868 -0.9375,-0.13264 -0.9375,0.41342 0,0.54605 0.42187,0.99283 0.9375,0.99283 0.51562,0 0.9375,-0.18604 0.9375,-0.41342 z m 50.3711,-0.15299 c -0.31153,-0.31152 -1.12013,-0.34482 -1.79688,-0.074 -0.74787,0.29927 -0.52573,0.52142 0.56641,0.5664 0.98827,0.0407 1.54199,-0.18087 1.23047,-0.49239 z m -196.6211,-4.58984 c 0,-3.125 -0.36458,-4.21875 -1.40625,-4.21875 -1.47667,0 -1.81258,2.60699 -0.81535,6.32812 0.95213,3.5529 2.2216,2.34756 2.2216,-2.10937 z m 5.03906,1.28906 c 0.32227,-1.61133 0.58594,-3.98329 0.58594,-5.27104 0,-1.9749 -0.2201,-2.15869 -1.40625,-1.17427 -0.8581,0.71216 -1.40625,2.76679 -1.40625,5.27104 0,4.74633 1.36787,5.46773 2.22656,1.17427 z m 4.33594,-0.40689 c 0,-0.80387 -0.42876,-1.19659 -0.95279,-0.87272 -0.52404,0.32387 -0.71008,0.98158 -0.41342,1.46158 0.80365,1.30035 1.36621,1.05789 1.36621,-0.58886 z m 41.71875,0.52408 c 0.31868,-0.51563 0.13264,-0.9375 -0.41342,-0.9375 -0.54606,0 -0.99283,0.42187 -0.99283,0.9375 0,0.51562 0.18604,0.9375 0.41342,0.9375 0.22738,0 0.67415,-0.42188 0.99283,-0.9375 z m 56.07858,-7.03125 c -0.30787,-3.09375 -0.66045,-5.74958 -0.78353,-5.90186 -0.12307,-0.15227 -0.5199,2.48834 -0.88183,5.86802 -0.36193,3.37967 -1.04594,5.90515 -1.52001,5.61215 -0.47408,-0.29299 -0.86196,0.0853 -0.86196,0.84066 0,1.12756 0.41229,1.17941 2.30354,0.2897 2.17423,-1.02284 2.27212,-1.39944 1.74379,-6.70867 z M 90,150.52408 c 0,-2.73658 -1.447459,-3.92797 -2.245514,-1.84827 -0.962127,2.50726 -0.631543,4.13669 0.839264,4.13669 0.865933,0 1.40625,-0.87927 1.40625,-2.28842 z m 92.51542,0.23764 c -0.29927,-0.74787 -0.52142,-0.52573 -0.5664,0.56641 -0.0407,0.98827 0.18086,1.54199 0.49239,1.23047 0.31152,-0.31153 0.34482,-1.12013 0.074,-1.79688 z m -100.410496,-3.1457 c -0.317981,-1.26694 -1.000022,-2.30352 -1.515647,-2.30352 -0.887403,0 -0.350488,4.02992 0.805732,6.04758 0.828736,1.44618 1.338206,-1.24075 0.709915,-3.74406 z m 179.160496,2.2082 c -0.29927,-0.74787 -0.52142,-0.52573 -0.5664,0.56641 -0.0407,0.98827 0.18087,1.54199 0.49239,1.23047 0.31152,-0.31153 0.34482,-1.12013 0.074,-1.79688 z M 61.241353,149.62291 c 0.52933,-1.37942 -0.07667,-2.43541 -1.397603,-2.43541 -0.429688,0 -0.78125,0.84375 -0.78125,1.875 0,2.14961 1.42807,2.51692 2.178853,0.56041 z M 167.34375,150 c 0.31868,-0.51563 0.13264,-0.9375 -0.41342,-0.9375 -0.54606,0 -0.99283,0.42187 -0.99283,0.9375 0,0.51562 0.18604,0.9375 0.41342,0.9375 0.22738,0 0.67415,-0.42188 0.99283,-0.9375 z m -10.37321,-0.83927 c 0.77913,-1.26067 -2.10036,-2.0548 -4.90149,-1.35176 -2.25169,0.56513 -2.30713,0.68326 -0.62863,1.33952 2.56168,1.00157 4.91546,1.00678 5.53012,0.0123 z m 4.02556,-0.66464 c -0.31153,-0.31152 -1.12013,-0.34482 -1.79688,-0.074 -0.74787,0.29927 -0.52573,0.52142 0.56641,0.5664 0.98827,0.0407 1.54199,-0.18087 1.23047,-0.49239 z m -51.31326,-7.19738 c 0.006,-0.90442 -2.71375,-2.0178 -3.35711,-1.37443 -0.25763,0.25762 -0.69033,2.1027 -0.96156,4.10019 l -0.49314,3.63178 2.40358,-2.8125 c 1.32197,-1.54688 2.40567,-3.14214 2.40823,-3.54504 z M 95.625,144.84375 c 0,-0.77344 -0.421875,-1.40625 -0.9375,-1.40625 -0.515625,0 -0.9375,0.63281 -0.9375,1.40625 0,0.77344 0.421875,1.40625 0.9375,1.40625 0.515625,0 0.9375,-0.63281 0.9375,-1.40625 z m 76.36236,0.82462 c 1.34482,-0.51606 1.4441,-2.23366 0.88063,-15.23438 -0.69008,-15.9213 -1.16612,-18.2292 -4.08197,-19.78971 -1.65879,-0.88775 -2.05509,-0.69991 -2.83144,1.34205 -1.44417,3.79845 -8.31656,10.63521 -11.86926,11.8077 -4.18198,1.38018 -5.02282,3.66408 -5.02282,13.64304 l 0,7.94001 4.45312,-0.50884 c 2.44922,-0.27987 6.77344,-0.13609 9.60938,0.3195 7.05581,1.13351 7.14796,1.13851 8.86236,0.48063 z M 67.470185,142.21029 c -0.02884,-1.98651 -0.07408,-1.99556 -1.376219,-0.2753 -0.740522,0.97831 -1.11983,2.14534 -0.842906,2.59341 0.835909,1.35253 2.250949,-0.12562 2.219125,-2.31811 z m 56.938145,2.09928 c 1.73428,-0.57071 3.27237,-1.85426 3.64211,-3.03936 0.35202,-1.1283 1.84874,-3.43724 3.32605,-5.13096 2.72657,-3.12599 3.11521,-4.89169 2.713,-12.3259 -0.16897,-3.12336 -0.88086,-4.81144 -2.86628,-6.79688 -4.63524,-4.63523 -7.48106,-2.97826 -7.45886,4.34291 0.0184,6.0618 1.01174,7.61588 4.62571,7.2368 2.75397,-0.28888 2.82227,-0.20261 2.2313,2.81854 -0.35117,1.79525 -2.15091,4.66895 -4.24508,6.77828 l -3.63544,3.66176 -3.44386,-1.81356 c -2.07963,-1.09515 -3.66482,-2.73138 -4.00166,-4.1305 -0.48404,-2.01052 -0.70578,-1.73508 -1.67657,2.08257 -0.61531,2.41973 -1.11875,4.9647 -1.11875,5.65549 0,1.60712 7.7293,2.03605 11.90833,0.66081 z m 9.7158,-0.90505 c 1.88638,-1.00957 2.41866,-3.23228 0.98606,-4.11767 -1.13073,-0.69883 -5.88498,3.14982 -5.22004,4.22572 0.6947,1.12406 1.99369,1.09091 4.23398,-0.10805 z M 185.625,140.625 c 0,-0.51563 -0.63281,-0.9375 -1.40625,-0.9375 -0.77344,0 -1.40625,-0.63281 -1.40625,-1.40625 0,-0.77344 0.42187,-1.40625 0.9375,-1.40625 0.51562,0 0.9375,-0.66375 0.9375,-1.47499 0,-0.90012 -0.63943,-1.35185 -1.64063,-1.15904 -0.90234,0.17378 -1.59843,0.83753 -1.54687,1.475 0.0516,0.63746 0.15703,2.21372 0.23437,3.50278 0.10032,1.67187 0.67813,2.34375 2.01563,2.34375 1.03125,0 1.875,-0.42188 1.875,-0.9375 z m 250.3125,0 c 0,-0.51563 -0.63281,-0.9375 -1.40625,-0.9375 -0.77344,0 -1.40625,0.42187 -1.40625,0.9375 0,0.51562 0.63281,0.9375 1.40625,0.9375 0.77344,0 1.40625,-0.42188 1.40625,-0.9375 z M 41.541344,137.19207 c 2.089914,-1.88811 5.104798,-5.15765 6.699742,-7.26562 l 2.899896,-3.8327 -1.052233,-10.12237 c -0.578729,-5.5673 -1.477553,-10.54769 -1.997388,-11.06752 -1.541962,-1.54196 -5.226487,-0.0491 -10.045552,4.07008 l -4.523391,3.86648 0.562089,6.15792 c 0.446655,4.89327 2.198267,20.32968 2.427445,21.39228 0.169701,0.78685 1.684037,-0.17623 5.029392,-3.19855 z M 15,135.90452 c 0,-2.35764 -1.524673,-2.37335 -2.779515,-0.0287 -1.581473,2.95505 -1.244905,4.0245 0.904515,2.87417 1.03125,-0.55191 1.875,-1.83237 1.875,-2.84548 z m 421.875,1.04716 c 0,-1.54082 -1.12003,-3.82668 -1.875,-3.82668 -1.01477,0 -1.99977,2.78965 -1.35397,3.8346 0.68745,1.11232 3.22897,1.10607 3.22897,-0.007 z m -291.19121,-4.06106 c -0.40206,-2.1914 -0.61962,-7.21018 -0.48347,-11.15283 0.13615,-3.94266 -0.15683,-7.41838 -0.65106,-7.72384 -1.40155,-0.86621 -1.73216,1.94498 -1.42061,12.0798 0.15851,5.15625 0.29285,9.69141 0.29852,10.07812 0.006,0.38672 0.68022,0.70313 1.49899,0.70313 1.24102,0 1.36705,-0.66278 0.75763,-3.98438 z m 127.12871,2.80365 c 0,-0.64941 -0.84375,-1.70768 -1.875,-2.3517 -2.16659,-1.35306 -2.34243,-0.9406 -0.71198,1.67015 1.31688,2.10868 2.58698,2.44329 2.58698,0.68155 z m 49.03406,-0.16064 c 1.13409,-0.85996 1.31736,-1.40608 0.55693,-1.65955 C 320.95114,133.38997 315,135.233 315,136.1669 c 0,1.19411 5.05304,0.72673 6.84656,-0.63327 z M 76.167848,134.76562 c 0.605925,-1.64768 -0.220397,-3.63242 -1.24792,-2.99738 -1.104243,0.68245 -1.121162,4.16926 -0.02023,4.16926 0.460459,0 1.031126,-0.52734 1.26815,-1.17188 z m 44.784492,-7.17766 c -1.13776,-6.7454 -1.60899,-7.49381 -3.51707,-5.58573 -0.79464,0.79464 -0.70194,1.42753 0.36547,2.49493 0.90715,0.90716 1.27206,2.48919 0.99782,4.3259 -0.55868,3.74149 0.88209,7.80879 2.27332,6.41756 0.71127,-0.71127 0.67657,-2.93278 -0.11954,-7.65266 z m 6.97789,6.24504 c 0.91085,-1.30043 1.09821,-2.22977 0.49039,-2.43238 -1.32942,-0.44314 -3.73312,1.64654 -3.73312,3.24542 0,1.94919 1.58662,1.55138 3.24273,-0.81304 z m -19.78208,-5.24712 c -0.0732,-2.7202 -0.36153,-5.17426 -0.64075,-5.45348 -1.38282,-1.38283 -2.5074,1.26239 -2.5074,5.89792 0,4.42578 0.23607,5.12158 1.64063,4.83552 1.33444,-0.27179 1.61579,-1.25716 1.50752,-5.27996 z m 118.72685,3.1882 c 0,-1.25863 -0.42188,-2.54915 -0.9375,-2.86783 -0.54696,-0.33804 -0.9375,0.61526 -0.9375,2.28842 0,1.5773 0.42187,2.86783 0.9375,2.86783 0.51562,0 0.9375,-1.02979 0.9375,-2.28842 z M 83.039148,128.95954 c 0.639717,-2.54884 -0.197833,-4.59364 -1.541427,-3.76325 -1.165034,0.72003 -1.123696,6.05371 0.04692,6.05371 0.5058,0 1.17833,-1.03071 1.494509,-2.29046 z m 31.018172,-2.80795 c -0.85471,-1.8111 -1.23638,-2.00429 -1.83754,-0.93007 -0.90977,1.62566 -0.0921,3.21598 1.65359,3.21598 1.00833,0 1.04539,-0.46052 0.18395,-2.28591 z m 171.46251,-14.58261 c -0.80153,-4.64465 -1.45733,-10.102 -1.45733,-12.127436 0,-2.025441 -0.54159,-4.240097 -1.20353,-4.921453 -0.66195,-0.681366 -2.30572,-3.137792 -3.65283,-5.458732 -1.34712,-2.320941 -3.33678,-5.023044 -4.42148,-6.004676 -1.08469,-0.981631 -1.99167,-2.246743 -2.01551,-2.811359 -0.0238,-0.564615 -1.15398,-1.870324 -2.51141,-2.901574 -1.35744,-1.03125 -4.84238,-4.300781 -7.74432,-7.265625 -3.24959,-3.320033 -6.066,-5.390625 -7.33233,-5.390625 -1.13085,0 -2.05609,0.389507 -2.05609,0.86557 0,0.476064 -1.10718,2.181381 -2.4604,3.789596 -2.76591,3.28709 -2.32647,5.011285 0.60181,2.361239 2.97796,-2.69502 3.82961,-0.772047 4.84394,10.937294 0.50693,5.852028 1.5481,11.941498 2.3137,13.532164 0.76561,1.590656 5.18211,6.788277 9.81444,11.550267 4.63234,4.76199 9.70364,10.74039 11.26956,13.28533 1.56592,2.54493 3.75862,5.26867 4.87266,6.05274 1.97931,1.39304 2.03206,1.32888 2.311,-2.81117 0.157,-2.33021 -0.37034,-8.0369 -1.17188,-12.68155 z m -31.06096,15.11064 c 0.89565,-1.4492 -4.95412,-8.55462 -7.04288,-8.55462 -2.41276,0 -2.16758,0.69127 1.95901,5.52336 3.37488,3.95186 4.20792,4.44856 5.08387,3.03126 z m 6.63488,-4.80462 c -1.07978,-1.19314 -2.75204,-1.82392 -4.59843,-1.73453 -2.73548,0.13243 -2.75792,0.16245 -0.39205,0.5244 1.38023,0.21116 3.01392,0.9917 3.63042,1.73453 0.61649,0.74283 1.55649,1.3506 2.0889,1.3506 0.53241,0 0.20443,-0.84375 -0.72884,-1.875 z m 133.59375,0.11479 c 0,-0.45249 -0.66365,-1.37349 -1.47477,-2.04666 -0.81113,-0.67317 -2.29626,-2.8342 -3.3003,-4.80229 -1.87791,-3.681 -3.66243,-4.70746 -3.66243,-2.10663 0,2.1793 5.49919,9.77829 7.07629,9.77829 0.74867,0 1.36121,-0.37022 1.36121,-0.82271 z m -243.82003,-1.43666 c 1.48142,-1.785 0.94991,-13.8616 -0.6331,-14.38467 -0.84269,-0.27844 -1.17187,1.06594 -1.17187,4.78614 0,2.84534 -0.39494,6.21212 -0.87765,7.48173 -1.26335,3.32284 0.51626,4.7271 2.68262,2.1168 z m 247.38851,-6.1289 c 0.15798,-2.7278 -0.20272,-6.28058 -0.80156,-7.89505 -0.59884,-1.61449 -1.24708,-7.786993 -1.44055,-13.71668 -0.19345,-5.929688 -0.3735,-10.992188 -0.40012,-11.25 -0.0266,-0.257813 -0.64751,0.322445 -1.37978,1.289461 C 392.64217,84.954063 390,84.254352 390,81.730703 c 0,-2.231558 -15.93282,-18.360384 -17.04177,-17.251426 -0.46113,0.461124 -0.242,3.632339 0.505,7.308283 0.72578,3.57153 1.59706,9.399018 1.93617,12.949974 0.57853,6.057851 0.90343,6.77813 5.26484,11.671516 4.73524,5.31282 5.76178,8.2225 3.24201,9.18942 -0.77344,0.2968 -1.40625,0.91637 -1.40625,1.37683 0,1.281 2.603,0.99543 3.05067,-0.33467 0.30749,-0.91361 0.73795,-0.8883 1.95312,0.11478 0.85729,0.70767 1.55871,1.64096 1.55871,2.07396 0,1.54343 7.04845,11.14064 7.96875,10.85028 0.51563,-0.16268 1.06675,-2.52762 1.22473,-5.25542 z m -170.49036,1.12265 c 1.1412,-0.9838 0.95313,-1.17188 -1.17187,-1.17188 -2.12294,0 -2.53125,0.40697 -2.53125,2.52293 0,2.11392 0.18998,2.3039 1.17187,1.17188 0.64454,-0.74308 1.7836,-1.8784 2.53125,-2.52293 z m 25.35938,2.69291 c 0,-1.19883 -2.75661,-3.29569 -3.4375,-2.61479 -0.6809,0.68089 1.41596,3.4375 2.61479,3.4375 0.45249,0 0.82271,-0.37022 0.82271,-0.82271 z m -190.554107,-3.0349 c 1.421947,-1.60606 3.284221,-3.18809 4.138388,-3.51562 0.854167,-0.32754 6.450434,-5.35735 12.436148,-11.17735 C 88.259342,91.6503 89.881077,89.654526 89.121406,88.235067 88.62248,87.302813 87.921723,82.664798 87.56417,77.928366 87.206617,73.191933 86.535166,69.082492 86.072059,68.796277 85.608951,68.51006 84.17617,68.966408 82.888101,69.810383 78.965059,72.380859 66.598995,85.378789 61.274636,92.528226 c -4.832251,6.48864 -5.024435,6.973233 -5.019408,12.656244 0.0057,6.43356 1.435814,12.94053 2.844106,12.94053 0.487411,0 2.049613,-1.31405 3.471559,-2.92011 z m 30.588214,-1.06426 c 0.782771,-2.92091 0.729718,-3.51563 -0.313622,-3.51563 -1.255012,0 -3.057024,3.58677 -2.36476,4.70688 0.949606,1.5365 2.082394,1.03266 2.678382,-1.19125 z m 152.817833,-2.36955 c -0.5567,-0.88816 -1.91832,-1.74964 -3.02581,-1.91441 -2.84435,-0.42317 -2.7631,3.35369 0.0957,4.45059 2.72013,1.04368 4.31088,-0.33323 2.93007,-2.53618 z m -83.88806,0.83601 c 2.06468,-1.58747 2.24382,-2.377 2.22869,-9.8229 -0.009,-4.453181 0.31816,-8.09669 0.72713,-8.09669 0.40896,0 1.03722,2.742187 1.39614,6.09375 0.45506,4.24915 1.0452,6.09375 1.94963,6.09375 1.84646,0 1.71307,-10.151934 -0.16605,-12.638006 -0.88526,-1.171191 -1.1929,-2.815418 -0.8332,-4.453128 0.34824,-1.585506 0.17625,-2.596366 -0.44173,-2.596366 -0.93382,0 -1.37191,1.543581 -1.26385,4.453125 0.0239,0.644531 -0.54241,1.171875 -1.25856,1.171875 -0.71614,0 -1.30854,-0.738281 -1.31643,-1.640625 -0.0124,-1.410772 -0.14908,-1.443608 -0.97594,-0.234375 -0.58841,0.860512 -0.73539,4.368188 -0.37874,9.038541 0.37741,4.942189 0.23542,7.846999 -0.40283,8.241469 -1.33291,0.82378 -2.33609,-3.53716 -1.62805,-7.07734 0.40872,-2.043589 0.24048,-2.744033 -0.59284,-2.468173 -0.76852,0.254419 -1.25594,2.985153 -1.43579,8.044083 -0.29666,8.34447 0.24922,9.0766 4.39242,5.89101 z m 69.20771,-3.59408 c 2.17405,-0.78714 4.94938,-1.24064 6.16739,-1.00781 1.89577,0.3624 2.15449,0.10909 1.79725,-1.75968 -0.44752,-2.34106 -2.84818,-2.90857 -4.65607,-1.10068 -0.81812,0.81812 -2.40455,0.0743 -6.49858,-3.04687 -5.38398,-4.10462 -15.29408,-10.47365 -15.29408,-9.829212 0,0.185458 3.79687,3.406379 8.4375,7.157617 8.915,7.206405 10.64006,9.998515 5.54826,8.980155 -2.91132,-0.58226 -6.48576,0.62608 -6.48576,2.19251 0,1.09691 5.94456,0.23856 10.98409,-1.58603 z M 142.5,107.8125 c 0,-0.97039 -0.37391,-1.99543 -0.83092,-2.27788 -0.96019,-0.59343 -1.86597,2.18321 -1.28017,3.92435 0.56208,1.67065 2.11109,0.46256 2.11109,-1.64647 z m -32.8125,-0.46875 c 0,-0.77344 -0.39697,-1.40625 -0.88217,-1.40625 -1.18217,0 -2.02884,1.46399 -1.27985,2.21299 1.05581,1.05579 2.16202,0.64302 2.16202,-0.80674 z m 6.14423,-3.36293 c 0.96612,-1.56321 -1.20676,-3.3558 -2.50005,-2.0625 -1.0818,1.0818 -0.40473,3.08168 1.04332,3.08168 0.45476,0 1.11029,-0.45863 1.45673,-1.01918 z M 246.5625,102.0872 c 0,-0.46046 -0.63281,-0.8372 -1.40625,-0.8372 -0.77344,0 -1.40625,0.61958 -1.40625,1.37683 0,0.83868 0.54965,1.1659 1.40625,0.8372 0.77344,-0.2968 1.40625,-0.91637 1.40625,-1.37683 z M 401.71875,101.25 c 0,-0.6875 -0.52734,-1.425778 -1.17188,-1.640625 -0.69711,-0.232369 -1.17187,0.432295 -1.17187,1.640625 0,1.20833 0.47476,1.87299 1.17187,1.64063 0.64454,-0.21485 1.17188,-0.95313 1.17188,-1.64063 z M 181.15238,90.703125 c -0.25396,-1.933594 -0.82809,-3.515625 -1.27582,-3.515625 -0.98498,0 -1.09248,11.334769 -0.13042,13.75145 0.93878,2.3582 2.02344,-5.536831 1.40624,-10.235825 z M 133.125,99.1875 c 0,-1.514456 -0.27723,-1.785272 -1.04332,-1.019184 -0.57381,0.573815 -0.75986,1.50194 -0.41341,2.062504 0.96974,1.56907 1.45673,1.22028 1.45673,-1.04332 z m 119.52536,-0.776794 c -0.34298,-1.561603 -0.27103,-2.777278 0.15989,-2.701481 2.62948,0.462506 2.96672,-0.213075 1.44302,-2.890797 -1.72841,-3.037481 -2.56293,-3.295876 -6.1903,-1.916751 -1.51825,0.577238 -2.57211,0.577238 -2.92886,0 C 244.82761,90.405755 244.12979,90 243.5834,90 c -1.24745,0 3.33152,6.323794 6.61522,9.135966 3.136,2.685674 3.19695,2.667634 2.45174,-0.72526 z M 46.875,99.375 c 0,-0.515625 -0.186039,-0.9375 -0.413422,-0.9375 -0.227382,0 -0.674154,0.421875 -0.992828,0.9375 -0.318674,0.515625 -0.132634,0.9375 0.413422,0.9375 0.546055,0 0.992828,-0.421875 0.992828,-0.9375 z m 128.99557,-6.183082 -1.33935,-5.535668 -0.0781,4.046007 c -0.0719,3.723534 1.40263,8.379503 2.35281,7.429331 0.2222,-0.222207 -0.19871,-2.895057 -0.93535,-5.93967 z M 228.75,96.009647 c 0,-1.375144 -9.73884,-7.884647 -11.7962,-7.884647 -1.30462,0 2.12753,3.244148 6.12037,5.785116 4.09916,2.608631 5.67583,3.19185 5.67583,2.099531 z M 405.46875,95.625 c -0.31867,-0.515625 -1.39826,-0.9375 -2.39908,-0.9375 -1.00082,0 -1.81967,0.421875 -1.81967,0.9375 0,0.515625 1.07959,0.9375 2.39908,0.9375 1.36065,0 2.14828,-0.405788 1.81967,-0.9375 z M 239.0625,94.812909 c 0,-1.383883 -8.46695,-7.489717 -12.00533,-8.657487 -1.84678,-0.609493 -4.21691,-1.908565 -5.26694,-2.886827 -2.04899,-1.908919 -5.90096,-3.220367 -6.80461,-2.316708 -0.30364,0.303638 0.84054,1.303523 2.54263,2.221966 1.70208,0.918443 6.71626,4.090431 11.1426,7.048862 7.7238,5.162341 10.39165,6.340788 10.39165,4.590194 z m 162.70584,-9.032576 c 0.0541,-5.628485 -1.69757,-7.1074 -3.33069,-2.811985 -1.21744,3.202101 -0.16585,7.969393 1.75766,7.968235 1.21543,-7.31e-4 1.53346,-1.043219 1.57303,-5.15625 z M 238.78403,85.78125 C 236.92581,83.976562 235.14633,82.5 234.82964,82.5 c -0.31669,0 -2.65792,-0.895702 -5.20272,-1.990448 -4.88007,-2.099351 -5.80325,-3.87653 -2.83806,-5.463454 1.43392,-0.767409 2.73926,-0.303611 6.57868,2.337438 4.98048,3.425967 9.14179,4.751494 10.99179,3.501275 0.60458,-0.408572 1.16494,-3.610858 1.27586,-7.291061 0.30315,-10.058627 0.0905,-12.4982 -1.18207,-13.561375 -10.33096,-8.631075 -20.12287,-14.079762 -26.62423,-14.815007 -3.39166,-0.383568 -4.09241,-0.130764 -5.47143,1.973884 -0.86986,1.327586 -1.35828,2.775099 -1.08536,3.216694 0.27293,0.441597 0.74136,3.940617 1.04097,7.775604 0.68302,8.742688 1.04832,9.910608 4.45338,14.238325 3.23802,4.115411 2.22629,4.490717 -4.4227,1.640625 -2.40581,-1.03125 -5.28844,-1.832947 -6.40585,-1.78155 -1.94242,0.08934 -1.9493,0.121461 -0.15665,0.731233 1.03125,0.350781 5.03906,2.133375 8.90625,3.96132 8.57473,4.053113 16.30297,7.258756 20.44245,8.479463 1.70428,0.502582 3.33145,1.520328 3.61593,2.261659 0.28447,0.741331 1.16961,1.347875 1.96699,1.347875 0.94062,0 0.26323,-1.152346 -1.92884,-3.28125 z M 101.71875,81.730616 c 2.57813,-1.772143 5.53125,-3.976736 6.5625,-4.899095 1.03125,-0.92236 4.72294,-2.811445 8.20375,-4.197967 10.28289,-4.096002 11.03509,-4.988376 10.90408,-12.935973 -0.15945,-9.67276 -0.87541,-12.292415 -3.45994,-12.659859 -3.11179,-0.442401 -18.47642,8.363559 -24.833506,14.232874 l -5.345634,4.93547 0,9.396967 c 0,5.168332 0.269784,9.666748 0.599513,9.99648 0.682275,0.682276 0.961199,0.535839 7.369237,-3.868897 z m 109.72605,2.706757 c -0.33988,-0.54993 -1.54228,-0.984924 -2.67201,-0.966653 -1.98086,0.03203 -1.97058,0.07941 0.28829,1.329538 2.50702,1.387454 3.38307,1.25409 2.38372,-0.362885 z m -12.6948,0.03926 c 0,-2.047406 -20.83578,-4.962281 -26.46548,-3.702457 -7.54578,1.688602 -6.13194,2.660011 4.01235,2.756775 5.38829,0.05139 10.85157,0.43122 12.14063,0.84405 3.26062,1.044234 10.3125,1.113733 10.3125,0.101632 z M 160.3125,82.5 c 0,-0.555098 -3.41905,-0.9375 -8.38217,-0.9375 -4.61019,0 -8.6429,0.421875 -8.96158,0.9375 -0.37084,0.600026 2.64652,0.9375 8.38217,0.9375 5.34938,0 8.96158,-0.377884 8.96158,-0.9375 z M 369.375,81.09375 c 0,-0.773438 -0.39603,-1.40625 -0.88006,-1.40625 -0.48403,0 -1.13508,-2.003906 -1.44678,-4.453125 -0.3117,-2.449219 -1.16297,-5.71875 -1.8917,-7.265625 -1.44193,-3.060724 -4.13249,-18.261842 -3.89653,-22.014603 0.11866,-1.887171 -0.47399,-2.525266 -3.13493,-3.375326 -2.18724,-0.698734 -3.70918,-1.988051 -4.56475,-3.867055 -1.02031,-2.240817 -2.5118,-3.252461 -7.27359,-4.933513 -3.29455,-1.163075 -6.93573,-2.84334 -8.09149,-3.733921 -2.48633,-1.915835 -8.10478,-3.960857 -9.13413,-3.324677 -0.39798,0.24596 -1.22102,-0.152168 -1.82899,-0.884728 -0.90982,-1.096261 -0.58809,-1.384724 1.81827,-1.630304 2.59966,-0.265306 2.78832,-0.477476 1.7023,-1.914473 -0.90107,-1.192288 -2.87136,-1.683994 -7.5132,-1.875 -3.83461,-0.157789 -6.21448,0.107232 -6.09375,0.6786 0.10894,0.515625 1.4637,0.942368 3.01058,0.948316 3.76647,0.01448 5.35803,1.157797 4.66246,3.349331 -0.42894,1.351479 -0.11661,1.796103 1.26171,1.796103 1.97746,0 2.66781,2.141098 3.47624,10.78125 0.24122,2.578125 1.19868,5.742187 2.12769,7.03125 0.92901,1.289062 2.18663,4.03125 2.79473,6.09375 1.10403,3.744536 5.686,8.945111 16.33385,18.539058 C 363.71725,81.25988 369.375,84.75319 369.375,81.09375 Z M 118.20964,78.522639 c 4.79468,-2.42551 5.5743,-3.102937 3.85764,-3.35197 -1.81343,-0.263071 -11.44228,4.803529 -11.44228,6.020812 0,0.870371 1.93288,0.19024 7.58464,-2.668842 z m 86.17393,1.643933 c -0.63719,-0.76776 -1.53948,-1.160484 -2.00509,-0.87272 -1.19669,0.739599 -0.0523,2.268648 1.69789,2.268648 1.19174,0 1.24916,-0.260926 0.3072,-1.395928 z M 152.8125,79.186004 c 10.39248,-0.649566 12.67324,-1.192133 9.75536,-2.320688 -1.87236,-0.724184 -17.3703,0.146598 -26.21499,1.472942 -6.45146,0.967458 -5.07505,2.534699 1.694,1.928849 3.22266,-0.288437 9.86719,-0.774933 14.76563,-1.081103 z m 36.32891,-1.607879 c -0.46042,-1.384031 -4.23843,-2.313167 -10.03204,-2.467205 -4.95086,-0.131631 -4.202,1.271129 1.37557,2.576726 5.60009,1.310866 9.11419,1.266406 8.65647,-0.109521 z M 173.625,74.8125 c -2.25091,-2.25091 -0.93851,-2.604174 9.20603,-2.478034 10.90079,0.135545 13.18486,-0.388196 8.86147,-2.031947 -5.23132,-1.988941 -21.73614,-1.06756 -25.79332,1.439909 -1.67633,1.036034 2.42144,4.039773 5.61644,4.116947 C 174.03125,75.920135 174.5,75.6875 173.625,74.8125 Z M 161.17188,72.529249 C 161.38672,72.341287 159.17187,72.1875 156.25,72.1875 c -3.03459,0 -5.3125,0.41583 -5.3125,0.96979 0,0.878276 9.15476,0.316485 10.23438,-0.628041 z m 8.74999,-4.040542 c 7.46791,-0.08588 4.95622,-1.832128 -3.0531,-2.122668 -7.78416,-0.282371 -9.39595,-1.419959 -4.37068,-3.084789 4.17497,-1.383134 4.58712,-3.677117 0.50362,-2.803133 -3.96381,0.848369 -5.16705,1.810861 -5.89634,4.716587 C 156.6294,67.091113 155.94796,67.5 153.26339,67.5 151.46853,67.5 150,67.961322 150,68.525161 c 0,0.699863 2.45422,0.864852 7.73437,0.519956 4.25391,-0.277862 9.73829,-0.528246 12.1875,-0.55641 z m -25.81401,-4.314383 c 2.46724,-0.797872 5.96245,-2.219661 7.76714,-3.159532 1.80469,-0.939871 4.93462,-1.959619 6.95539,-2.266107 4.37492,-0.663534 5.29151,-1.8352 4.25715,-5.44182 -0.42464,-1.480616 -1.06943,-6.100882 -1.43287,-10.267258 l -0.66079,-7.575229 -3.38757,0.590846 c -5.8722,1.024208 -16.3659,4.266127 -20.26256,6.259912 l -3.75,1.918742 0.33022,9.054935 c 0.47492,13.022962 1.19482,13.792456 10.18389,10.885511 z m 54.14831,-1.548636 4.24383,-2.061811 0,-5.906939 c 0,-3.248816 -0.28647,-5.906938 -0.63661,-5.906938 -1.68064,0 -14.45649,4.204773 -18.87562,6.212316 -4.95322,2.250174 -6.73777,2.249808 -6.73777,-0.0014 0,-1.347326 9.44935,-5.513254 13.06269,-5.758938 1.32333,-0.08998 4.83184,-0.938343 7.79668,-1.885255 3.93734,-1.257505 5.39063,-2.178165 5.39063,-3.414949 0,-1.209317 -0.63663,-1.640601 -2.22741,-1.508945 -2.88728,0.238959 -11.29095,-3.169458 -20.18567,-8.187048 -2.2725,-1.28194 -5.49038,-2.3308 -7.15083,-2.3308 -3.03067,0 -5.69818,1.925404 -4.4277,3.195891 0.3738,0.373793 0.91912,6.096993 1.21183,12.718223 0.34906,7.895562 0.95846,12.552202 1.77079,13.530993 0.81446,0.981366 2.88462,1.524393 6.04565,1.585843 2.6439,0.0514 5.86178,0.43122 7.15084,0.84405 4.28897,1.373568 9.27821,0.960156 13.56867,-1.124312 z M 308.89438,60.9375 c 0.26434,0 0.48062,-0.632813 0.48062,-1.40625 0,-0.773438 -0.31641,-1.401243 -0.70313,-1.395123 -2.01341,0.03187 -10.83575,2.811538 -12.00599,3.782758 -2.80311,2.326371 -1.14727,2.592046 5.19725,0.833888 3.60285,-0.9984 6.76691,-1.815273 7.03125,-1.815273 z m -62.80063,-7.5 C 245.77507,52.921875 245.11736,52.5 244.63217,52.5 c -0.48519,0 -0.88217,0.421875 -0.88217,0.9375 0,0.515625 0.65771,0.9375 1.46158,0.9375 0.80387,0 1.20084,-0.421875 0.88217,-0.9375 z m 81.09375,-7.859408 c 0,-0.713299 -0.89597,-1.53121 -1.99104,-1.817578 -1.57161,-0.410984 -1.87007,-1.002692 -1.41677,-2.808781 0.38066,-1.516681 -0.0235,-3.048124 -1.19892,-4.542368 -1.10707,-1.407415 -1.60222,-3.148705 -1.31804,-4.635234 0.36197,-1.893603 -0.28038,-3.002242 -3.13816,-5.416066 -1.97633,-1.6693 -4.68316,-4.064009 -6.01519,-5.321578 C 310.77734,19.778919 309.3831,18.75 309.01106,18.75 c -0.37204,0 -2.44625,-0.800449 -4.60937,-1.778776 -2.16312,-0.978326 -5.71252,-2.306718 -7.88757,-2.951981 -6.02437,-1.787232 -6.71525,-0.751737 -5.48387,8.219357 l 1.001,7.29265 5.625,1.892029 c 8.27677,2.783981 11.71875,4.326856 11.71875,5.252958 0,0.45307 0.58274,0.823763 1.29498,0.823763 0.71224,0 2.39335,1.440045 3.73581,3.200101 1.34247,1.760055 3.11017,3.86943 3.92824,4.6875 1.89613,1.896128 8.85347,2.045823 8.85347,0.190491 z m 39.375,-4.796842 c 0,-0.773438 -0.39698,-1.40625 -0.88217,-1.40625 -1.18217,0 -2.02884,1.46399 -1.27985,2.212988 1.05581,1.055797 2.16202,0.643021 2.16202,-0.806738 z M 241.52221,37.455913 c 1.41997,-0.539873 3.153,-1.797141 3.85118,-2.793929 1.10344,-1.575381 2.00368,-1.735597 6.88526,-1.225371 4.75849,0.497361 5.8049,0.328423 6.8542,-1.106583 1.52978,-2.092104 8.93762,-3.419173 18.15277,-3.251959 l 6.79688,0.123332 0,-4.617055 c 0,-5.433598 -1.56842,-10.521848 -3.24329,-10.521848 -2.18076,0 -14.05079,5.799337 -18.44482,9.011573 -4.66659,3.411499 -6.3448,3.830517 -8.14233,2.032983 -0.89893,-0.898924 -1.6476,-0.59869 -3.50669,1.40625 -1.30006,1.402057 -2.87402,2.594039 -3.49769,2.648849 -0.62366,0.05482 -1.97768,0.16028 -3.00893,0.234375 -1.16014,0.08335 -1.98634,0.916962 -2.16702,2.186445 -0.18193,1.278195 -1.06556,2.161824 -2.34375,2.34375 -1.29837,0.184799 -2.16173,1.066546 -2.35131,2.4014 -0.33474,2.356943 0.40549,2.557356 4.16554,1.127788 z M 339.375,26.25 c -2.52736,-1.976926 -5.625,-2.476564 -5.625,-0.90729 0,1.13483 3.40987,2.646798 6.09375,2.702019 1.70751,0.03513 1.66563,-0.125194 -0.46875,-1.794729 z M 304.6875,13.180328 c 0,-0.485194 -0.44208,-1.15539 -0.9824,-1.489324 -1.37598,-0.850402 -3.94799,0.282538 -3.24045,1.427374 0.73741,1.193142 4.22285,1.244273 4.22285,0.06195 z m -15,-6.617828 c 0,-0.515625 -0.63281,-0.9375 -1.40625,-0.9375 -0.77344,0 -1.40625,0.421875 -1.40625,0.9375 0,0.515625 0.63281,0.9375 1.40625,0.9375 0.77344,0 1.40625,-0.421875 1.40625,-0.9375 z m 158.68356,343.96466 c -0.2663,-1.01832 -1.90717,-2.44606 -3.64637,-3.17274 -1.73921,-0.72669 -3.16219,-1.94686 -3.16219,-2.7115 0,-1.6441 3.76196,-4.47216 8.67188,-6.51909 4.15377,-1.73169 4.84674,-3.97503 0.9375,-3.03491 -11.02395,2.6511 -13.64034,2.50246 -13.1742,-0.74843 0.34153,-2.38175 3.56482,-3.34067 3.56482,-1.06052 0,1.32732 0.75184,1.45276 5.39063,0.89939 2.96484,-0.35369 5.7914,-1.01685 6.28125,-1.47371 0.48984,-0.45686 2.52309,-0.83065 4.51832,-0.83065 3.22583,0 3.59452,0.23367 3.32813,2.10937 -0.30565,2.15214 -2.49366,3.53863 -11.43117,7.24367 -3.69164,1.53038 -4.36275,2.14275 -3.4946,3.18881 0.59097,0.71207 2.33065,1.54592 3.86597,1.85298 2.1697,0.43394 2.79147,1.0612 2.79147,2.81614 0,2.98249 -3.72251,4.1904 -4.44144,1.44119 z m 0.70495,-23.94115 c 0.007,-0.44262 2.1168,-1.96479 4.6875,-3.38261 4.8305,-2.66417 6.69289,-6.25107 2.56462,-4.93935 -11.21044,3.56197 -21.30792,4.64357 -23.41478,2.50806 -0.96947,-0.98265 -0.85164,-1.46396 0.62521,-2.55397 2.44321,-1.80326 3.02467,-1.6991 3.63948,0.65193 0.39409,1.50699 1.05155,1.88173 2.68746,1.53177 19.62172,-4.19744 21.85325,-4.32281 21.85325,-1.22768 0,1.07995 -1.53751,2.88956 -3.75,4.41369 -3.91559,2.69732 -8.91599,4.38319 -8.89274,2.99816 z m 22.50202,-26.07639 c -0.52416,-1.37867 -0.95303,-2.95913 -0.95303,-3.51212 0,-0.553 -2.39055,-5.9032 -5.31232,-11.88935 -5.40816,-11.08024 -9.21508,-21.67065 -7.78991,-21.67065 0.43361,0 1.05671,0.94922 1.38467,2.10937 0.71674,2.53544 2.22153,5.99731 5.60322,12.89063 9.29914,18.95555 10.66232,22.38621 9.33342,23.4891 -1.05263,0.8736 -1.502,0.5926 -2.26605,-1.41698 z M 407.8125,274.31716 c 0,-1.61613 12.60938,-8.06716 15.76832,-8.06716 1.0878,0 6.63337,-1.73799 12.3235,-3.86221 10.11782,-3.77714 10.34651,-3.92684 10.38322,-6.79687 l 0.0375,-2.93467 1.27265,2.34375 c 0.69996,1.28906 1.42136,3.34255 1.60309,4.5633 0.306,2.05548 -0.25866,2.37663 -7.63832,4.34432 -4.38281,1.16861 -9.53723,2.80653 -11.45426,3.63981 -1.91704,0.83329 -4.28592,1.51507 -5.26419,1.51507 -0.97828,0 -2.91488,0.89373 -4.30356,1.98607 -1.38868,1.09233 -3.87135,2.29282 -5.51706,2.66776 -1.64569,0.37493 -3.9414,0.98619 -5.10155,1.35836 -1.56315,0.50144 -2.10938,0.30528 -2.10938,-0.75753 z m -6.46428,-12.16756 c -0.84245,-1.0151 -0.13411,-2.30586 3.3441,-6.09375 2.42713,-2.64322 4.81417,-4.80585 5.30452,-4.80585 0.49035,0 2.62525,-0.81557 4.74423,-1.81238 4.09904,-1.92826 16.01566,-5.68762 18.02895,-5.68762 0.66234,0 2.31471,-0.50596 3.67194,-1.12435 2.09794,-0.95589 2.38783,-1.55288 1.9348,-3.98438 l -0.53286,-2.86002 2.28308,2.57812 c 1.41293,1.59552 3.2346,2.57813 4.77962,2.57813 2.46423,0 2.47615,0.0311 0.92125,2.40419 -1.04952,1.60178 -1.39328,3.40094 -1.02998,5.39063 0.48016,2.62968 0.40348,2.77717 -0.64191,1.23466 -3.96332,-5.84805 -3.84127,-5.78936 -9.28342,-4.46484 -5.67308,1.38072 -12.32096,3.68136 -15.81004,5.47138 -1.28906,0.66133 -2.81944,1.20503 -3.40084,1.20821 -0.58139,0.003 -1.63608,0.70394 -2.34375,1.55724 -0.70766,0.85331 -2.65778,2.12461 -4.3336,2.82511 -2.73965,1.14519 -2.92875,1.46435 -1.875,3.16463 0.96599,1.55869 0.92481,2.04821 -0.23431,2.78554 -2.01045,1.27888 -4.28745,1.12865 -5.52678,-0.36465 z m -9.82175,-34.14259 c -0.8145,-1.31788 1.07959,-2.55179 6.44228,-4.19686 6.65003,-2.03998 21.15326,-3.81314 22.24655,-2.71985 1.34417,1.34417 0.17685,1.75552 -12.50033,4.4049 -6.39167,1.33578 -12.52099,2.65429 -13.6207,2.93003 -1.09972,0.27574 -2.25523,0.0876 -2.5678,-0.41822 z m -0.58897,-22.40813 c 0,-1.13431 1.11278,-2.32962 2.9456,-3.16406 3.87285,-1.76323 3.89029,-3.14481 0.0443,-3.51409 -6.88108,-0.6607 -1.16635,-3.25841 9.19753,-4.18087 3.58891,-0.31944 2.90459,2.30063 -1.16934,4.47707 -1.9322,1.03225 -3.51423,2.23604 -3.51563,2.67509 -9.3e-4,0.43905 3.00174,0.49657 6.67362,0.12782 5.36149,-0.53843 6.59415,-0.42448 6.25976,0.5787 -0.24667,0.73998 -3.25459,1.70844 -7.37927,2.37591 -3.82959,0.61971 -8.33398,1.4239 -10.00976,1.78709 -2.6193,0.56766 -3.04688,0.40451 -3.04688,-1.16266 z M 76.875,193.23979 c 0,-1.48374 0.632812,-3.22289 1.40625,-3.86479 1.174877,-0.97507 1.40625,-0.8397 1.40625,0.82271 0,2.56617 1.384019,2.53897 3.206527,-0.063 2.325162,-3.31963 2.824425,-1.16909 0.573949,2.47226 -2.708194,4.38192 -6.592976,4.75482 -6.592976,0.63282 z m 289.88515,-24.61401 c 0.19466,-0.58395 2.19887,-1.74411 4.45382,-2.57812 4.92847,-1.82286 6.5138,-4.40234 2.11136,-3.43542 -1.81594,0.39886 -3.08628,0.21487 -3.53555,-0.51208 -1.02408,-1.65697 2.22598,-3.66266 5.93506,-3.66266 1.74843,0 6.33542,-1.08946 10.19331,-2.42103 3.85789,-1.33157 7.62016,-2.18855 8.3606,-1.90442 0.74324,0.28521 1.34625,1.73862 1.34625,3.24483 0,2.58836 -0.42051,2.87382 -8.20313,5.56845 -4.51171,1.56212 -10.51748,3.72266 -13.34613,4.8012 -5.78391,2.20533 -7.83499,2.45746 -7.31559,0.89925 z M 339.375,127.43455 c 0,-1.16621 -0.64694,-1.80955 -1.81967,-1.80955 -2.28561,0 -3.2179,-1.39067 -1.68563,-2.51442 3.92471,-2.87835 29.27335,-10.93481 32.14068,-10.21515 3.34788,0.84026 2.82857,2.22161 -1.4839,3.94712 -2.30313,0.92153 -4.33213,2.57092 -5.18032,4.21115 -0.76687,1.48297 -1.69988,2.75076 -2.07336,2.81732 -0.37348,0.0666 -2.41677,0.2381 -4.54065,0.38119 -2.12388,0.14309 -5.26329,0.985 -6.97648,1.87093 -1.71319,0.88592 -4.29969,1.95056 -5.74778,2.36587 -2.23696,0.64156 -2.63289,0.48299 -2.63289,-1.05446 z m -20.60102,-27.10723 c -1.08347,-0.669617 -0.82635,-1.050111 1.24069,-1.835989 3.32574,-1.264453 7.17283,-1.27754 7.17283,-0.02438 0,0.531816 -0.52734,1.129388 -1.17188,1.32795 -3.57897,1.102594 -6.0278,1.282644 -7.24164,0.532454 z m -10.28586,-5.608536 c -0.79154,-0.489196 -0.75461,-0.923493 0.13938,-1.639075 1.30097,-1.04135 17.49701,-4.954709 20.50581,-4.954709 2.49835,0 2.27021,1.733349 -0.30519,2.318745 -1.16015,0.263708 -4.00781,0.887754 -6.32812,1.386772 -2.32031,0.499017 -6.17991,1.502766 -8.57689,2.230555 -2.39697,0.72779 -4.84272,1.023759 -5.43499,0.657712 z m -5.67562,-6.517322 c 0,-1.814153 6.38659,-4.763962 10.31438,-4.763962 2.19963,0 5.59864,-0.479164 7.55335,-1.064809 4.02022,-1.204487 6.72168,-0.584785 5.97161,1.369859 -0.31344,0.816822 -2.58187,1.530703 -5.99883,1.887845 -3.02212,0.315876 -7.32335,1.211181 -9.55827,1.989568 -4.59944,1.601913 -8.28224,1.860483 -8.28224,0.581499 z m -33.75,-34.472358 c 0,-0.472289 2.10832,-1.61685 4.68516,-2.543468 2.57684,-0.926617 4.48141,-2.014417 4.23241,-2.417333 -0.51107,-0.826919 -11.8422,1.349006 -14.53797,2.791736 -2.3742,1.270632 -4.93146,1.189298 -4.48745,-0.142726 0.84675,-2.540253 23.67403,-7.10057 27.99786,-5.59327 1.55501,0.542077 3.92534,0.600619 5.73896,0.141739 1.69938,-0.429974 5.09369,-1.026041 7.5429,-1.324592 3.55215,-0.432993 4.45313,-0.261927 4.45313,0.845494 0,0.892439 -0.92085,1.384024 -2.57813,1.3763 -3.73615,-0.01741 -15.74028,2.601324 -22.26562,4.857312 -7.00474,2.42173 -10.78125,3.125385 -10.78125,2.008808 z"
     id="path4146"
     inkscape:connector-curvature="0" />
</svg>
