<?xml version="1.0" encoding="UTF-8" standalone="no"?>
<!-- Created with Inkscape (http://www.inkscape.org/) -->

<svg
   xmlns:dc="http://purl.org/dc/elements/1.1/"
   xmlns:cc="http://creativecommons.org/ns#"
   xmlns:rdf="http://www.w3.org/1999/02/22-rdf-syntax-ns#"
   xmlns:svg="http://www.w3.org/2000/svg"
   xmlns="http://www.w3.org/2000/svg"
   xmlns:sodipodi="http://sodipodi.sourceforge.net/DTD/sodipodi-0.dtd"
   xmlns:inkscape="http://www.inkscape.org/namespaces/inkscape"
   id="svg4141"
   version="1.1"
   inkscape:version="0.91 r13725"
   width="412.5"
   height="344.0625"
   viewBox="0 0 412.5 344.0625"
   sodipodi:docname="Deer.svg">
  <metadata
     id="metadata4147">
    <rdf:RDF>
      <cc:Work
         rdf:about="">
        <dc:format>image/svg+xml</dc:format>
        <dc:type
           rdf:resource="http://purl.org/dc/dcmitype/StillImage" />
        <dc:title></dc:title>
      </cc:Work>
    </rdf:RDF>
  </metadata>
  <defs
     id="defs4145" />
  <sodipodi:namedview
     pagecolor="#ffffff"
     bordercolor="#666666"
     borderopacity="1"
     objecttolerance="10"
     gridtolerance="10"
     guidetolerance="10"
     inkscape:pageopacity="0"
     inkscape:pageshadow="2"
     inkscape:window-width="1600"
     inkscape:window-height="837"
     id="namedview4143"
     showgrid="false"
     inkscape:zoom="1.9473206"
     inkscape:cx="206.25"
     inkscape:cy="172.03125"
     inkscape:window-x="-8"
     inkscape:window-y="-8"
     inkscape:window-maximized="1"
     inkscape:current-layer="svg4141" />
  <path
     style="fill:#000000"
     d="m 393.75,339.40073 c -7.77033,-0.82319 -10.08703,-1.6027 -11.25629,-3.78748 -0.7779,-1.45353 -0.36988,-2.19597 2.34475,-4.26652 1.96086,-1.49562 3.28654,-3.31989 3.28654,-4.52261 0,-2.78654 -11.7305,-27.67431 -13.79289,-29.26341 -0.92173,-0.7102 -3.99617,-2.4558 -6.83211,-3.87911 -5.04551,-2.53228 -5.51865,-2.58879 -22.03125,-2.63166 -19.44394,-0.0504 -19.83238,-0.1415 -35.15625,-8.23712 -7.73529,-4.08656 -12.54351,-7.39033 -17.01881,-11.69379 -3.43066,-3.29893 -7.44571,-6.73277 -8.92234,-7.63076 -5.60915,-3.41113 -22.55274,-4.39656 -39.15583,-2.2773 -15.10909,1.92857 -47.52349,2.67104 -55.71159,1.2761 -5.27846,-0.89925 -6.35721,-0.81012 -9.375,0.77459 -1.8756,0.98493 -5.51955,2.88723 -8.09768,4.22736 -6.79942,3.53436 -24.58928,8.78061 -37.03125,10.92055 -20.78867,3.57551 -22.13237,3.93284 -32.8125,8.72592 -2.835937,1.27273 -6.882872,2.6044 -8.993197,2.95927 -5.482791,0.922 -23.089033,10.03667 -28.304319,14.65302 -4.785907,4.23628 -7.955483,5.93271 -13.813396,7.39325 -2.718656,0.67784 -4.778676,2.14936 -7.401421,5.287 -4.207093,5.03304 -9.656696,7.8346 -15.296821,7.86388 -4.959233,0.0258 -11.503346,-2.50526 -11.503346,-4.44905 0,-1.83741 7.85185,-9.18734 12.1875,-11.40842 1.804687,-0.92452 4.96875,-1.97868 7.03125,-2.3426 2.0625,-0.36392 8.601562,-3.23071 14.53125,-6.37065 5.929687,-3.13994 14.564438,-7.64532 19.188336,-10.01196 5.529719,-2.83026 10.086292,-6.01422 13.313389,-9.30286 4.049852,-4.1271 6.264459,-5.48733 12.686666,-7.79226 4.279199,-1.5358 8.729579,-3.02644 9.889729,-3.31253 1.16016,-0.28609 2.10938,-1.11183 2.10938,-1.83498 0,-1.33849 -1.31593,-1.23828 -7.96875,0.60681 -1.546875,0.42902 -5.69595,1.25346 -9.220173,1.8321 -3.524221,0.57865 -9.430471,2.23405 -13.125,3.67869 -3.69453,1.44463 -8.89082,3.31952 -11.547312,4.16643 -2.656492,0.84691 -9.828367,4.35275 -15.9375,7.79075 -6.109133,3.438 -14.585633,8.11685 -18.836665,10.39742 -4.251033,2.28058 -8.047908,4.69515 -8.4375,5.36571 -1.292434,2.22451 -8.1247,5.19551 -11.944467,5.19404 -4.4214131,-0.002 -10.19909934,-2.62514 -10.60665251,-4.81609 -0.44558877,-2.39542 11.65283551,-9.98783 17.75794551,-11.14407 5.2024,-0.98528 18.852779,-7.17081 23.772324,-10.7722 1.546875,-1.13239 3.676698,-2.33199 4.732939,-2.66576 1.056242,-0.33377 5.485929,-2.92033 9.84375,-5.74791 4.357821,-2.82759 8.267866,-5.14646 8.688988,-5.15305 0.421122,-0.007 2.108622,-1.02509 3.75,-2.26334 1.641378,-1.23826 6.57026,-3.20155 10.953073,-4.36289 4.382812,-1.16134 10.921875,-3.47655 14.53125,-5.14492 3.609375,-1.66839 8.46094,-3.68917 10.78125,-4.49065 5.53722,-1.91264 14.3181,-6.54823 14.72689,-7.77458 0.45509,-1.36526 -4.85025,-7.81135 -8.65991,-10.52196 -5.19166,-3.69392 -6.58832,-8.75203 -6.25174,-22.64113 0.28035,-11.56841 -0.45594,-18.04198 -3.19886,-28.125 -2.381611,-8.75485 -3.669211,-20.70641 -3.17888,-29.50645 0.319181,-5.72831 0.07378,-9.46764 -0.769041,-11.71875 -3.503193,-9.35674 -3.514012,-9.4584 -1.192331,-11.20964 3.307059,-2.49453 2.268609,-5.11365 -2.269669,-5.72448 -6.170394,-0.83051 -12.460345,-4.47605 -16.465727,-9.54324 -3.937183,-4.98091 -4.608359,-7.67741 -2.146129,-8.62226 2.274286,-0.87273 7.7324,0.35271 12.733606,2.8589 2.432077,1.21876 5.375855,2.21592 6.541728,2.21592 1.900463,0 1.756182,-0.2997 -1.39464,-2.89688 -1.932925,-1.59328 -4.149255,-4.12453 -4.925178,-5.625 C 87.42518,99.927731 86.513264,99.375 84.04918,99.375 c -3.771837,0 -11.467547,-2.492128 -14.744183,-4.77465 -3.29368,-2.294404 -7.30493,-8.276064 -8.502362,-12.678906 -0.544509,-2.002107 -2.424418,-6.015692 -4.177576,-8.919079 -1.753158,-2.903387 -3.187559,-5.542174 -3.187559,-5.863972 0,-0.321797 -1.001649,-2.661406 -2.225888,-5.19913 -2.749914,-5.700296 -4.983907,-15.218728 -5.696763,-24.272346 -0.297264,-3.775383 -1.332884,-10.525383 -2.30138,-15 -2.465306,-11.39014 -3.382432,-22.9814618 -1.776706,-22.45533621 0.670718,0.21976468 1.592312,2.05503151 2.047988,4.07837061 2.238773,9.9408486 2.502475,10.6321196 3.857523,10.1121396 0.744499,-0.285691 2.315023,-2.571055 3.490055,-5.0785863 1.175032,-2.5075315 2.663765,-4.5764409 3.308296,-4.5975765 1.651744,-0.054164 1.474957,1.2965455 -1.283362,9.8053218 -3.24774,10.018527 -3.719633,28.253688 -0.921909,35.625 0.978506,2.578125 2.177288,5.817342 2.66396,7.198261 1.22617,3.479235 3.554515,4.155514 5.486898,1.593696 l 1.569515,-2.080755 0.540575,2.738149 c 0.297316,1.505982 0.824755,5.224904 1.172088,8.264272 0.569354,4.982197 1.057526,5.939855 4.959686,9.72953 5.029713,4.884724 13.18928,8.87307 17.318839,8.465343 3.281218,-0.323968 6.082023,-3.788928 11.436357,-14.148261 3.196838,-6.1851 5.108988,-7.380944 5.099648,-3.189282 -0.003,1.129726 -1.47908,4.927311 -3.281245,8.439078 -4.7511,9.258149 -4.499578,10.945352 2.437455,16.350322 3.14277,2.448681 6.88538,5.084959 8.31691,5.858397 1.43152,0.77344 3.75059,2.21851 5.15347,3.21128 3.67584,2.60125 11.56556,3.02337 18.11192,0.96903 2.9479,-0.92509 9.3318,-3.720673 14.18644,-6.212397 4.85464,-2.491726 9.32441,-4.530413 9.93282,-4.530413 0.60842,0 1.86477,-0.838203 2.7919,-1.862672 1.5915,-1.758588 1.60078,-2.161194 0.16595,-7.204953 -0.96329,-3.386195 -2.68815,-6.565929 -4.7108,-8.684202 C 151.28117,70.864674 150,68.379697 150,64.804461 c 0,-4.276519 1.33293,-4.21348 3.46046,0.163656 1.05279,2.165973 3.49383,6.006967 5.42454,8.535542 1.93071,2.528574 4.93362,6.822284 6.67313,9.541577 1.73951,2.719293 3.99634,5.208741 5.01517,5.532105 4.28778,1.360891 23.53957,-9.448886 26.53641,-14.900059 0.5922,-1.077193 1.09806,-4.981804 1.12413,-8.676913 0.0524,-7.426794 0.67267,-8.75163 3.32256,-7.096747 1.60361,1.001473 2.05811,0.572115 4.50331,-4.254239 1.49582,-2.952474 3.01447,-6.955663 3.37476,-8.895977 0.82881,-4.463444 -0.96172,-13.954952 -3.66743,-19.440906 -3.63421,-7.368529 -7.20263,-18.5633678 -6.56128,-20.584063 1.12233,-3.5361698 3.11997,-2.1099122 4.21016,3.005938 0.57686,2.707031 2.40977,7.664063 4.07311,11.015625 2.49323,5.023741 3.43189,6.097792 5.34574,6.116772 l 2.32148,0.02303 0,11.226978 0,11.226978 -5.21956,9.84375 c -4.06057,7.657965 -5.80179,12.323041 -7.8417,21.009315 -1.86514,7.942097 -3.23425,11.777679 -4.74241,13.285827 C 194.38881,94.446422 183.84419,97.5 176.57344,97.5 c -7.33842,0 -10.796,1.618219 -13.8733,6.49297 -2.12794,3.37088 -4.92615,4.97843 -12.53506,7.20127 -2.45858,0.71825 -0.63751,3.5783 2.79533,4.39014 2.48211,0.58701 5.90663,0.26846 12.52182,-1.16477 10.63935,-2.30511 12.63918,-1.75749 10.27532,2.81372 C 172.8354,122.88415 163.99382,127.5 156.09194,127.5 l -4.92908,0 -0.40075,5.54022 c -0.50238,6.94534 -4.20451,13.20978 -7.80666,13.20978 -1.89372,0 -2.33045,0.46378 -2.33045,2.47477 0,1.36112 0.66897,2.96394 1.4866,3.5618 0.81763,0.59787 2.20673,3.21423 3.08688,5.81413 0.88016,2.59992 2.55526,5.95413 3.72246,7.45383 1.16719,1.49969 3.06213,4.20328 4.21096,6.00797 1.69558,2.66358 3.31805,3.69172 8.61906,5.46174 12.47495,4.16545 22.04952,4.99871 45.90529,3.99507 12.31577,-0.51814 23.57266,-0.56196 26.25,-0.10218 2.57812,0.44273 8.48437,0.57439 13.125,0.29255 4.84347,-0.29414 15.62556,0.14585 25.3125,1.03294 21.30176,1.95073 35.8856,2.47762 38.72268,1.39896 1.83819,-0.69888 2.10702,-1.2868 1.61426,-3.53033 -0.73938,-3.36634 1.37102,-5.78767 4.41219,-5.06225 3.19064,0.76106 10.86006,8.61941 12.1073,12.40556 0.60274,1.82968 1.86275,4.38138 2.80002,5.67044 0.93728,1.28906 2.34835,5.08594 3.13572,8.4375 0.78737,3.35156 2.06479,8.20312 2.83871,10.78125 2.68601,8.9478 4.27349,18.80999 4.82898,30 0.63283,12.74819 1.3767,14.62107 8.36603,21.06361 6.51122,6.00184 10.44051,7.33765 24.43252,8.30616 13.79801,0.95509 16.98336,2.0662 19.30697,6.73462 3.86871,7.77276 8.21587,21.62947 8.21587,26.18837 0,5.66669 2.49712,12.63039 6.46284,18.02296 1.60169,2.17795 2.91216,4.95157 2.91216,6.16361 0,2.71195 -8.53678,11.54857 -10.97098,11.35632 -0.9269,-0.0732 -4.42746,-0.42361 -7.77902,-0.77867 z m 7.16265,-18.27062 c -0.29586,-2.0825 -2.13395,-8.1722 -4.08466,-13.53267 -3.27363,-8.99581 -5.76082,-12.7271 -7.39456,-11.09337 -1.02845,1.02845 6.27801,27.04279 8.29194,29.52311 0.75928,0.93512 1.25091,0.94275 2.34305,0.0364 0.98976,-0.82143 1.22944,-2.22203 0.84423,-4.93344 z M 125.82632,180.98036 c 1.42425,-1.12031 3.15289,-4.30737 4.4493,-8.20312 1.16607,-3.50404 2.49515,-6.77177 2.9535,-7.26162 0.45836,-0.48984 0.83338,-1.49369 0.83338,-2.23076 0,-2.10401 -7.1736,5.37281 -8.96374,9.34262 -1.74905,3.87872 -4.8341,5.17895 -9.73438,4.10266 -3.19121,-0.7009 -4.2689,-3.28995 -5.08657,-12.22003 -0.59623,-6.51153 -3.99278,-15.44761 -5.87156,-15.44761 -1.61153,0 -1.61171,-0.003 0.61582,8.3741 1.01911,3.83232 1.85293,7.58371 1.85293,8.33642 0,0.75272 0.87111,4.29359 1.93579,7.86859 1.67014,5.60803 2.34557,6.67825 4.92187,7.79876 4.31599,1.87715 9.36668,1.68504 12.09366,-0.46001 z m -16.16844,-42.93349 c -0.0283,-2.46093 -4.23391,-8.47084 -5.23042,-7.47434 -0.262,0.26202 0.39245,2.09742 1.45433,4.07867 1.06189,1.98126 1.93071,4.13588 1.93071,4.78804 0,0.65217 0.42188,1.18576 0.9375,1.18576 0.51563,0 0.92417,-1.16016 0.90788,-2.57813 z m 32.34798,-2.10937 c 1.46149,0 2.84961,-1.70703 2.04357,-2.51306 -0.79432,-0.79434 -7.17443,3.45379 -7.17443,4.77702 0,2.36761 1.35171,2.42764 2.56402,0.11387 0.68522,-1.3078 1.84031,-2.37783 2.56684,-2.37783 z M 74.0625,89.53125 C 73.420604,88.757812 72.262604,88.125 71.489167,88.125 c -1.143704,0 -1.188357,0.262546 -0.239167,1.40625 0.641896,0.773437 1.799896,1.40625 2.573333,1.40625 1.143704,0 1.188357,-0.262546 0.239167,-1.40625 z m 121.37362,-2.440868 c 3.65824,-3.21197 4.28965,-5.527882 1.50713,-5.527882 -1.95408,0 -7.78872,6.384816 -7.00035,7.660435 0.83292,1.347683 2.08154,0.862949 5.49322,-2.132552 z"
     id="path4151"
     inkscape:connector-curvature="0" />
</svg>
