<?xml version="1.0" encoding="UTF-8" standalone="no"?>
<!-- Created with Inkscape (http://www.inkscape.org/) -->

<svg
   xmlns:dc="http://purl.org/dc/elements/1.1/"
   xmlns:cc="http://creativecommons.org/ns#"
   xmlns:rdf="http://www.w3.org/1999/02/22-rdf-syntax-ns#"
   xmlns:svg="http://www.w3.org/2000/svg"
   xmlns="http://www.w3.org/2000/svg"
   xmlns:sodipodi="http://sodipodi.sourceforge.net/DTD/sodipodi-0.dtd"
   xmlns:inkscape="http://www.inkscape.org/namespaces/inkscape"
   version="1.1"
   id="svg9040"
   xml:space="preserve"
   width="800"
   height="800"
   viewBox="0 0 800 800"
   sodipodi:docname="logo-design-element-star-#14.svg"
   inkscape:version="0.92.4 (5da689c313, 2019-01-14)"><metadata
     id="metadata9046"><rdf:RDF><cc:Work
         rdf:about=""><dc:format>image/svg+xml</dc:format><dc:type
           rdf:resource="http://purl.org/dc/dcmitype/StillImage" /><dc:title></dc:title></cc:Work></rdf:RDF></metadata><defs
     id="defs9044"><clipPath
       clipPathUnits="userSpaceOnUse"
       id="clipPath9056"><path
         d="M 0,600 H 600 V 0 H 0 Z"
         id="path9054"
         inkscape:connector-curvature="0" /></clipPath><linearGradient
       x1="0"
       y1="0"
       x2="1"
       y2="0"
       gradientUnits="userSpaceOnUse"
       gradientTransform="matrix(404.50586,0,0,-404.50586,109.6123,310.80078)"
       spreadMethod="pad"
       id="linearGradient9080"><stop
         style="stop-opacity:1;stop-color:#1aaeec"
         offset="0"
         id="stop9070" /><stop
         style="stop-opacity:1;stop-color:#4253a7"
         offset="0.297753"
         id="stop9072" /><stop
         style="stop-opacity:1;stop-color:#e70c8d"
         offset="0.646067"
         id="stop9074" /><stop
         style="stop-opacity:1;stop-color:#e33c47"
         offset="0.955056"
         id="stop9076" /><stop
         style="stop-opacity:1;stop-color:#e33c47"
         offset="1"
         id="stop9078" /></linearGradient></defs><sodipodi:namedview
     pagecolor="#ffffff"
     bordercolor="#666666"
     borderopacity="1"
     objecttolerance="10"
     gridtolerance="10"
     guidetolerance="10"
     inkscape:pageopacity="0"
     inkscape:pageshadow="2"
     inkscape:window-width="1920"
     inkscape:window-height="1018"
     id="namedview9042"
     showgrid="false"
     inkscape:zoom="0.74986527"
     inkscape:cx="462.71186"
     inkscape:cy="400"
     inkscape:window-x="-8"
     inkscape:window-y="-8"
     inkscape:window-maximized="1"
     inkscape:current-layer="g9048" /><g
     id="g9048"
     inkscape:groupmode="layer"
     inkscape:label="logotype-element-14-publicdomainvectors.org"
     transform="matrix(1.3333333,0,0,-1.3333333,0,800)"><g
       id="g9050"><g
         id="g9052"
         clip-path="url(#clipPath9056)"><g
           id="g9058"><g
             id="g9060"><g
               id="g9066"><g
                 id="g9068"><path
                   d="m 255.656,293.131 c -2.741,6.413 -10.513,30.59 -12.331,37.554 -9.394,-8.876 -18.046,-19.098 -25.683,-30.956 -13.643,23.708 -26.342,38.567 -36.015,48.422 45.797,11.328 83.303,8.055 115.047,-3.448 5.252,4.59 25.844,19.455 31.904,23.333 -11.347,6.193 -23.738,11.263 -37.379,14.86 18.333,20.304 28.541,36.97 34.924,49.218 24.925,-40.055 33.403,-76.739 32.273,-110.482 5.99,-3.577 26.489,-18.569 32.048,-23.131 2.384,12.699 3.376,26.048 2.585,40.127 24.982,-11.169 43.976,-15.708 57.602,-17.994 -30.395,-36.086 -62.662,-55.484 -95.105,-64.833 -1.547,-6.802 -9.475,-30.929 -12.096,-37.631 12.818,1.66 25.825,4.844 38.974,9.948 -2.898,-27.2 -1.359,-46.683 0.675,-60.344 -43.71,17.755 -72.129,42.448 -91.048,70.412 -6.948,-0.625 -32.343,-0.545 -39.525,-0.124 5.538,-11.677 12.583,-23.063 21.503,-33.99 -26.766,-5.651 -44.819,-13.135 -57.183,-19.292 3.382,47.059 18.083,81.714 38.83,108.351 M 186.11,119.037 c 0,0 35.376,44.339 100.443,71.249 30.084,-29.728 76.79,-55.111 149.557,-72.037 0,0 -31.237,47.338 -36.727,117.538 37.572,19.425 76.149,55.998 114.735,119.978 0,0 -54.679,-15.076 -123.138,1.398 -6.865,41.733 -29.728,89.722 -78.649,146.189 0,0 -2.557,-56.662 -39.381,-116.681 -41.812,6.37 -94.518,-0.545 -163.338,-29.623 0,0 53.097,-19.943 98.798,-73.511 -18.978,-37.797 -28.687,-90.059 -22.3,-164.5"
                   style="fill:url(#linearGradient9080);stroke:none"
                   id="path9082"
                   inkscape:connector-curvature="0" /></g></g></g></g></g></g></g></svg>