<?xml version="1.0" encoding="UTF-8" standalone="no"?>
<!-- Created with Inkscape (http://www.inkscape.org/) -->

<svg
   xmlns:dc="http://purl.org/dc/elements/1.1/"
   xmlns:cc="http://creativecommons.org/ns#"
   xmlns:rdf="http://www.w3.org/1999/02/22-rdf-syntax-ns#"
   xmlns:svg="http://www.w3.org/2000/svg"
   xmlns="http://www.w3.org/2000/svg"
   xmlns:sodipodi="http://sodipodi.sourceforge.net/DTD/sodipodi-0.dtd"
   xmlns:inkscape="http://www.inkscape.org/namespaces/inkscape"
   id="svg4236"
   version="1.1"
   inkscape:version="0.91 r13725"
   width="410.625"
   height="539.0625"
   viewBox="0 0 410.625 539.0625"
   sodipodi:docname="Flower19.svg">
  <metadata
     id="metadata4242">
    <rdf:RDF>
      <cc:Work
         rdf:about="">
        <dc:format>image/svg+xml</dc:format>
        <dc:type
           rdf:resource="http://purl.org/dc/dcmitype/StillImage" />
        <dc:title></dc:title>
      </cc:Work>
    </rdf:RDF>
  </metadata>
  <defs
     id="defs4240" />
  <sodipodi:namedview
     pagecolor="#ffffff"
     bordercolor="#666666"
     borderopacity="1"
     objecttolerance="10"
     gridtolerance="10"
     guidetolerance="10"
     inkscape:pageopacity="0"
     inkscape:pageshadow="2"
     inkscape:window-width="1440"
     inkscape:window-height="837"
     id="namedview4238"
     showgrid="false"
     inkscape:zoom="1.1869851"
     inkscape:cx="205.26969"
     inkscape:cy="269.48291"
     inkscape:window-x="-8"
     inkscape:window-y="-8"
     inkscape:window-maximized="1"
     inkscape:current-layer="svg4236" />
  <path
     style="fill:#000000"
     d="m 172.86791,536.70314 c -2.52325,-2.52325 -2.47834,-3.49062 0.45639,-9.82814 1.02112,-2.20512 3.61692,-4.66565 7.91489,-7.50245 10.22701,-6.75016 10.5251,-10.16508 0.44129,-5.05522 -2.65084,1.34327 -9.28135,3.86676 -14.73446,5.60775 -8.94877,2.85701 -11.00438,3.16711 -21.09821,3.18267 -6.15089,0.009 -12.47901,-0.39153 -14.0625,-0.89115 -18.1775,-5.73539 -22.31468,-7.34179 -23.97281,-9.30827 -0.77344,-0.91726 -3.70037,-3.04644 -6.50428,-4.73151 -11.218591,-6.74204 -20.231614,-16.79478 -28.209884,-31.46411 -2.241675,-4.12168 -5.15663,-8.94419 -6.477679,-10.7167 -3.816895,-5.12128 -12.06646,-12.67918 -17.287434,-15.83799 -4.533834,-2.74309 -15.524186,-5.78302 -20.907494,-5.78302 -2.828106,0 -9.372175,-3.48172 -10.097695,-5.37239 -2.073529,-5.40354 5.864081,-6.85058 38.390716,-6.99873 22.011072,-0.10025 26.657527,0.1387 35.625,1.83202 5.671875,1.07102 16.42969,2.21868 23.90625,2.55039 27.00682,1.19816 44.6758,5.35157 55.19082,12.97358 6.59462,4.78024 16.09199,14.83679 18.05396,19.11692 2.06783,4.51105 3.35228,5.61365 4.82451,4.14142 0.74955,-0.74955 0.17402,-4.16866 -2.10876,-12.52768 -6.30571,-23.0901 -9.22135,-30.93431 -15.68309,-42.19367 -8.72618,-15.20508 -16.76271,-24.22452 -27.30654,-30.64628 -3.02007,-1.83938 -7.54573,-4.72042 -10.05702,-6.40231 -2.5113,-1.68189 -5.00286,-2.91209 -5.53681,-2.73378 -0.53395,0.17831 -0.99469,2.60909 -1.02386,5.40173 -0.0292,2.79265 -0.99788,8.14154 -2.15266,11.88643 -3.38243,10.969 -6.93495,13.53212 -27.0007,19.48083 -12.34052,3.65849 -15.569098,3.0278 -22.883124,-4.4701 l -5.563964,-5.70386 -3.285819,3.38331 c -5.270173,5.42652 -10.943126,6.38416 -22.966943,3.87701 -14.204212,-2.9618 -19.142787,-6.49674 -24.098277,-17.24911 -3.980841,-8.63757 -4.777395,-14.23434 -2.724997,-19.14642 0.830926,-1.98869 1.510774,-3.94639 1.510774,-4.35044 0,-0.40405 -2.636719,-1.98995 -5.859375,-3.5242 -3.222656,-1.53426 -8.0263969,-4.84356 -10.6749782,-7.354 -4.0029501,-3.79415 -4.991744,-5.4028 -5.859375,-9.53244 -1.60054398,-7.61808 -1.25982634,-13.96021 1.2188766,-22.68823 1.2446915,-4.38281 2.4948189,-9.03475 2.7780608,-10.33764 0.8612387,-3.96163 6.6813738,-9.85625 11.9840288,-12.13739 8.85629,-3.80987 17.971473,-1.11418 25.125519,7.43055 2.179012,2.60259 4.34443,4.73198 4.812041,4.73198 1.415524,0 0.959709,-3.17117 -1.055276,-7.3417 -1.048013,-2.16914 -2.59154,-6.5726 -3.430061,-9.78547 -2.733062,-10.47197 -0.138186,-18.13188 7.860842,-23.20472 3.643723,-2.31078 5.389619,-2.79311 10.110183,-2.79311 3.138244,0 8.012681,-0.65311 10.832081,-1.45136 6.621295,-1.87466 13.324984,-2.67946 16.235101,-1.94907 1.267391,0.3181 4.41281,2.245 6.98982,4.28201 2.577009,2.03701 6.098092,4.3628 7.824622,5.16844 8.46692,3.95084 11.88347,8.37215 11.98725,15.51248 0.0892,6.13899 -1.82311,10.45825 -7.06217,15.95086 -7.899959,8.28228 -6.85537,9.08959 4.69242,3.62652 7.71993,-3.65217 16.62397,-3.76693 25.22161,-0.32506 4.83627,1.93609 6.83032,3.44477 10.7438,8.12859 7.2465,8.67297 11.86935,18.40254 11.86455,24.97099 -0.004,4.61724 -0.57936,6.29907 -4.44642,12.98338 -2.44339,4.22348 -5.2362,7.93095 -6.20623,8.23882 -2.45378,0.7788 -3.1076,3.05767 -1.28126,4.4658 0.84092,0.64837 3.25226,2.8714 5.35852,4.94009 2.10627,2.06868 5.02239,4.37229 6.48029,5.11914 1.45788,0.74685 3.04578,2.09611 3.52866,2.99837 0.98401,1.83865 12.0616,8.63026 12.82743,7.86444 0.27028,-0.27028 0.638,-3.76838 0.81715,-7.77356 0.97692,-21.84029 2.45745,-43.53068 3.7947,-55.59373 0.87198,-7.86586 1.21872,-15.19622 0.82042,-17.34375 -0.70575,-3.80515 -0.65362,-3.74714 -18.51959,-20.6092 -10.17721,-9.60534 -13.69079,-14.08408 -17.6399,-22.48545 -9.36859,-19.93086 -15.93336,-33.05185 -18.19671,-36.36976 -1.33465,-1.95649 -2.42663,-3.86934 -2.42663,-4.25077 0,-1.57138 -10.17958,-10.46313 -14.55509,-12.71372 -4.04578,-2.081 -5.78639,-2.40047 -12.321366,-2.2615 -5.850525,0.12443 -8.185041,-0.21491 -10.096981,-1.46766 -3.362683,-2.20332 -4.646554,-5.35793 -3.868497,-9.50532 0.554538,-2.95595 1.252292,-3.70256 5.039669,-5.3925 5.47654,-2.44366 17.314755,-6.02589 25.958515,-7.85502 10.12238,-2.14201 29.02245,-0.52034 37.00249,3.17491 6.68213,3.09423 18.70156,12.89302 29.46266,24.0193 3.55583,3.6765 8.38872,8.67196 10.73976,11.10104 2.35103,2.42906 4.44974,4.24135 4.66379,4.0273 0.69022,-0.69023 -1.80793,-28.81864 -3.27279,-36.85057 -1.70552,-9.35148 -5.08069,-20.02993 -8.94866,-28.31198 -5.19688,-11.12749 -17.6889,-26.64271 -22.25953,-27.64659 -1.44156,-0.31663 -3.59127,-1.60847 -4.77715,-2.87079 -3.21602,-3.42329 -4.43062,-2.84143 -6.10715,2.92563 -2.33573,8.03461 -5.65645,11.15061 -14.77116,13.86049 -12.59555,3.74478 -29.51145,4.02301 -37.808013,0.62187 -2.250141,-0.92244 -14.982113,-19.39486 -15.906636,-23.07846 -0.912312,-3.63495 0.173675,-9.36375 2.356042,-12.42859 1.083553,-1.52172 1.970097,-3.07255 1.970097,-3.44629 0,-0.37374 -2.929229,-0.3909 -6.509399,-0.0382 -7.044378,0.69414 -8.776074,0.15248 -16.582143,-5.18675 -3.710898,-2.5382 -3.853781,-2.81759 -3.418033,-6.68354 0.457252,-4.05672 -3.668998,-19.824158 -5.480921,-20.943988 -2.236274,-1.382093 0.247156,-11.078325 4.27386,-16.686733 1.064463,-1.482549 3.622886,-3.490624 5.685386,-4.462349 2.0625,-0.971725 5.48086,-3.064507 7.596357,-4.650625 2.382744,-1.78649 5.950114,-3.30377 9.375,-3.987391 6.584345,-1.314262 6.814974,-2.417196 2.105805,-10.070571 -4.344501,-7.060715 -5.02694,-12.830604 -2.308755,-19.520098 1.188029,-2.923758 3.627036,-7.407836 5.420015,-9.964619 2.729803,-3.892692 4.163689,-4.9676016 8.817019,-6.6096589 3.056381,-1.0785297 8.340099,-3.2933734 11.741599,-4.921875 7.54732,-3.61335892 14.22053,-3.89338465 25.00457,-1.0492586 9.94251,2.6221881 11.49971,3.9386235 14.17347,11.9820605 2.2193,6.676333 4.12164,8.450554 5.24975,4.896191 1.57447,-4.960693 19.33665,-10.7955561 26.45556,-8.690627 1.95641,0.578474 4.96448,1.281682 6.68462,1.562685 4.16553,0.680488 18.76819,7.574637 21.55448,10.17622 3.98879,3.724347 4.84926,6.587867 4.84926,16.137617 0,4.953527 0.48619,10.937243 1.08042,13.297146 1.20951,4.803406 0.20635,8.933689 -3.33514,13.731654 -2.05624,2.785778 -12.86048,10.9329 -14.49857,10.9329 -1.63289,0 -2.29872,2.045494 -0.94495,2.90296 0.7106,0.450081 2.88757,0.824788 4.83773,0.832684 4.56985,0.01851 8.89625,1.875016 12.24443,5.254245 3.81698,3.852371 5.12202,6.82453 6.28346,14.310192 0.93734,6.041289 0.85057,6.989219 -1.01652,11.105629 -1.12273,2.4753 -2.59629,6.52719 -3.27457,9.0042 -1.16122,4.24063 -4.92285,9.74056 -10.01213,14.63881 -1.23333,1.18703 -5.28869,3.12407 -9.01191,4.30454 -7.64065,2.42248 -11.41475,4.57248 -11.41475,6.50267 0,0.72199 1.08,2.59621 2.39999,4.16494 2.587,3.07448 7.00089,10.86003 11.88483,20.96335 3.0409,6.29068 4.99511,7.82435 5.97301,4.68765 0.28131,-0.90234 2.16722,-5.64843 4.19089,-10.54687 2.02367,-4.89844 3.68836,-9.32813 3.69932,-9.84375 0.0659,-3.10294 19.57578,-21.96801 31.06931,-30.0425 9.03592,-6.34796 20.60179,-10.82297 37.8139,-14.63073 5.66464,-1.25318 19.4856,-2.76859 30.07367,-3.29748 9.4236,-0.47072 9.45301,-0.46534 11.08685,2.02822 0.90101,1.37511 1.86565,3.90184 2.14365,5.61496 0.41094,2.53235 0.1252,3.31828 -1.5281,4.2031 -2.88129,1.54201 -10.45961,3.75851 -12.89168,3.77054 -2.33154,0.0115 -17.59967,7.68717 -20.44689,10.27914 -1.03125,0.93879 -3.638,2.59155 -5.79277,3.67278 -5.29275,2.6558 -13.9491,9.91099 -24.6921,20.6953 -13.99404,14.04786 -22.84362,25.50907 -26.46033,34.26917 -2.37263,5.74677 -6.204,24.20374 -7.25376,34.94372 -1.18847,12.1591 -2.86314,20.2013 -7.22122,34.67819 -3.92799,13.04816 -3.58512,15.23149 1.65149,10.51619 5.53951,-4.98803 13.26244,-10.80864 20.54994,-15.48803 3.86719,-2.48315 7.24219,-4.77653 7.5,-5.09637 0.25781,-0.31984 1.83984,-1.53916 3.51562,-2.70958 3.3851,-2.36427 3.64841,-3.82748 1.74588,-9.70198 -0.71554,-2.20942 -2.03494,-7.24747 -2.93201,-11.19563 -2.07161,-9.11765 -1.3707,-14.24037 2.79551,-20.43133 1.72619,-2.5651 3.84313,-6.78516 4.70429,-9.37791 2.05231,-6.17893 6.41955,-9.80698 13.46004,-11.18182 6.80727,-1.3293 15.25835,-0.0286 21.1275,3.25175 5.21397,2.91414 5.60239,1.8914 1.98942,-5.23845 -4.11504,-8.12065 -2.75702,-16.47706 3.67857,-22.6355 2.23232,-2.13618 5.90381,-4.50547 8.15885,-5.26509 2.25504,-0.75961 5.15477,-2.11766 6.44383,-3.01789 4.42581,-3.0908 11.30405,-4.18954 18.89896,-3.01897 16.62114,2.56174 22.71112,5.30841 25.98126,11.71794 2.12145,4.15806 2.21138,4.86375 1.18593,9.30624 -1.48487,6.4328 -0.2544,7.12981 6.17802,3.49959 5.84133,-3.29665 6.58734,-3.3343 16.86094,-0.85075 7.12794,1.72311 8.69355,2.52735 15.05677,7.73438 13.25385,10.84566 13.90661,12.00609 14.87086,26.4363 0.89175,13.34536 -1.19972,18.75181 -9.89911,25.5892 l -2.27263,1.7862 2.03825,3.29796 c 3.07302,4.97224 2.77845,13.38184 -0.87084,24.8623 -3.10063,9.75442 -5.49879,14.41414 -9.18381,17.84452 -5.16287,4.80614 -19.74723,10.52607 -26.83874,10.52607 -1.60199,0 -5.38744,-1.26563 -8.41211,-2.8125 -3.02468,-1.54688 -5.85907,-2.8125 -6.29864,-2.8125 -0.43959,0 -1.58558,1.83445 -2.54665,4.07655 -2.96414,6.91504 -9.76055,10.50855 -21.32441,11.27501 -3.18707,0.21124 -7.15424,1.06231 -8.81591,1.89126 -1.66166,0.82895 -5.07482,1.50718 -7.58479,1.50718 -4.27429,0 -4.89735,-0.32848 -9.82912,-5.18209 -2.89605,-2.85014 -5.77873,-5.48686 -6.40596,-5.85937 -0.62723,-0.37251 -2.36197,-2.527 -3.85497,-4.78774 -1.49301,-2.26075 -3.45061,-5.21388 -4.35024,-6.5625 -3.08751,-4.62847 -1.88863,-19.38501 1.9338,-23.80233 1.10706,-1.27937 1.18328,-1.91833 0.33051,-2.7711 -0.85277,-0.85277 -2.13387,-0.81025 -5.55597,0.18437 -6.60019,1.91832 -12.9678,2.2439 -18.97079,0.96998 -6.11428,-1.29754 -8.6297,-0.44308 -14.82974,5.03753 -1.90279,1.682 -4.94211,3.95133 -6.75403,5.04295 -6.69817,4.03545 -26.46237,26.78239 -35.94233,41.36662 -3.40887,5.2443 -5.58431,13.21246 -8.09355,29.64493 -2.87156,18.80531 -1.91808,43.76979 2.80189,73.35937 0.51406,3.22266 1.38988,8.70704 1.94627,12.1875 1.56144,9.76756 1.91333,9.78937 3.78175,0.23438 1.31575,-6.7286 3.02756,-11.47302 7.00106,-19.40392 2.89273,-5.77372 6.21765,-11.12549 7.38875,-11.89281 2.06956,-1.35603 8.38096,-13.23732 9.99379,-18.81344 0.71644,-2.477 1.49647,-6.94996 4.58571,-26.29608 2.30291,-14.42169 6.42388,-29.52107 9.13687,-33.4778 1.51683,-2.21221 4.50228,-6.76439 6.63432,-10.11595 2.13205,-3.35156 6.21607,-8.625 9.0756,-11.71875 2.85955,-3.09375 6.9346,-8.05078 9.05568,-11.01563 2.12108,-2.96484 4.37301,-5.39062 5.00427,-5.39062 1.20604,0 2.28853,4.76855 2.341,10.3125 0.0171,1.80469 1.73772,8.13281 3.82365,14.0625 2.08591,5.92969 4.97819,14.57812 6.42725,19.21875 1.44907,4.64062 3.14457,9.70312 3.7678,11.25 3.86555,9.59454 8.10501,43.26372 7.31881,58.125 -0.66669,12.60231 -7.31974,38.44793 -13.1523,51.09375 -3.26956,7.08889 -11.95728,17.75506 -21.03624,25.82681 -9.51912,8.4631 -22.94396,15.64232 -35.78793,19.13836 -2.30341,0.62697 -5.71053,2.62318 -7.78199,4.55942 -3.29501,3.07992 -3.78664,4.13818 -4.64873,10.00666 -2.86728,19.51843 -9.94931,31.0795 -22.74744,37.13408 -7.66566,3.6265 -14.6018,3.7614 -18.01289,0.35031 z m 21.95943,-16.75981 c 0.22945,-1.88453 -0.0343,-2.30507 -1.17187,-1.86854 -0.80739,0.30983 -1.46797,1.0797 -1.46797,1.71084 0,0.63115 -1.16016,1.74549 -2.57813,2.47634 -2.98652,1.53929 -4.06349,2.78907 -3.37013,3.91095 0.26979,0.43652 2.24587,-0.23939 4.39127,-1.50202 2.73033,-1.60688 3.98958,-3.02539 4.19683,-4.72757 z m -23.34787,-9.50283 c 11.48486,-2.61287 12.58348,-3.59202 10.41873,-9.28572 -1.24158,-3.2656 -2.8357,-3.03639 -2.8357,0.40772 0,3.63778 -1.87945,3.61649 -3.96313,-0.0449 -2.30366,-4.04792 -12.91187,-8.33083 -12.91187,-5.21297 0,2.23599 -3.20846,1.8425 -6.31918,-0.77499 -1.49217,-1.25558 -3.81538,-2.55954 -5.16269,-2.8977 -2.18871,-0.54933 -2.39106,-0.39077 -1.89962,1.4885 0.52854,2.02114 0.38862,2.07385 -3.58112,1.34909 -2.27212,-0.41484 -6.24052,-0.70095 -8.81864,-0.63581 -5.23339,0.13221 -15.47617,-2.79375 -19.29227,-5.51106 -1.37175,-0.97677 -3.60388,-2.19789 -4.96028,-2.71359 -1.35642,-0.51571 -2.4662,-1.58091 -2.4662,-2.36711 0,-0.78619 0.17644,-1.42945 0.39207,-1.42945 0.21565,0 1.01579,-0.23934 1.77811,-0.53187 0.80679,-0.30959 2.61543,0.66991 4.32774,2.34375 1.61795,1.58159 3.34906,2.87562 3.84691,2.87562 1.60223,0 0.96397,-2.32476 -0.96983,-3.53243 -1.03125,-0.64403 -1.875,-1.80019 -1.875,-2.56926 0,-1.8644 0.88707,-1.76235 3.22083,0.3705 1.06448,0.97285 4.34555,2.45665 7.29128,3.29734 2.94572,0.84068 6.00431,1.77735 6.79688,2.08148 1.92158,0.73738 1.85253,-1.38902 -0.11575,-3.56393 -2.99637,-3.31096 -0.11782,-3.06865 6.76588,0.56954 6.81432,3.60151 6.97859,3.63718 8.86962,1.92582 1.72501,-1.56112 2.2912,-1.6146 5.40836,-0.51088 1.91491,0.67803 5.81028,2.65568 8.65639,4.39479 2.84611,1.73912 6.18018,3.16203 7.40907,3.16203 l 2.23433,0 -2.16189,-1.875 c -1.18904,-1.03125 -2.49807,-1.875 -2.90895,-1.875 -0.41088,0 -2.57887,-1.23628 -4.81776,-2.74729 -9.60168,-6.48009 -26.01649,-12.51843 -42.42954,-15.60808 -7.85138,-1.47797 -24.815044,-8.70012 -32.018437,-13.6316 -3.903786,-2.67256 -13.4634,-6.6501 -20.481563,-8.52193 -4.574238,-1.22 -5.886005,-2.26134 -4.54183,-3.60552 0.694226,-0.69423 2.809303,-0.56736 7.089247,0.42522 10.278467,2.38374 17.594253,5.22886 29.327583,11.40555 11.63917,6.12713 12.87956,6.55722 29.852,10.35074 5.59046,1.24954 10.8639,2.63228 11.71875,3.07275 0.85484,0.44047 3.07867,1.07564 4.94185,1.41148 1.86319,0.33584 5.98319,1.86793 9.15557,3.40465 3.17237,1.53671 6.11971,2.79403 6.54965,2.79403 0.42992,0 4.53649,2.26072 9.12569,5.02384 10.41917,6.27327 12.56274,7.03761 12.56274,4.47954 0,-1.22857 0.72573,-1.97604 2.10937,-2.17255 3.10582,-0.4411 3.16479,-4.36838 0.1521,-10.13003 -2.41942,-4.62707 -7.14503,-9.19635 -8.97067,-8.67392 -0.87137,0.24936 -8.97001,-3.94291 -10.57205,-5.47263 -1.52929,-1.46025 0.16034,-2.00196 2.43533,-0.78078 2.39627,1.28628 7.34592,1.86377 7.34592,0.85706 0,-1.38234 -6.68815,-7.15473 -10.49167,-9.0551 -17.28291,-8.63516 -23.90999,-10.22865 -48.24297,-11.60002 C 107.92873,440.00728 95.566997,438.71325 90,437.62194 c -14.497632,-2.84198 -43.543919,-2.91632 -48.063599,-0.12301 -1.466312,0.90624 2.077998,3.12607 4.991248,3.12607 1.379254,0 4.988349,1.68571 8.023941,3.74777 3.034438,2.06127 5.834664,3.74877 6.222725,3.75 0.388061,9.4e-4 2.173689,1.62726 3.968062,3.61342 1.794373,1.98616 4.959178,4.787 7.032899,6.22408 2.073722,1.4371 4.677333,4.13628 5.785804,5.99819 4.564217,7.66656 8.700572,13.74123 9.820508,14.42244 0.655245,0.39856 2.910884,3.17601 5.01253,6.17211 3.68156,5.24842 13.028722,14.19699 14.829372,14.19699 0.48051,0 1.99742,0.88396 3.37091,1.96435 6.62702,5.21281 14.42677,8.32634 24.64772,9.83899 5.57652,0.82528 10.35007,1.72058 10.60788,1.98954 0.82078,0.85629 18.8159,-0.64325 25.22947,-2.10238 z m -39.27735,-52.0568 c -2.7537,-1.53523 -2.9377,-1.8212 -1.17187,-1.8212 3.44206,0 2.74061,-3.52903 -0.88836,-4.46939 -1.64071,-0.42515 -3.15242,-1.28096 -3.35937,-1.9018 -0.50823,-1.52467 0.74191,-1.42074 5.05612,0.42032 4.85675,2.07261 9.29809,2.07584 9.1249,0.007 -0.15092,-1.80323 0.49271,-1.9062 3.87559,-0.62003 2.79425,1.06237 2.33389,2.79925 -0.75384,2.84407 -1.91647,0.0278 -1.94315,0.11396 -0.39832,1.28627 1.5302,1.16119 1.44373,1.34424 -1.1408,2.41479 -1.53808,0.6371 -3.28402,1.74578 -3.87988,2.46374 -1.40537,1.69337 -2.49754,1.58803 -6.46416,-0.62342 z m -11.03557,-3.59312 c -1.39711,-1.38978 -1.33875,-1.53518 0.73682,-1.83561 1.23976,-0.17945 2.40852,0.13695 2.59725,0.70313 0.18872,0.56617 1.15173,1.0294 2.14,1.0294 3.00296,0 2.00011,1.39881 -1.08209,1.50933 -1.58108,0.0567 -3.55747,-0.57611 -4.39198,-1.40625 z M 228.04223,471.928 c 5.08131,-2.28373 11.43256,-5.39989 14.11389,-6.92483 6.14136,-3.49273 19.42002,-16.14352 22.14398,-21.09692 1.1342,-2.0625 3.50283,-6.03382 5.26363,-8.82517 7.00591,-11.10633 12.21908,-27.51153 14.77964,-46.50976 1.07251,-7.95761 1.2162,-14.0089 0.63386,-26.69632 -1.00028,-21.79329 -2.41699,-28.25703 -10.41279,-47.50804 -1.96499,-4.73098 -4.20756,-11.64661 -4.98351,-15.36806 -0.77594,-3.72145 -1.64013,-6.9956 -1.92041,-7.27588 -0.95556,-0.95556 -5.58663,1.27142 -6.54685,3.14823 -0.52658,1.02924 -2.64492,3.60647 -4.70742,5.72716 -7.64435,7.86003 -15.6435,26.00492 -18.12786,41.12034 -0.59323,3.60938 -1.97392,12.04688 -3.0682,18.75 -2.2087,13.52965 -6.07932,24.25365 -13.02732,36.09375 -12.03518,20.50915 -12.8739,22.45027 -13.36773,30.9375 -0.22501,3.86719 -0.22625,6.50391 -0.003,5.85938 0.2235,-0.64454 1.00933,-1.17188 1.7463,-1.17188 0.73698,0 2.3661,-2.32031 3.62029,-5.15625 1.35407,-3.06181 2.87251,-5.15625 3.73817,-5.15625 0.80182,0 1.45784,0.58129 1.45784,1.29176 0,2.29107 -2.60182,7.60197 -4.6182,9.42677 -2.61441,2.36602 -4.52281,8.64045 -3.06994,10.09332 0.7939,0.79391 1.22947,0.60769 1.715,-0.73321 0.35796,-0.98856 2.8495,-4.96145 5.53676,-8.82864 2.68726,-3.86719 6.31056,-10.71197 8.05178,-15.21064 1.74122,-4.49866 3.6932,-8.19006 4.33773,-8.20312 1.6275,-0.033 1.47545,1.25212 -1.14712,9.69502 -1.25996,4.05626 -3.74187,9.54063 -5.51535,12.1875 -1.77347,2.64687 -3.47979,6.07812 -3.79182,7.62499 l -0.56731,2.8125 1.55415,-2.8125 c 0.8548,-1.54687 3.53829,-5.04419 5.96333,-7.77182 2.67589,-3.00979 5.37266,-7.43223 6.86015,-11.25 2.97608,-7.63831 6.20381,-20.86349 6.34022,-25.97818 0.12773,-4.78862 1.05953,-8.09748 2.25687,-8.0142 1.33464,0.0928 0.55986,16.32811 -1.029,21.56235 -0.71195,2.34539 -1.29901,5.00263 -1.3046,5.90498 -0.0187,3.01756 1.55151,1.68469 2.76103,-2.34375 0.65796,-2.19141 1.53136,-5.03907 1.94091,-6.32813 1.16676,-3.67246 2.67425,-15.04191 4.22635,-31.875 1.68107,-18.23194 1.79091,-18.9718 4.80169,-32.34375 3.85445,-17.11908 4.21872,-18.28125 5.72993,-18.28125 1.18434,0 1.30899,1.02735 0.76778,6.32813 -0.35535,3.48046 -1.02257,8.01562 -1.48271,10.07812 -2.83188,12.69345 -3.99062,21.5472 -4.72375,36.09375 -1.34702,26.72692 -2.70163,32.9061 -11.211,51.13964 -6.23641,13.36314 -9.79813,18.52494 -20.29613,29.41404 -10.27687,10.65975 -13.44981,15.1779 -13.45695,19.16214 -0.005,2.66741 0.0233,2.68036 4.39695,2.02449 2.42095,-0.36304 8.55916,-2.52858 13.64048,-4.81231 z M 217.5,469.64094 c 0,-3.38926 6.94457,-11.20344 9.95666,-11.20344 3.4145,0 19.95512,-21.40452 20.02641,-25.91532 0.009,-0.58937 0.64974,-1.31441 1.42318,-1.61121 0.84013,-0.32239 1.40625,-0.007 1.40625,0.78188 0,0.72682 0.37681,1.55437 0.83735,1.839 1.23807,0.76518 4.28117,-6.43643 6.17597,-14.61561 1.31898,-5.6936 2.20019,-7.57486 4.26233,-9.09946 1.98162,-1.46509 2.74798,-3.00097 3.22387,-6.46108 0.34335,-2.49652 0.97114,-5.10034 1.39507,-5.78627 1.28561,-2.08017 2.85541,-0.16934 2.85541,3.47574 0,3.25914 0.069,3.33595 1.35214,1.50408 1.50156,-2.14379 3.20581,-11.23704 3.56808,-19.03806 0.27943,-6.01698 2.16657,-7.44839 3.11994,-2.36649 1.02274,5.45164 -0.24439,14.83515 -3.39458,25.138 -5.99914,19.62057 -6.06935,19.79202 -8.23464,20.11063 -1.11977,0.16476 -2.03594,0.73261 -2.03594,1.26187 0,0.52927 -1.47871,4.07838 -3.28602,7.88693 -2.72185,5.73575 -3.92802,7.25216 -7.02538,8.83231 -2.43231,1.24087 -4.19833,3.00616 -5.05244,5.05035 -1.87033,4.4763 -7.13616,8.01381 -7.13616,4.79396 0,-2.3596 -1.87122,-1.57175 -3.55923,1.49858 -2.94485,5.3564 -4.96935,7.40767 -7.31101,7.40767 -1.37639,0 -3.92681,1.50263 -6.36492,3.75 -4.02029,3.70577 -6.20234,4.67886 -6.20234,2.76594 z m -23.41368,-28.47559 c -1.13362,-3.40656 -2.65743,-6.79002 -3.38623,-7.51883 -0.7288,-0.7288 -1.33145,-1.88257 -1.33921,-2.56393 -0.0321,-2.81711 -5.86717,-16.17592 -7.50873,-17.19046 -0.79929,-0.494 -0.93692,-0.0582 -0.48547,1.53734 0.61176,2.16216 3.90417,10.24141 6.76839,16.60903 0.77491,1.72273 2.03235,5.73055 2.79431,8.90625 0.76197,3.1757 1.87094,6.76251 2.4644,7.97069 1.04837,2.13431 1.10281,2.1434 1.91635,0.32017 0.57924,-1.29811 0.20202,-3.78568 -1.22381,-8.07026 z M 110.625,405.63641 c 9.30446,-3.47701 9.36242,-3.51039 10.6626,-6.14064 2.6056,-5.27114 4.55106,-13.44169 4.00865,-16.83565 -0.71348,-4.46437 -6.19727,-9.34473 -15.45793,-13.75695 -6.7536,-3.21773 -9.53999,-3.97209 -9.51147,-2.57505 0.0309,1.50922 1.59036,2.89182 6.54815,5.8052 l 5.15625,3.03 -3.51563,-0.5504 c -1.93359,-0.30273 -4.99218,-0.81656 -6.79687,-1.14183 -1.842553,-0.33211 -3.28125,-0.20498 -3.28125,0.28994 0,0.48475 2.31691,2.88163 5.14868,5.32641 2.83178,2.44478 5.62579,5.33653 6.20893,6.42612 l 1.06022,1.98106 -3.16203,-1.99376 c -1.73913,-1.09656 -5.1361,-3.05608 -7.54883,-4.35448 -2.412729,-1.2984 -4.65672,-2.79751 -4.986654,-3.33135 -0.329935,-0.53384 -0.952997,-0.75238 -1.384585,-0.48564 -1.423151,0.87956 0.143972,4.18568 3.295753,6.95298 3.476636,3.05252 6.430186,8.10375 5.560896,9.5103 -0.31447,0.50881 -2.33561,-1.1742 -4.491443,-3.74002 -7.102762,-8.45356 -14.368124,-11.73097 -11.959097,-5.39475 1.185357,3.11772 -0.09753,3.99607 -2.293097,1.56999 -2.611585,-2.88576 -3.261243,-2.25052 -3.261243,3.18887 0,7.86553 4.108936,15.42357 10.497051,19.30842 2.307107,1.40303 3.231671,1.44774 8.008702,0.38729 2.970267,-0.65938 8.142687,-2.2236 11.494247,-3.47606 z m -47.34375,-2.75814 c 6.414479,-4.3672 7.924175,-7.27474 8.580844,-16.52595 0.40047,-5.64185 0.277501,-8.53982 -0.362368,-8.53982 -1.163481,0 -2.094377,3.14089 -2.111924,7.12573 -0.01669,3.78941 -1.834868,8.95514 -2.916625,8.28658 -0.465397,-0.28763 -0.851938,-3.34573 -0.858979,-6.79577 -0.01397,-6.84772 -0.692506,-10.49154 -1.953678,-10.49154 -0.445663,0 -1.069322,1.16016 -1.385908,2.57812 -1.029942,4.61306 -3.481049,10.9837 -4.766438,12.3884 -1.077859,1.1779 -1.256174,1.0028 -1.256174,-1.23351 0,-1.43345 0.382268,-3.32055 0.849487,-4.19355 1.340024,-2.50386 1.600161,-9.81666 0.363866,-10.22876 -0.595914,-0.19863 -2.584022,1.98457 -4.418021,4.85158 -1.833998,2.86699 -3.761657,5.21272 -4.283687,5.21272 -1.298677,0 -1.19027,-1.10749 0.323709,-3.30702 2.183547,-3.1723 3.722368,-8.94776 2.665615,-10.00451 -0.643547,-0.64355 -1.509484,-0.0847 -2.676066,1.72694 -0.948561,1.47308 -3.261032,4.29632 -5.138826,6.27386 -4.332647,4.56277 -5.800386,2.93898 -2.072303,-2.29264 1.467111,-2.0588 3.07443,-4.3341 3.571817,-5.05623 1.37594,-1.99766 -0.257914,-2.90393 -2.587602,-1.43531 -6.779389,4.27372 -7.06292,4.35969 -8.390463,2.54416 -1.190035,-1.62746 -1.314936,-1.61788 -2.986457,0.22913 -1.025012,1.13262 -1.934843,3.90877 -2.206049,6.73127 -0.3925,4.08482 0.0085,5.77532 2.679719,11.29701 2.77027,5.72643 3.754442,6.83742 8.33265,9.40639 8.419195,4.72425 17.368592,5.28941 23.003861,1.45272 z m 124.75026,-15.57264 c 2.26352,-1.78049 2.2815,-1.92602 2.34769,-19.00306 0.0367,-9.46485 0.36213,-20.45124 0.72321,-24.4142 0.36108,-3.96295 0.50684,-7.65436 0.32392,-8.20313 -0.54101,-1.62302 -2.524,-1.14618 -4.62283,1.11163 -1.57216,1.69126 -2.07172,3.78184 -2.52028,10.54688 -0.3077,4.64062 -0.80637,12.02344 -1.10817,16.40625 -0.78401,11.38561 -0.40095,24.19631 0.80939,27.06852 1.0085,2.3932 1.04807,2.40371 1.40193,0.37204 0.20028,-1.14989 1.39059,-2.8981 2.64514,-3.88493 z M 80.704002,368.30307 c 1.967785,-0.58956 4.686811,-2.2295 6.042281,-3.6443 2.881344,-3.00749 5.372281,-9.41396 4.150195,-10.67395 -0.504135,-0.51978 -3.34435,-0.44681 -7.19291,0.18478 -3.4979,0.57404 -8.362627,1.30265 -10.810506,1.61913 -5.634817,0.72852 -6.970439,2.74005 -4.980932,7.50161 0.909974,2.17787 2.460906,3.79728 4.474652,4.67221 3.803936,1.65274 3.921369,1.65755 8.31722,0.34052 z m 63.000898,-3.36665 c 2.3659,-1.70695 5.01357,-4.86795 6.59864,-7.878 3.47376,-6.59662 2.89968,-11.28519 -2.26487,-18.4974 -2.01502,-2.81394 -3.66367,-5.79746 -3.66367,-6.63004 0,-0.83258 -0.58209,-2.34594 -1.29355,-3.363 -0.71145,-1.01708 -1.44973,-2.63546 -1.64063,-3.59643 -0.2298,-1.15686 -2.40602,-2.54619 -6.44082,-4.11195 -7.95905,-3.0886 -14.3092,-3.62291 -19.69485,-1.65713 -2.31627,0.84545 -5.68796,1.97519 -7.49265,2.51054 -1.80469,0.53534 -3.98602,1.5993 -4.84743,2.36434 -0.86139,0.76505 -2.94829,2.13223 -4.637529,3.03819 -3.437466,1.84353 -4.603126,3.82196 -2.251847,3.82196 0.84945,0 3.909534,-1.08181 6.800186,-2.40402 7.61055,-3.48115 15.43342,-5.32132 18.16116,-4.27205 1.62438,0.62484 1.85581,0.98348 0.83796,1.29848 -0.77344,0.23937 -4.57031,1.37817 -8.4375,2.53068 -3.86719,1.15251 -8.08594,2.7919 -9.375,3.64307 -1.28906,0.85118 -3.37452,1.75853 -4.634344,2.01634 -1.259831,0.25781 -2.201718,0.89062 -2.093081,1.40625 0.270919,1.28586 5.754185,1.07733 14.696175,-0.55889 9.20448,-1.68426 20.625,-1.11522 20.625,1.02764 0,1.09476 -1.45364,1.45582 -6.5625,1.63006 -3.60937,0.1231 -8.25,0.6347 -10.3125,1.13688 -2.0625,0.50218 -5.64844,1.18744 -7.96875,1.52281 -4.19732,0.60665 -6.87545,1.94354 -6.17424,3.0821 0.20218,0.3283 6.84207,0.31493 14.7553,-0.0297 14.30491,-0.623 17.66894,-0.42152 17.66894,1.05824 0,1.53514 -3.22089,1.92553 -16.49339,1.99905 -7.42273,0.0411 -13.72104,0.43908 -13.99625,0.88438 -1.07645,1.74173 3.74015,2.83988 14.94737,3.40789 8.51922,0.43178 11.83281,0.93671 12.18593,1.85692 0.39159,1.02048 -1.90169,1.26666 -11.90745,1.27824 -6.81585,0.007 -13.00327,0.40079 -13.74982,0.87309 -1.54341,0.97644 -1.20441,1.07304 10.44394,2.97592 3.96636,0.64796 7.00006,1.52033 6.74154,1.93862 -0.25851,0.41829 -3.71466,0.7699 -7.68033,0.78137 l -7.21029,0.0208 2.34375,1.83287 c 1.28906,1.00809 4.90398,2.69514 8.03315,3.74903 12.39508,4.17459 19.50632,3.98653 25.98425,-0.68717 z m -81.673217,-1.85574 c -0.227451,-3.44441 0.2314,-5.79109 1.692255,-8.6546 1.741325,-3.41327 1.860266,-4.3653 0.906452,-7.25537 -0.677694,-2.05344 -0.859037,-5.43759 -0.473827,-8.8424 0.583576,-5.15813 -0.224436,-7.14835 -1.840538,-4.53345 -0.333922,0.5403 -1.308038,0.91359 -2.164703,0.82955 -4.609679,-0.45227 -5.534866,0.0978 -7.112679,4.2293 -2.058153,5.3892 -3.066061,20.0505 -1.570505,22.84497 0.603807,1.12823 1.657207,2.05132 2.340889,2.05132 1.508159,0 2.78376,-8.93667 2.546302,-17.83901 -0.135747,-5.0892 0.173385,-6.48161 1.834977,-8.26512 1.099025,-1.17966 2.077919,-2.01148 2.17532,-1.84848 0.0974,0.163 -0.159819,5.14792 -0.571602,11.07761 -1.180343,16.997 -0.833314,22.06848 1.457406,21.29859 0.696549,-0.23409 0.979251,-2.07937 0.780253,-5.09291 z m -25.640154,-2.61193 c 1.531963,-1.28906 3.236989,-2.34375 3.788945,-2.34375 0.551956,0 1.432548,-0.80158 1.956872,-1.78129 1.23154,-2.30115 -0.242575,-2.89536 -7.292146,-2.93944 -2.922673,-0.0183 -6.332789,-0.59771 -7.578037,-1.28765 -2.043915,-1.13245 -1.38195,-1.29302 6.807173,-1.65118 6.993402,-0.30587 9.444701,-0.77029 10.701586,-2.0275 1.426378,-1.42674 1.45441,-1.74111 0.224078,-2.51295 -0.773438,-0.4852 -2.25,-0.57693 -3.28125,-0.20385 -4.188757,1.51542 -16.018525,-0.26614 -19.714993,-2.96906 -3.218533,-2.35345 -0.727035,-2.7529 7.269794,-1.16553 9.753722,1.93612 13.851449,1.99159 13.851449,0.18753 0,-0.74301 -0.421875,-1.61166 -0.9375,-1.93033 -1.422821,-0.87936 -1.120194,-3.28125 0.413422,-3.28125 2.921341,0 2.13122,-1.67642 -1.689454,-3.58456 -3.809261,-1.90244 -10.60621,-8.2832 -9.742993,-9.14642 0.222017,-0.22201 1.631967,0.65268 3.133221,1.94377 2.687949,2.31164 7.885804,3.24249 7.885804,1.41221 0,-0.51563 -0.60889,-0.9375 -1.35309,-0.9375 -1.304604,0 -4.27191,-3.40087 -4.27191,-4.8961 0,-0.4009 1.054687,-0.7289 2.34375,-0.7289 3.101493,0 2.956628,-0.91603 -0.703125,-4.44609 -5.273731,-5.08685 -10.285648,-6.07884 -17.258485,-3.41589 -7.452303,2.84606 -11.9915622,13.47246 -11.9826126,28.05127 0.00663,10.79061 1.4144746,13.42162 9.7879726,18.29187 7.72358,4.49223 13.401018,4.93074 17.641529,1.36259 z M 34.6875,337.5 c -1.046017,-0.67598 -0.50567,-0.91247 2.109375,-0.92315 1.933594,-0.008 3.515625,0.40752 3.515625,0.92315 0,1.19408 -3.777293,1.19408 -5.625,0 z m -4.670759,-1.63093 c -0.764229,-0.29997 -1.95452,-1.11042 -2.645089,-1.80099 -1.049107,-1.04911 -0.974777,-1.25068 0.452008,-1.22577 1.755825,0.0307 4.98884,2.05285 4.98884,3.12042 0,0.69843 -0.850339,0.66995 -2.795759,-0.0937 z m 57.578707,12.01061 c 1.56515,-1.72947 1.360235,-5.69218 -0.294347,-5.69218 -0.383652,0 -1.515379,-0.74491 -2.51495,-1.65536 -6.902267,-6.28685 -10.657651,-7.32357 -14.285526,-3.94369 -2.900058,2.70181 -3.519853,6.07322 -1.643068,8.93756 2.065521,3.15238 4.503181,4.03047 11.387767,4.10206 4.502545,0.0469 6.060959,-0.32388 7.350124,-1.74839 z M 72.509947,309.60937 c 1.938264,-11.70551 3.062686,-15.94036 4.898025,-18.44718 2.133243,-2.91372 2.386816,-1.28461 0.951506,6.11302 -0.740963,3.81895 -1.604263,10.48831 -1.918444,14.8208 -0.491199,6.77354 -0.382991,7.72103 0.772283,6.76224 0.738936,-0.61326 2.050438,-3.31428 2.914447,-6.00227 1.720951,-5.35396 8.655084,-17.54348 9.979796,-17.54348 1.374024,0 0.904367,3.03125 -1.162038,7.5 -2.619975,5.66589 -5.606608,14.27642 -5.120504,14.76252 C 84.445657,318.19566 90,312.9356 90,311.72721 c 0,-0.59834 1.054687,-2.07869 2.34375,-3.28971 2.32245,-2.18183 2.34375,-2.18376 2.34375,-0.21173 0,1.09457 -1.054688,3.12815 -2.34375,4.51907 C 91.054687,314.13577 90,316.3154 90,317.58847 c 0,2.307 0.0085,2.30911 2.578125,0.63619 1.417969,-0.92316 4.971563,-3.77925 7.896865,-6.34684 9.00211,-7.90135 10.60283,-16.3714 4.32445,-22.88233 -3.19511,-3.31346 -16.230695,-10.90857 -20.549135,-11.97286 -1.58541,-0.39072 -5.777552,0.40281 -11.71875,2.21824 -5.087668,1.55462 -10.841049,3.11311 -12.785293,3.46332 -4.338324,0.78145 -9.731797,6.63082 -10.65588,11.55661 -0.743783,3.9647 1.638026,13.713 4.692033,19.20363 3.061749,5.50454 4.342585,5.42747 4.342585,-0.26131 0,-2.62109 -0.421875,-4.76562 -0.9375,-4.76562 -0.515625,0 -0.87429,-1.79297 -0.797033,-3.98438 0.107207,-3.04094 0.22603,-3.31842 0.501816,-1.17187 0.198741,1.54687 0.737982,3.65625 1.198314,4.6875 0.460331,1.03125 1.089428,3.41464 1.397993,5.29642 0.619745,3.77952 2.857674,6.32607 4.295674,4.88806 1.253821,-1.25382 1.280105,-4.67692 0.08054,-10.48882 -1.131973,-5.48441 -0.184237,-12.08058 1.925564,-13.40177 1.759494,-1.10182 2.132904,2.28341 0.783501,7.10301 -0.891517,3.18419 -0.813236,5.014 0.425258,9.94034 2.867436,11.40574 3.366713,11.25203 5.510821,-1.69662 z M 190.3733,300.11361 c -0.54907,-1.02594 -0.9983,-2.88981 -0.9983,-4.14194 0,-4.7566 -3.94602,-18.27205 -7.23542,-24.78189 -1.88396,-3.72844 -3.61509,-6.58926 -3.84696,-6.3574 -0.23187,0.23186 0.52868,3.37685 1.6901,6.98887 2.09995,6.53083 2.01969,9.92727 -0.21759,9.20817 -1.51192,-0.48595 -7.33109,-14.66445 -7.02773,-17.12317 0.14045,-1.13828 1.06017,-1.99271 2.34072,-2.17458 2.53232,-0.35964 2.54073,-0.5507 0.23438,-5.32542 -2.17208,-4.49675 -2.25321,-5.15625 -0.63423,-5.15625 2.65444,0 15.63423,22.09672 15.63423,26.61561 0,1.34579 0.39641,2.44689 0.8809,2.44689 0.4845,0 1.0464,1.58203 1.24866,3.51562 l 0.36774,3.51563 0.15761,-4.03798 c 0.0867,-2.22089 -0.23558,-5.80683 -0.71612,-7.96875 -0.48055,-2.16192 -1.3989,-6.67296 -2.0408,-10.02452 -0.64189,-3.35156 -2.14715,-7.94955 -3.34503,-10.21776 -2.46366,-4.66498 -2.74531,-6.65724 -0.94114,-6.65724 1.99095,0 7.37824,13.54969 8.72083,21.93392 0.67952,4.24359 1.8979,9.16557 2.70749,10.93773 1.41703,3.10183 1.45028,2.86341 0.89078,-6.38728 -0.36051,-5.96073 -0.23711,-9.60937 0.325,-9.60937 0.4984,0 1.20443,1.98885 1.56896,4.41967 0.36452,2.43083 1.20374,5.19203 1.86493,6.13601 1.07906,1.54057 1.26209,1.56015 1.78743,0.19114 1.0577,-2.75634 0.61234,-6.74476 -0.89263,-7.99378 -1.02626,-0.85172 -1.31184,-2.11173 -0.9345,-4.12311 0.54293,-2.8941 -1.00768,-8.35613 -5.03374,-17.73139 -1.76057,-4.09972 -4.96778,-8.26425 -18.64465,-24.20993 -2.23275,-2.60312 -7.35276,-7.17473 -11.37781,-10.15912 -4.02505,-2.98439 -7.5957,-5.87507 -7.93481,-6.42374 -1.29203,-2.09056 -12.54952,-7.57402 -19.3954,-9.44739 -6.33917,-1.73472 -8.08595,-1.84768 -15.53006,-1.0044 -4.61314,0.52258 -13.00056,2.35908 -18.63871,4.08111 -8.400152,2.56562 -10.25118,3.45624 -10.25118,4.93233 0,1.52143 1.146872,1.99004 7.38041,3.0156 4.05923,0.66784 9.37683,2.22591 11.8169,3.46238 10.77268,5.45894 24.10447,23.87502 35.47371,49.00218 3.18617,7.0418 7.41782,14.63541 9.95642,17.86665 4.43759,5.64834 12.73783,13.29829 14.42873,13.29829 0.90102,0 2.62534,1.36388 11.73215,9.27979 4.58146,3.98235 6.49659,4.07265 4.42873,0.20882 z m -24.35891,-31.84494 c -1.44871,-2.70694 -2.27612,-9.20763 -1.25247,-9.84028 1.06952,-0.66099 2.69305,2.61868 3.54537,7.16199 0.6932,3.69505 -0.80941,5.45022 -2.2929,2.67829 z m -8.60559,-5.0461 c -2.93737,-2.95737 -4.67541,-12.99964 -2.25255,-13.01509 1.30329,-0.008 4.37721,9.24905 4.03279,12.14504 -0.25956,2.18239 -0.40579,2.25386 -1.78024,0.87005 z m 10.4037,-17.51804 c -1.80469,-1.89858 -5.60156,-6.01626 -8.4375,-9.1504 -4.55443,-5.03335 -16.4915,-15.66588 -22.66072,-20.18425 l -2.18303,-1.59887 2.15171,-0.0417 c 3.25442,-0.0632 15.10913,8.40383 23.58324,16.84383 4.15046,4.13377 7.5463,7.90773 7.5463,8.3866 0,1.19937 3.91186,7.85212 5.11439,8.69784 0.59228,0.41653 0.42354,0.65125 -0.42689,0.59386 -0.77344,-0.0522 -2.88281,-1.64828 -4.6875,-3.54685 z m 150,45.03318 c 2.83594,-1.05958 7.29155,-1.94027 9.90135,-1.9571 5.45871,-0.0353 7.37924,-1.40812 11.27932,-8.0631 2.1969,-3.74874 2.44059,-4.94908 1.95096,-9.61003 -0.58903,-5.60718 -2.26891,-11.41883 -3.30147,-11.42166 -0.33627,-9.2e-4 -0.61141,2.7375 -0.61141,6.08538 0,3.34788 -0.42188,6.19628 -0.9375,6.32979 -0.51563,0.13352 -1.28468,-2.71037 -1.70899,-6.31974 -0.80616,-6.85744 -1.52357,-9.04627 -3.14177,-9.58567 -0.59963,-0.19988 -1.16438,3.26329 -1.48703,9.11878 -0.53284,9.66985 -1.99877,13.90804 -3.73654,10.80282 -0.46209,-0.82571 -0.56257,-2.76518 -0.22329,-4.30991 0.33928,-1.54473 0.32197,-6.34879 -0.0384,-10.67569 -0.51308,-6.15956 -0.93846,-7.75844 -1.95984,-7.3665 -1.42765,0.54784 -3.35282,6.75226 -5.03755,16.23492 -1.24095,6.98482 -3.14303,10.36725 -4.86283,8.64745 -1.03753,-1.03753 -0.60466,-4.688 2.72075,-22.94433 0.26316,-1.44474 0.046,-2.57812 -0.49389,-2.57812 -1.28664,0 -6.45843,8.50234 -8.47424,13.93152 -1.84555,4.97061 -3.2896,5.59301 -3.74324,1.61338 -0.42027,-3.68696 1.50232,-10.2887 4.70583,-16.15878 1.45054,-2.65795 2.63734,-5.13225 2.63734,-5.49845 0,-0.72678 -4.44132,1.99402 -6.3362,3.88163 -1.3505,1.34532 -4.31366,8.02471 -5.25258,11.84007 -1.03652,4.21199 -2.57135,3.05415 -1.86413,-1.40625 0.84055,-5.30123 2.57909,-9.25058 4.9483,-11.24082 2.01552,-1.69312 2.57741,-3.5248 1.08129,-3.5248 -1.89439,0 -3.82668,1.20728 -3.82668,2.39089 0,0.68903 -0.85036,1.8484 -1.88968,2.57638 -2.15742,1.51111 -7.29001,11.57602 -7.58213,14.86838 -0.10714,1.20758 -0.12919,4.82967 -0.049,8.0491 0.14335,5.75541 0.21256,5.9012 4.13018,8.70114 2.1914,1.56622 5.84976,4.55969 8.12968,6.65216 4.66891,4.28508 5.90674,4.36204 15.07344,0.93716 z m 54.48294,-13.10885 c 1.22969,-0.96038 3.92331,-2.6049 5.98581,-3.65449 2.80415,-1.427 4.40027,-3.19748 6.32812,-7.0194 1.41797,-2.81108 2.57813,-5.66464 2.57813,-6.34124 0,-0.6766 0.67707,-3.37811 1.50461,-6.00336 1.58609,-5.03166 0.92622,-10.37331 -1.71981,-13.92185 -1.64614,-2.20761 -14.07113,-6.50069 -17.77138,-6.14037 l -3.0356,0.2956 3.91083,1.875 3.91083,1.875 -4.88412,0.46875 c -2.68626,0.25781 -4.84107,0.89062 -4.78847,1.40625 0.0526,0.51562 2.46493,2.20313 5.36073,3.75 6.41144,3.42487 8.57442,5.47759 7.82625,7.42731 -1.03675,2.70171 -2.25242,2.21446 -11.54284,-4.62654 -1.10562,-0.81412 -3.58801,-1.73626 -5.51644,-2.0492 -5.00898,-0.81285 -4.03251,0.98616 3.84728,7.08808 3.57054,2.76492 6.49188,5.71227 6.49188,6.54965 0,3.05211 -3.24547,2.03138 -8.40893,-2.64467 -4.81036,-4.3563 -7.05982,-5.22219 -7.05982,-2.71759 0,0.5212 1.26562,2.78716 2.8125,5.03546 1.54687,2.2483 2.8125,4.32822 2.8125,4.62204 0,1.62319 -2.81387,0.007 -6.76467,-3.88367 -4.17846,-4.11563 -4.48306,-4.25995 -4.4521,-2.10938 0.0183,1.26969 0.63613,3.3632 1.37302,4.65226 1.80644,3.16003 1.73269,3.75 -0.46875,3.75 -1.03125,0 -1.875,-0.60268 -1.875,-1.33928 0,-0.73662 -0.63669,-1.97599 -1.41488,-2.75417 -0.77819,-0.77818 -1.80614,-2.39036 -2.28433,-3.58259 -0.86769,-2.16334 -0.86957,-2.16277 -0.92886,0.28398 -0.0327,1.34844 0.7049,3.45781 1.63908,4.6875 0.93418,1.22969 2.81171,4.1737 4.17229,6.54223 2.5373,4.41698 7.29028,8.70825 10.56558,9.53926 4.36029,1.10627 9.62855,0.63263 11.79656,-1.06057 z m -146.55555,-3.17574 c 1.5907,-1.16015 5.44558,-4.30234 8.56642,-6.98264 3.12082,-2.6803 7.16664,-5.58148 8.99071,-6.44705 3.68175,-1.74711 7.02317,-5.46526 7.00113,-7.79049 -0.008,-0.93466 -0.27797,-1.12921 -0.70313,-0.50831 -0.37882,0.55324 -1.38693,1.26288 -2.24023,1.57699 -3.55637,1.30912 -17.52306,11.12653 -21.65167,15.21929 -6.13076,6.07754 -6.1059,9.4123 0.0367,4.93222 z m -8.70526,-30.89132 c 1.2846,-4.79493 2.35497,-11.03836 2.37858,-13.8743 0.0536,-6.43299 2.32008,-24.77422 3.5526,-28.74866 0.92385,-2.97911 4.18437,-10.79632 8.14693,-19.53259 7.28442,-16.05994 37.74445,-46.75042 54.95946,-55.37527 14.44037,-7.23472 14.87769,-7.41254 24.03421,-9.772 2.20697,-0.56869 3.7641,-1.43617 3.4603,-1.92773 -0.96063,-1.55434 -10.8847,-0.92442 -32.78546,2.08105 -13.14286,1.80361 -23.45741,5.74184 -37.8448,14.44964 -6.25721,3.7871 -18.65374,16.26233 -21.81209,21.95056 -1.00205,1.80469 -2.68158,4.64108 -3.73231,6.3031 -2.82724,4.47207 -5.15654,11.26679 -9.32824,27.21114 -3.55383,13.58284 -3.73951,14.9849 -3.72472,28.125 0.0173,15.42429 0.72608,25.30651 1.96662,27.42261 0.5421,0.92471 0.84081,-0.52098 0.87157,-4.2181 0.0536,-6.44964 2.25079,-26.59001 3.73296,-34.21875 4.43485,-22.82628 15.30268,-44.23178 30.45636,-59.98753 6.84831,-7.12039 21.386,-16.95562 22.86115,-15.46631 0.65448,0.66076 -4.43004,5.12881 -5.84543,5.13668 -0.46003,0.003 -3.03761,1.8852 -5.72796,4.18363 -2.69035,2.29844 -5.8999,4.64252 -7.13233,5.20906 -2.36503,1.08719 -17.38949,23.34626 -19.60786,29.04947 -0.70197,1.80469 -2.02025,4.63255 -2.92951,6.28415 -4.38207,7.95955 -7.84471,25.62043 -9.15587,46.69859 -0.60894,9.78918 -1.51664,20.67342 -2.01712,24.1872 -1.79309,12.58892 1.28012,9.54649 5.22296,-5.17064 z m 68.38785,2.03042 c 4.88531,-1.56491 9.1169,-3.22474 9.40353,-3.68851 0.28663,-0.46379 2.83366,-1.5155 5.66007,-2.33716 5.20255,-1.51243 6.74699,-3.61732 3.42725,-4.67097 -0.94142,-0.29879 -5.17087,0.11294 -9.39878,0.91497 -7.31282,1.38722 -9.51455,1.28548 -9.51455,-0.43964 0,-1.10834 4.82043,-2.94277 12.51969,-4.76441 6.66267,-1.57638 6.68378,-1.5913 3.88656,-2.74623 -2.03304,-0.83942 -6.09627,-0.98501 -14.66135,-0.5253 -8.1218,0.43591 -12.04571,0.3174 -12.47473,-0.37678 -1.40883,-2.27951 16.78623,-5.98047 25.0267,-5.09054 6.28322,0.67857 6.97866,-0.41801 1.875,-2.95651 -2.79969,-1.39253 -6.28389,-1.82788 -17.10937,-2.13779 -14.03708,-0.40186 -17.34399,-1.21449 -12.57454,-3.09003 1.84061,-0.7238 7.39334,-0.91384 17.03393,-0.58297 7.86673,0.26998 14.08137,0.13204 13.81031,-0.30654 -0.82142,-1.32909 -10.30383,-4.54243 -15.39902,-5.21833 -2.63327,-0.34932 -4.99611,-0.97224 -5.25077,-1.38427 -1.08709,-1.75896 2.0757,-1.87553 10.36964,-0.38216 8.7183,1.56977 11.69795,1.44727 11.69795,-0.4809 0,-1.49324 -5.8835,-4.74746 -7.59888,-4.20302 -0.83127,0.26384 -2.0445,-0.16263 -2.69605,-0.94771 -0.97805,-1.17848 -0.91938,-1.42742 0.33639,-1.42742 2.81372,0 1.55274,-1.85146 -2.46334,-3.61683 -11.19919,-4.92288 -11.84294,-5.09489 -16.84825,-4.50209 -6.84514,0.81071 -12.14251,4.61621 -13.38612,9.61629 -0.51563,2.07311 -1.64684,4.8456 -2.51381,6.16108 -3.85964,5.85633 -5.30866,17.18182 -2.67853,20.9353 1.09729,1.56596 4.72359,12.2735 4.72359,13.94758 0,0.86217 0.94922,1.95394 2.10937,2.42616 1.16016,0.47222 3.375,1.72462 4.92188,2.78312 3.82001,2.61395 7.33051,2.43446 17.76623,-0.90839 z m 51.20743,-4.78067 c 0.71581,-1.33751 0.8587,-4.54813 0.43095,-9.68322 -0.63463,-7.61855 -0.68017,-7.7265 -5.49103,-13.01438 -4.62766,-5.08653 -5.07119,-5.33802 -9.63008,-5.46041 -2.62845,-0.0706 -5.29118,0.18825 -5.9172,0.57514 -2.31598,1.43136 -2.88091,5.19188 -1.87795,12.50096 0.84202,6.1363 1.447,7.71553 3.97125,10.36645 6.18648,6.49695 16.19621,9.04639 18.51406,4.71546 z m 10.53524,-2.2036 c 4.03279,-1.685 4.74895,-2.70444 3.999,-5.69249 -0.81207,-3.23552 -3.27897,-2.88823 -3.96835,0.55866 -0.3134,1.56702 -1.04114,2.69413 -1.61718,2.50469 -1.40484,-0.46198 -1.81691,-3.83021 -1.07436,-8.78184 0.56115,-3.74202 0.83387,-4.07197 3.36568,-4.07197 2.81241,0 3.19704,-0.56988 2.17764,-3.2264 -0.60493,-1.5764 -14.35848,-8.4002 -15.21151,-7.54716 -0.27047,0.27046 0.43519,1.645 1.56813,3.05453 2.99215,3.72264 3.54223,5.32121 5.31766,15.45341 0.88093,5.02734 1.71643,9.14062 1.85667,9.14062 0.14025,0 1.75423,-0.62642 3.58662,-1.39205 z m 41.52334,-11.34563 c 9.73249,-5.1392 12.56252,-10.04105 12.15602,-21.05522 -0.30848,-8.35819 -1.1307,-10.16067 -7.46431,-16.36335 -7.07135,-6.92516 -13.37683,-10.7623 -17.87984,-10.88059 -6.3638,-0.16717 -9.28491,0.23066 -11.99898,1.63416 -3.72104,1.92422 -10.48696,8.70505 -12.3617,12.38893 l -1.59923,3.1425 4.0579,-2.77984 c 7.81356,-5.35262 14.83915,-8.19915 14.83915,-6.01233 0,1.12508 -3.77615,4.40064 -7.03125,6.09916 -3.76342,1.96378 -9.25886,7.79818 -8.04925,8.54576 0.52453,0.32417 2.55019,-0.22166 4.50147,-1.21297 3.65435,-1.85653 16.35723,-5.92783 16.8762,-5.40887 0.16037,0.16038 -0.52768,1.33314 -1.52903,2.60613 -1.54767,1.96755 -4.01106,3.09623 -11.09627,5.08408 -0.64453,0.18083 -1.17187,0.8118 -1.17187,1.40215 0,1.34448 6.58291,0.4482 14.26205,-1.94181 3.45211,-1.07442 5.64539,-1.35029 6.01252,-0.75625 1.05589,1.70846 -3.05598,4.62139 -8.10677,5.743 -2.74098,0.60867 -5.18075,1.69815 -5.42173,2.42106 -0.35936,1.07809 0.6381,1.20126 5.54853,0.68513 3.29266,-0.34609 7.14681,-0.8835 8.56477,-1.19424 2.0077,-0.43998 2.57813,-0.21909 2.57813,0.99839 0,2.22085 -4.8954,3.95046 -13.35312,4.71785 -3.99266,0.36226 -7.46799,0.9962 -7.72296,1.40876 -0.81692,1.3218 11.05698,2.05588 15.85645,0.98029 3.3456,-0.74976 4.85775,-0.74578 5.60393,0.0148 1.77022,1.80428 -2.82795,4.64177 -7.75378,4.78481 -8.98787,0.26098 -9.80627,0.36509 -10.06155,1.27996 -0.4387,1.57217 9.18504,5.9178 13.30702,6.00883 2.46028,0.0544 5.49858,-0.78838 8.4375,-2.34026 z m -43.82315,-19.69811 c -1.35052,-1.35053 -3.2075,-2.28719 -4.16779,-2.10225 -1.57999,0.30427 -1.53395,0.51805 0.5245,2.43579 1.24107,1.15624 3.11658,2.10225 4.16779,2.10225 1.78881,0 1.7552,-0.1561 -0.5245,-2.43579 z M 307.0198,191.7782 c -1.38402,-2.73548 -2.36467,-5.76151 -2.17922,-6.72451 0.32157,-1.66974 0.42362,-1.66156 2.20143,0.17632 1.02534,1.05999 3.26512,3.95739 4.9773,6.43868 4.09511,5.9346 5.72052,4.62575 2.96737,-2.38943 -4.56823,-11.64004 -4.69138,-12.09176 -3.29659,-12.09176 0.71194,0 2.27526,1.65892 3.47405,3.68648 1.19878,2.02757 3.44523,5.82402 4.99211,8.43656 1.54687,2.61253 3.12891,4.75048 3.51562,4.751 1.46908,0.002 0.61229,-5.59635 -1.59664,-10.43263 -2.73719,-5.99284 -3.77129,-11.99335 -2.40262,-13.94141 0.86332,-1.22875 1.15126,-1.19298 2.28133,0.28347 0.71132,0.92935 1.56891,3.24966 1.90576,5.15625 0.93961,5.31829 4.44044,16.12278 5.22404,16.12278 1.19864,0 1.63172,-4.53504 0.82919,-8.6829 -1.02088,-5.27634 -1.02055,-12.09689 6.6e-4,-13.70938 1.49571,-2.36173 3.17482,2.68083 3.94969,11.86136 0.40331,4.77831 1.0123,9.13929 1.35332,9.69106 1.55198,2.51116 2.47769,-1.58298 2.43969,-10.79003 -0.0368,-8.90956 0.1307,-9.93261 1.62588,-9.93261 2.62021,0 3.84163,4.09595 3.85718,12.93473 0.0193,10.98976 0.99821,12.03468 3.62718,3.87196 4.26632,-13.2465 3.58689,-19.68586 -2.71408,-25.72257 -2.88179,-2.76093 -6.68788,-3.77996 -17.98726,-4.81586 -6.07793,-0.55721 -6.55786,-0.43792 -15.01927,3.73339 -4.8074,2.36994 -10.18375,5.79781 -11.94744,7.61748 -2.77579,2.86388 -3.19609,3.90758 -3.12757,7.76655 0.0958,5.39526 2.28541,11.0805 7.00311,18.18314 5.72459,8.61855 8.61917,7.56102 4.04578,-1.47812 z m -107.3323,-3.76331 c 0,-3.73796 -1.96114,-11.76489 -2.87439,-11.76489 -1.01002,0 -5.56311,-8.7344 -5.56311,-10.67196 0,-0.74761 -0.36115,-1.49991 -0.80258,-1.67179 -0.44141,-0.17188 -2.04357,-2.49952 -3.56035,-5.17254 -1.98919,-3.50552 -3.10893,-4.64301 -4.0177,-4.08136 -0.97728,0.604 0.32662,3.80948 5.81256,14.28946 3.88986,7.43094 7.60232,15.27926 8.24992,17.44074 1.30102,4.34241 2.75565,5.20409 2.75565,1.63234 z M 127.5,149.65947 c 11.4096,-2.01398 13.46055,-3.62328 15.83427,-12.42449 1.2967,-4.80783 1.39838,-25.67248 0.12511,-25.67248 -1.82905,0 -4.70938,7.81462 -4.70938,12.77701 0,2.70866 -0.42188,5.18556 -0.9375,5.50424 -0.58341,0.36056 -0.94234,-1.47755 -0.9503,-4.86654 -0.007,-2.99528 -0.26875,-6.40119 -0.58158,-7.56869 l -0.56879,-2.12272 -1.76578,2.03596 c -1.59404,1.83795 -2.9579,5.63463 -3.79677,10.5693 -0.16804,0.98853 -0.89,1.99194 -1.60433,2.22981 -1.0038,0.33426 -1.17093,-0.28692 -0.73583,-2.73481 1.50369,-8.45969 1.77241,-13.01106 0.76821,-13.01106 -1.24581,0 -4.25672,5.69589 -6.29399,11.90665 -3.07713,9.38083 -4.40985,12.36426 -5.75354,12.87988 -2.32107,0.89068 -3.00165,-0.28401 -2.01107,-3.47104 0.51869,-1.66884 1.50324,-4.93268 2.18789,-7.25299 0.68465,-2.32031 2.3072,-6.85547 3.60568,-10.07812 1.59006,-3.94632 1.98738,-5.85938 1.21693,-5.85938 -1.88705,0 -7.81041,8.54923 -9.68727,13.98172 -1.65037,4.77689 -4.16334,7.7594 -5.45202,6.47071 -0.52764,-0.52762 4.91323,-15.01216 7.06155,-18.79908 1.22191,-2.15391 1.17821,-6.07278 -0.0764,-6.84815 -1.58555,-0.97992 -2.1982,0.31935 -0.89246,1.89266 0.99875,1.20343 0.53823,2.10047 -2.89944,5.64765 -2.24773,2.31935 -4.37549,4.21699 -4.72834,4.21699 -0.35285,0 0.0231,-1.69204 0.83545,-3.76008 1.71255,-4.35973 1.27302,-5.27361 -1.78192,-3.70504 -6.131882,3.14849 -12.03337,11.25188 -12.03337,16.52321 0,5.24862 7.167872,15.55328 13.93816,20.03773 4.86206,3.2205 9.95091,3.57275 21.68684,1.50115 z m 61.84867,-17.08225 c 10.15674,-3.01623 15.60677,-8.65954 17.78531,-18.41603 0.54436,-2.43791 1.66943,-6.13126 2.50015,-8.20745 2.35989,-5.89792 1.21176,-9.461093 -4.66681,-14.483313 -3.6359,-3.106251 -6.44831,-4.605472 -10.51249,-5.603941 -5.2683,-1.294295 -16.57774,-1.556077 -17.72356,-0.410251 -0.29428,0.294269 1.48096,1.03602 3.94497,1.648337 C 190.58525,89.567004 195,91.081399 195,92.018054 c 0,0.656614 -2.10862,0.76247 -6.32813,0.317684 -10.1424,-1.069129 -11.01562,-1.038322 -11.01562,0.388623 0,0.760569 2.3793,2.176392 5.625,3.347217 6.57295,2.371059 12.6281,6.085432 12.64464,7.756552 0.0164,1.65949 -0.45292,1.54188 -7.87695,-1.97386 -3.65348,-1.73016 -8.6466,-3.443507 -11.09582,-3.807445 -6.7857,-1.008319 -6.01175,1.616578 2.31366,7.846855 3.72173,2.78514 6.28449,5.22464 5.69503,5.42113 -1.39411,0.4647 -7.98497,-2.87616 -13.71228,-6.95068 -5.40361,-3.84421 -8.453,-3.86504 -8.89056,-0.0607 -0.32883,2.85907 2.99157,8.02977 4.05325,6.31194 0.3433,-0.55549 0.12969,-1.60584 -0.47472,-2.3341 -0.60441,-0.72826 -0.82676,-1.76447 -0.49413,-2.30269 1.22102,-1.97565 2.88756,-0.87069 4.89141,3.24313 1.89469,3.88976 1.92491,4.21581 0.39062,4.21581 -0.91459,0 -1.91593,0.25303 -2.22519,0.56229 -0.67288,0.67288 1.2192,5.24441 2.57446,6.22023 0.57356,0.41298 0.39351,0.69312 -0.44967,0.69962 -2.54291,0.0196 -7.53705,-3.68776 -9.53945,-7.08157 -1.16647,-1.97703 -2.30968,-2.98894 -2.81071,-2.48791 -0.93489,0.93489 0.49062,5.44067 2.43944,7.71063 0.66484,0.77438 1.43973,2.35718 1.72199,3.51734 0.41884,1.72158 0.11956,2.10937 -1.62799,2.10937 -2.57675,0 -3.41286,-0.98926 -5.74168,-6.79336 -0.98194,-2.44728 -2.31269,-4.45119 -2.95722,-4.45312 -2.84969,-0.008 0.0151,6.40834 5.52791,12.38227 6.66039,7.21744 20.33986,10.13091 31.71138,6.75393 z M 92.8125,105.89083 c 12.83798,-4.78219 14.90669,-7.022642 5.501869,-5.958608 -7.566009,0.855998 -7.220248,-1.166053 0.661397,-3.867928 8.806874,-3.019046 8.651554,-2.917315 6.024234,-3.945614 -1.53138,-0.599361 -4.67851,-0.59522 -9.079669,0.01194 -12.516768,1.726765 -12.83629,-1.823297 -0.396018,-4.400002 3.811809,-0.789526 7.151657,-1.656591 7.421877,-1.926812 1.3132,-1.313206 -1.69468,-1.873393 -10.120978,-1.884927 -8.973812,-0.01228 -11.591823,-0.612269 -9.793962,-2.244547 1.359667,-1.234441 9.237528,-2.922786 13.712019,-2.938694 9.624751,-0.03422 6.930041,-3.9532 -3.108261,-4.520415 -4.498998,-0.254213 -6.447508,-0.734814 -6.447508,-1.59028 0,-2.03956 5.398867,-2.57229 13.21114,-1.303602 4.06564,0.660246 7.69846,0.894061 8.07293,0.519586 1.62916,-1.629162 -1.64141,-3.89163 -7.27349,-5.031548 -3.284886,-0.664851 -6.346986,-1.583289 -6.804674,-2.040973 -1.531712,-1.531715 3.129216,-2.135754 8.082894,-1.047515 8.2252,1.806936 8.05002,1.800302 7.46769,0.282771 -0.2974,-0.775012 -2.69162,-2.410642 -5.32048,-3.634731 -9.415416,-4.384138 -21.801396,-2.473266 -30.258992,4.668265 -7.104682,5.99914 -9.128988,24.321421 -3.70893,33.570054 3.613243,6.165527 6.719029,7.922567 16.063162,9.087427 0.515625,0.0643 3.257813,-0.74745 6.09375,-1.80385 z m 38.90524,-1.82669 c 0.31811,-0.51471 -0.0788,-1.87421 -0.88218,-3.02109 -0.80331,-1.146894 -1.46678,-3.784344 -1.47438,-5.861028 -0.0185,-5.050128 -1.73432,-8.124716 -5.14243,-9.214696 -3.75495,-1.200905 -5.98238,-3.261001 -7.52956,-6.963918 -1.34826,-3.226854 -1.96095,-3.557679 -4.09098,-2.208944 -0.94437,0.597976 -1.1148,1.701749 -0.61298,3.970019 0.38228,1.727972 0.87942,4.549616 1.10475,6.270321 0.74764,5.709315 3.42554,9.722696 9.25377,13.868636 5.63971,4.01185 8.29469,4.90705 9.37399,3.1607 z m 27.80383,-7.451615 c 2.06632,-2.236631 2.60695,-3.940296 3.17542,-10.006731 0.60611,-6.468043 0.45288,-7.748941 -1.32867,-11.107194 -3.04127,-5.732852 -7.73233,-8.944203 -16.15552,-11.059556 -11.65099,-2.925963 -18.6503,-1.083161 -18.6503,4.910318 0,3.567559 5.01835,6.588138 10.94545,6.588138 3.41402,0 4.92136,-0.566838 7.47903,-2.8125 3.85823,-3.387564 8.76302,-3.922962 8.76302,-0.956554 0,1.220285 -1.27968,2.508791 -3.73629,3.762059 -4.5854,2.339297 -6.24006,4.794714 -7.0687,10.489515 -0.56429,3.878069 -0.33747,4.783579 1.94924,7.781611 5.0373,6.604239 9.99789,7.421849 14.62732,2.410894 z m -20.2488,0.18435 c -0.34833,-1.417969 -0.86934,-5.109375 -1.1578,-8.203125 -0.5671,-6.082022 -1.51435,-7.96875 -4.00078,-7.96875 -0.87655,0 -4.01401,-1.310882 -6.97214,-2.913071 -2.95812,-1.60219 -5.65484,-2.636643 -5.99269,-2.298785 -1.19883,1.198826 1.44533,3.826125 5.28901,5.255298 4.56828,1.698593 6.28503,3.8256 7.19199,8.910685 0.73519,4.122025 3.80811,9.795873 5.3054,9.795873 0.58707,0 0.72017,-1.018303 0.33701,-2.578125 z m 40.73021,-21.704584 c 10.97544,-3.212405 16.3475,-6.583747 20.73834,-13.014766 l 3.01868,-4.421275 0.0229,-12.774109 c 0.0283,-15.75783 -0.2031,-16.200555 -11.38406,-21.783452 -12.85225,-6.417407 -17.10878,-7.562937 -22.97748,-6.183776 -7.44839,1.750393 -14.73387,6.033096 -14.73387,8.661169 0,0.480833 -1.68754,2.993697 -3.75008,5.584142 -3.4714,4.359891 -6.56242,11.841996 -6.56242,15.884933 0,3.047878 1.68256,1.802684 3.30515,-2.44601 0.87187,-2.282969 2.29916,-4.919688 3.17175,-5.859375 0.87258,-0.939688 1.86839,-2.446803 2.21288,-3.349147 0.3445,-0.902344 1.10663,-1.640625 1.69359,-1.640625 0.64635,0 0.80332,0.647013 0.39802,1.640625 -2.39827,5.879513 -5.83593,17.054835 -5.38499,17.505776 1.18011,1.180105 2.11887,0.339828 4.99786,-4.47352 2.62205,-4.383767 6.10949,-7.903446 6.93933,-7.003463 0.1518,0.164632 -1.22338,3.359761 -3.05596,7.100287 -1.83259,3.740526 -3.04726,7.085667 -2.69928,7.433647 1.42312,1.42312 7.06129,-2.619834 10.25276,-7.351932 C 170.3113,42.514522 178.36545,33.75 179.85382,33.75 c 2.74704,0 0.34502,3.660895 -11.1394,16.977488 -5.27343,6.114725 -8.37799,12.612417 -4.47922,9.374795 0.67846,-0.563402 3.37043,-2.663524 5.98218,-4.666936 2.61175,-2.003412 7.41927,-6.647506 10.68337,-10.320207 5.0421,-5.673263 8.47425,-8.171897 8.47425,-6.169322 0,0.561551 -0.19271,0.812013 -5.6037,7.283076 -2.07421,2.480578 -3.7713,4.89064 -3.7713,5.355692 0,0.465052 -2.53125,2.564489 -5.625,4.665414 -7.8758,5.348355 -7.49367,7.291993 0.70312,3.576315 3.48047,-1.577726 7.59375,-3.933894 9.14063,-5.235928 2.53495,-2.133717 2.84513,-2.200764 3.14319,-0.679407 0.18189,0.92836 -0.23999,2.008403 -0.9375,2.400094 -0.69751,0.391693 -2.32288,1.649742 -3.61194,2.795667 -1.28906,1.145925 -4.55053,3.108554 -7.2477,4.361398 -5.27104,2.448414 -6.57913,3.705032 -5.24528,5.038886 1.01607,1.016064 12.02654,-1.611945 15.0711,-3.597213 1.21989,-0.795449 2.10938,-0.961301 2.10938,-0.39331 0,0.540181 -0.84375,1.249942 -1.875,1.577248 -1.03125,0.327306 -1.875,0.979973 -1.875,1.450372 0,1.115507 -6.19088,4.23318 -10.06737,5.069846 -3.26379,0.704424 -4.45261,1.824861 -3.52638,3.323532 0.83531,1.351561 2.96622,1.168652 9.84673,-0.845209 z m -63.7365,-26.664407 c -2.10004,-4.420195 -4.2545,-8.306336 -4.78769,-8.635869 -0.53319,-0.329533 -1.38341,-1.507389 -1.88937,-2.617458 -0.50596,-1.110069 -1.51243,-3.056516 -2.2366,-4.325439 -0.9925,-1.73913 -1.05467,-2.622803 -0.25253,-3.589331 1.06137,-1.27887 1.92215,-0.159093 5.2533,6.833963 1.4975,3.143673 9.65459,14.979463 10.5532,15.3125 1.6841,0.624141 0.78177,-5.50748 -1.86808,-12.694244 -2.92525,-7.933726 -4.02751,-15.353135 -2.36499,-15.919005 1.41911,-0.483019 3.78953,5.155808 7.41306,17.634336 1.97723,6.809131 3.55561,10.666413 4.36464,10.666413 0.81182,0 1.17495,-0.897221 1.01031,-2.49628 -0.21805,-2.117623 0.0392,-2.418809 1.69601,-1.985549 1.4298,0.373902 2.08853,-0.0074 2.45878,-1.423244 0.27816,-1.063686 1.12372,-2.171115 1.87903,-2.460954 0.75532,-0.289839 1.1082,-0.955909 0.7842,-1.480154 -0.324,-0.524246 0.25748,-2.029422 1.29218,-3.344837 1.03471,-1.315415 2.37557,-4.772628 2.9797,-7.682694 2.06137,-9.929559 -1.92592,-19.406956 -9.66671,-22.9768294 -4.00938,-1.8490341 -14.71876,-0.5961529 -21.0281,2.4600608 -2.48219,1.2023576 -7.25526,2.9589696 -10.60682,3.9035826 -3.351563,0.944612 -6.849028,2.358083 -7.772144,3.141045 -2.394529,2.030971 -7.228504,12.556189 -7.224352,15.729885 0.0043,3.318591 2.558708,7.48553 6.692124,10.916868 12.522792,10.395743 13.398692,10.98035 16.451462,10.98035 1.7066,0 3.10291,-0.421875 3.10291,-0.9375 0,-0.515625 -0.63281,-0.9375 -1.40625,-0.9375 -0.77344,0 -1.40625,-0.432709 -1.40625,-0.961575 0,-1.476081 4.84682,1.362559 7.43333,4.353479 3.61634,4.181766 3.27919,1.236368 -0.85435,-7.46402 z M 101.8475,45.655621 c -1.73794,-1.390716 -2.550566,-2.793258 -2.305822,-3.979719 0.333609,-1.617319 0.785712,-1.41792 3.855622,1.700528 1.91273,1.942973 3.4777,3.735942 3.4777,3.984375 0,1.12697 -2.58309,0.25086 -5.0275,-1.705184 z M 129.375,33.75 c 0,-3.265625 0.17464,-5.761718 0.38808,-5.546875 0.69684,0.701405 0.92302,10.173272 0.25879,10.837499 C 129.66609,39.396406 129.375,37.015625 129.375,33.75 Z"
     id="path4250"
     inkscape:connector-curvature="0" />
</svg>
