<?xml version="1.0" encoding="UTF-8" standalone="no"?>
<svg id="svg2" xmlns:rdf="http://www.w3.org/1999/02/22-rdf-syntax-ns#" xmlns="http://www.w3.org/2000/svg" height="1248pt" width="833pt" version="1.1" xmlns:cc="http://creativecommons.org/ns#" xmlns:dc="http://purl.org/dc/elements/1.1/" viewBox="0 0 833 1248">
<path id="path4" d="m520.43 6.8574c-9.06 0.0257-18.14 0.4246-27.22 1.2168-122.18 9.1248-230.02 84.476-303.74 178.9-137.7 176.12-190.21 406.35-184.44 626.65 6.508 199.18 60.732 403.28 186.01 561.58 76.13 96.2 188.32 173.1 314.18 177.2 102.8 5.9 202.67-38.9 278.14-106.5 90.84-81.3 153-190 193.64-303.9 43.3-123.1 62.5-254.24 59.4-384.55-3.5-178.2-46.28-358.82-141.86-510.74-36.34-56.55-79.78-109.29-133.08-150.67-67.78-54.65-153.48-89.43-241.03-89.183zm-85.78 49.217c28.19-0.521 55.54 18.812 63.41 45.986 2.29 56.65-20.28 110.28-41.94 161.56-67.81 150.64-152.74 294.2-259.01 421-41.82 41.48-81.1 90.53-138.95 108.81-28.473-10.62-12.047-62.59 16.803-55.9 14.825 5.17 30.297-14.47 26.047-28.28-22.111-13.45-44.911-33.01-48.311-60.3-4.2-26.69 16.413-57.04 44.588-57.5 36.373 3.82 65.103 32.29 82.433 62.61 7.02 8.48 15.74-3.92 20.52-8.85 8.7-11.93 21.22-24.76 19.23-40.65-6.05-3-13.18-1.45-19.59-0.91-56.76 7.28-114.49-40.51-117.18-97.85-6.526-45.21 32.6-93.06 79.42-90.15 49.02 6.3 85.22 47.3 101.43 91.92 1.44 5.03 6.7 12.18 12.57 8.77 18.94-13.46 29.64-36.15 33.63-58.55-0.29-11.85-14.95-8.38-22.74-8.22-69.25 4.09-129.62-61.42-128.2-129.17 7.15-35.75 41.05-69.95 79.85-61.86 56.84 12.02 91.05 67.12 107.75 118.8 0.79 8.3 10.44 7.68 13.77 1.67 14.06-18.34 27.61-37.84 35.17-59.87 4.37-7-4.5-12.05-10.28-9.95-70.07 11.8-140.63-60.1-125.85-129.88 16.4-49.05 86.27-50.81 120.63-20.4 16.2 14.29 34.7 29.55 37.25 52.66 1.01 5.23 2.84 15.71 10.33 11.12 14.78-15.21 34.11-41.75 23.45-62.6-38.19 8.56-73.78-26.69-69.53-64.627 4.52-20.65 23.84-36.151 44.55-38.576 2.91-0.492 5.84-0.759 8.75-0.813zm167.64 7.781c17.97 0.099 36.82 6.253 47.01 21.795 21.09 36.86-5.9 96.31-52.58 90.57-15.17 1.39-7.11 22.58-4.72 31.59 4.96 12.47 11.16 35.95 27.71 32.1 10.57-49.81 56.91-92.22 108.76-93.26 36.78 0.48 56.61 48.12 39.71 77.89-21.28 38.71-67.32 58.49-110.14 58.2-6.03-0.7-14.28 1.15-15.15 8.32-5.9 31.08 7.26 72.14 40.5 81.8 18.4 5.94 11.66-20.65 12.82-30.14 7.48-50.8 59.13-85.44 108.65-84.19 40.58-1.32 82 33.87 77.88 76.4-4.39 54.61-47.12 109.71-105.02 111.46-13.88 3.8-28.98-9.13-41.62-2.75-7.04 27.23 13.69 53.72 33.15 70.9 4.34 3.7 13.1 10.29 16.54 2.2 4.97-50.04 58.49-86.83 106.95-79.75 20.14 2.76 37.57 18.68 43.69 37.83 20.13 58.02-22.56 121.33-76.23 142.89-8.5 3.45-24.07 6.36-17.8 19.45 7.1 11.49 18.25 34.08 34.6 30.09 8.55-22.04 27.31-47.95 54.68-39.29 34.77 13.93 34.08 65.09 9.86 88.61-22.43 16.58 24.16 41.52 7.47 59.55-130.49-111.24-241.56-246.54-324.17-397.22-20.94-45.27-44.5-89.64-56.68-138.36-17.21-42.78-18.21-89.22-24.12-134.35-1.05-26.978 27.5-40.414 50.62-42.014 2.51-0.224 5.06-0.335 7.63-0.321zm-83.36 108.58c16.15 25.2 16.61 62.75 27.52 92.31 30.16 81.13 63.26 162.06 112.67 233.63 62.4 97.91 142 183.1 225.6 263.12 3.75 4.92 15.53 11.09 8.94 18.31-151.75 176.6-287.26 373.09-358.1 596.99-1.12 5-6.02 17.6-10.56 8.1-90.31-213.2-205.06-418.15-358.85-592.31-4.01-5.86-15.02-13.48-6.66-20.39 159.15-172.33 287.35-375.82 359.44-599.76zm2.69 95.32c-0.32 0-0.67 0.04-1.03 0.13-37.76 54.82-47.15 129.24-26.06 192.54 2.57 8.02 15.42 21.48 5.13 28.07-48.22-12.95-95.17 24.9-117.31 64.86 31.86 14.6 70.84 19.99 103.01 3.09 6.4-4.11 14.34 1.16 10.15 8.79-19.2 55.8-18.85 117.71-2.47 174.2 2.06 5.08-2.62 11.82-8.07 8.17-22.65-12.85-51.71-11.91-74.38 0.39-8.85 2.98-7.11-11.34-6.15-15.9 7.17-48.24 7.23-99.49-13.03-144.74-5.61-8.3-11.04-23.3-22.62-21.45-45.35 44.35-50.77 116.21-31.03 173.91 3.16 5.88-2.27 13.92-9.29 9.47-36.97-12.7-82.23-11.95-113.26 14.55-5.31 4.92-15.14 9.96-11.92 18.7 16.91 27.45 51.09 42.68 82.9 37.56 15.61-0.51 29.89-8.98 45.46-8.69 7.46 5.61-0.28 15.38-1.2 22.77-13.93 56.8-0.5 126.8 48.6 163.16 10.69 10.86 17.09-6.19 20.26-14.28 21.28-55.21 21.75-122.59-12.51-172.74-3.17-5.9 3.21-7.77 6.7-5.29 24.41 13.58 53.78 17.18 80.86 10.38 6.23-1.01 16.99-4.07 18.05 4.94-15.31 61.31-17.36 131.1 14.84 187.45 0.17 8.8-12.27 2.8-16.01-0.2-27.59-19.06-69.19-19.61-93.95 3.7-2.08 41.6 45.82 63.8 81.78 64.7 7.82 1.7 29.58-4.5 25.05 10.5-19.5 26.5-31.62 60.4-25.5 93.6 4.37 44.8 23.06 86.6 44.19 125.8 3.99 6.8 8.79-2.4 10.97-5.9 33.58-59.7 56.24-132.5 33.94-200.1-2.1-7.4-10.46-19.8-1.06-24.7 40.05 9.1 84.77-8.9 106.24-44 3.09-10.4-9.53-15.2-15.51-21.1-27.99-24.55-70.01-23.87-101.39-6.4-6.41 4.5-12.63-2.6-9.28-8.89 19.47-52.21 29.1-111.07 10.84-165.02-2.51-6.38-2.17-18.2 8.15-14.07 30.95 8.39 62.83-3.76 88.9-20.04 11.73-3.5 6.61 12.62 2.86 18.04-36.43 62.79-29.47 148.69 20.53 202.18 1.9 1.7 4.6 1.7 6.44-0.1 42.41-50.28 68.74-122.9 41.37-186.64-2.81-5.69-6.83-21.48 5.09-15.35 40.33 35.11 100.42 5.69 126.35-33 5.31-10.52-11.85-14.83-17.04-21.06-31-18.84-73.87-33.07-107.03-11.47-5.73 5.2-17.16 2.32-12.29-7.56 18.35-58.43 0.78-125.16-41.82-168.61-6.72-9.91-16.35 1.33-20.93 7.3-38.13 48.8-33.49 122.95 2.25 171.74 2.82 3.7-0.85 10.51-5.05 6.26-28.85-20.97-69.49-29.62-102.43-13.17-8.41 3.34-7.85-10.19-4.71-14.35 18.72-47.35 28.12-102.51 6.24-150.53-3.26-8.38-11.33-15.67-10.18-25.24 10.25-0.97 17.55 7.48 26.99 9.68 29.6 9.8 61.97 3.78 90.32-7.27 4.92-3.05-0.18-9.05-1.53-12.73-20.14-39.82-66.67-72.95-112.65-57.76-12.28-0.62-2.83-16.94-0.73-23.16 19.01-59.78 4.93-125.34-16.94-182.57-2.53-3.81-3.22-12.6-8.1-12.55zm-1.98 225.08c30.13-0.61 30.29 51.08-0.98 49.46-29.84 1.19-29.65-49.8-0.47-49.39 0.49-0.03 0.98-0.06 1.45-0.07zm-159.27 256.26c16.35-0.56 29.1 19.19 22.09 34.25-3.27 12.47-18.56 19.89-30.37 14.83-21.34-7.42-18.74-47.19 4.96-48.69 1.12-0.23 2.22-0.36 3.32-0.39zm331.44 2.53c11.35-0.04 21.69 9.13 24.18 20.16 5.72 18.03-15.98 38.44-33.4 29.7-22.4-7.88-18.79-47.43 5.67-49.54 1.19-0.21 2.38-0.31 3.55-0.32zm-170.96 11.45c19.31 0.28 29.86 27.01 15.36 40.39-9.71 13.67-33.44 8.07-37.2-7.81-5.34-13.8 3.6-33.14 19.94-32.52 0.64-0.05 1.27-0.07 1.9-0.06zm-401.27 45.63c20.24 0.22 40.12 8.99 51.66 26.3 140.26 182.09 263.61 381.89 330.51 603.29 2.86 9.2 10.15 21.9-0.64 29-21.3 16.8-51.99 19.5-77.51 11.6-27.9-7.6-42.87-42.9-31.05-68.8 14.09-20.5 35.88-38.1 61.85-39.2 6.04 0.2 7.51-6.9 6.26-11.6-3.99-19-11.24-38.6-25.71-52-9.73-5-8.05 10.6-8.14 15.8-14.17 52.8-73.39 83.7-125.55 79.5-39.05-2.5-67.2-47.6-53.85-83.9 16.58-48.5 65.01-86.4 116.81-86.6 7.93 0 19.88 10.7 25.46 2.1-3.1-34.2-23.19-64.6-46.11-89.4-5.7-6.8-13.88 0.9-10.71 8 4.53 44.6-29.8 81.8-65.86 103-29.49 12.9-64.2 24.5-95.21 10-22.52-11.6-38.05-35.6-39.85-60.7 2.55-78.8 96.04-131.8 167.86-109 7.16-2.1 3.17-13.3 1.11-18-10.71-23.3-22.67-46.5-39.27-66-2.95-6-11.35-3.4-10.96 2.7 0.93 30.5-15.43 60.1-41.96 75.1-29.97 19.9-72.72 17.1-100.28-5.8-27.415-25-34.615-69.3-15.778-101.44 21.128-41.26 68.828-64.05 114.2-57.92 13.47-12.55-19.18-49.12-31.96-28.6-26.91 36.65-96.438 40.38-115.51-5.6-17.603-35.89 10.36-78.53 48.96-81.07 3.72-0.54 7.48-0.8 11.23-0.76zm800.15 4.41c32.57 0.27 56.6 43.91 38.98 71.79-16 29-61.87 33.23-83.4 8.39-3.51-4.64-11.04-8.65-15.42-2.56-12.97 15.3-27.12 31.32-33.17 50.73-0.81 9.69 11.76 4.72 16.64 2.02 45.77-19.95 109.13 14.82 106.28 67.41-5.32 62.9-98.67 87.1-138.23 40.2-8.89-5.5-12.39-26.8-25.59-20.5-15.22 14.4-28.93 33.8-29.68 55.6-0.64 4.3 3.91 8.3 8.37 6.1 53.59-20.7 109.42 28.9 119.6 80 5.95 23-3.1 48-21.87 62.4-46.7 47.2-139.04 31.2-164.27-31.3-2.36-7-10.63-6.4-14.92-1.7-12.74 13.9-20.89 33.3-19.65 52.3 3.35 11.5 17.83 4.5 26.25 5.3 36.46 3.4 68.76 29.1 84.36 61.6 13.31 27.2 3.95 64.6-26.36 75.5-45.55 16.7-100.04-2.1-130.84-38.3-15.91-10.9-35.21 30.2-11.22 32.7 25.12 8 49.87 34.8 39.56 62.7-21.9 36.4-74.03 36-107.59 17.3-3.28-8.2 2.97-16.3 5.49-24 87.55-224.3 188.36-450.44 358.36-625.29 4.7-4.14 10.35-7.87 16.77-8.37 0.52-0.02 1.04-0.03 1.55-0.02zm-390.34 207.48c17.31 0.1 29.19 22.8 18.16 36.7-7.51 14.3-29.95 14.5-37.98 0.5-9.6-14-0.12-37.6 18.13-37.2h1.69z" transform="scale(.8)"/>
</svg>
